M48
; DRILL file {KiCad 9.0.5} date 2025-10-29T17:42:00-0400
; FORMAT={-:-/ absolute / metric / decimal}
; #@! TF.CreationDate,2025-10-29T17:42:00-04:00
; #@! TF.GenerationSoftware,Kicad,Pcbnew,9.0.5
; #@! TF.FileFunction,Plated,1,2,PTH
FMAT,2
METRIC
; #@! TA.AperFunction,Plated,PTH,ViaDrill
T1C0.300
; #@! TA.AperFunction,Plated,PTH,ComponentDrill
T2C1.000
; #@! TA.AperFunction,Plated,PTH,ComponentDrill
T3C1.300
%
G90
G05
T1
X171.04Y-96.83
X171.24Y-91.53
X171.96Y-87.16
X172.02Y-78.35
X172.06Y-82.92
X172.17Y-74.12
X172.32Y-65.17
X172.42Y-69.9
X172.69Y-60.74
X173.91Y-99.21
X175.29Y-90.63
X176.96Y-68.06
X177.33Y-75.47
X177.9Y-94.95
X178.6Y-60.56
X179.26Y-99.39
X179.87Y-72.22
X180.65Y-80.55
X181.84Y-65.62
X182.96Y-85.21
X183.68Y-70.95
X184.16Y-60.77
X184.27Y-81.93
X185.0Y-65.69
X185.1Y-99.88
X187.06Y-93.55
X187.12Y-91.35
X187.18Y-83.41
X189.85Y-100.01
X190.51Y-66.58
X190.86Y-60.74
X190.93Y-71.37
X190.98Y-81.53
X191.76Y-89.85
X193.65Y-85.32
X194.11Y-99.92
X194.96Y-71.34
X195.1Y-75.03
X196.06Y-90.85
X196.3Y-68.32
X196.6Y-60.8
X197.02Y-80.71
X198.39Y-99.91
X199.88Y-80.68
X201.22Y-83.1
X202.14Y-67.25
X202.17Y-87.02
X202.32Y-60.82
X202.79Y-99.78
X202.85Y-80.5
X203.62Y-73.0
X207.64Y-60.68
X207.72Y-99.74
X209.32Y-93.98
X209.33Y-85.5
X209.37Y-68.72
X210.65Y-72.02
X211.57Y-60.67
X212.19Y-99.81
X213.88Y-75.07
X214.34Y-80.52
X214.52Y-66.08
X215.95Y-60.68
X216.8Y-86.71
X216.84Y-99.67
X216.86Y-93.39
X216.96Y-90.45
X216.96Y-96.46
X216.98Y-82.31
X217.01Y-65.05
X217.01Y-71.37
X217.02Y-76.42
T2
X176.99Y-62.89
X176.99Y-78.13
X177.87Y-92.36
X179.53Y-62.89
X179.53Y-78.13
X182.07Y-62.89
X182.07Y-78.13
X184.0Y-88.19
X184.14Y-92.36
X184.61Y-62.89
X184.61Y-78.13
X187.15Y-62.89
X187.15Y-78.13
X189.69Y-62.89
X189.69Y-78.13
X190.42Y-92.46
X190.42Y-95.0
X190.42Y-97.54
X191.27Y-83.59
X192.23Y-62.89
X192.23Y-78.13
X192.96Y-92.46
X192.96Y-95.0
X192.96Y-97.54
X194.77Y-62.89
X194.77Y-78.13
X197.31Y-62.89
X197.31Y-78.13
X199.85Y-62.89
X199.85Y-78.13
X202.39Y-62.89
X202.39Y-78.13
X204.93Y-62.89
X204.93Y-78.13
X205.5Y-84.0
X207.47Y-62.89
X207.47Y-78.13
X210.01Y-62.89
X210.01Y-78.13
X212.55Y-62.89
X212.55Y-78.13
X213.0Y-84.0
T3
X203.032Y-91.75
X203.032Y-96.75
M30
