%TF.GenerationSoftware,KiCad,Pcbnew,9.0.5*%
%TF.CreationDate,2025-10-29T17:37:18-04:00*%
%TF.ProjectId,Cruz_FlightComputerPCB,4372757a-5f46-46c6-9967-6874436f6d70,rev?*%
%TF.SameCoordinates,Original*%
%TF.FileFunction,Soldermask,Bot*%
%TF.FilePolarity,Negative*%
%FSLAX46Y46*%
G04 Gerber Fmt 4.6, Leading zero omitted, Abs format (unit mm)*
G04 Created by KiCad (PCBNEW 9.0.5) date 2025-10-29 17:37:18*
%MOMM*%
%LPD*%
G01*
G04 APERTURE LIST*
G04 Aperture macros list*
%AMRoundRect*
0 Rectangle with rounded corners*
0 $1 Rounding radius*
0 $2 $3 $4 $5 $6 $7 $8 $9 X,Y pos of 4 corners*
0 Add a 4 corners polygon primitive as box body*
4,1,4,$2,$3,$4,$5,$6,$7,$8,$9,$2,$3,0*
0 Add four circle primitives for the rounded corners*
1,1,$1+$1,$2,$3*
1,1,$1+$1,$4,$5*
1,1,$1+$1,$6,$7*
1,1,$1+$1,$8,$9*
0 Add four rect primitives between the rounded corners*
20,1,$1+$1,$2,$3,$4,$5,0*
20,1,$1+$1,$4,$5,$6,$7,0*
20,1,$1+$1,$6,$7,$8,$9,0*
20,1,$1+$1,$8,$9,$2,$3,0*%
G04 Aperture macros list end*
%ADD10R,1.600000X1.600000*%
%ADD11O,1.600000X1.600000*%
%ADD12C,3.200000*%
%ADD13R,2.000000X2.000000*%
%ADD14RoundRect,0.250001X-1.149999X1.149999X-1.149999X-1.149999X1.149999X-1.149999X1.149999X1.149999X0*%
%ADD15C,2.800000*%
%ADD16R,1.700000X1.700000*%
%ADD17C,1.700000*%
G04 APERTURE END LIST*
D10*
%TO.C,A1*%
X212550000Y-62890000D03*
D11*
X210010000Y-62890000D03*
X207470000Y-62890000D03*
X204930000Y-62890000D03*
X202390000Y-62890000D03*
X199850000Y-62890000D03*
X197310000Y-62890000D03*
X194770000Y-62890000D03*
X192230000Y-62890000D03*
X189690000Y-62890000D03*
X187150000Y-62890000D03*
X184610000Y-62890000D03*
X182070000Y-62890000D03*
X179530000Y-62890000D03*
X176990000Y-62890000D03*
X176990000Y-78130000D03*
X179530000Y-78130000D03*
X182070000Y-78130000D03*
X184610000Y-78130000D03*
X187150000Y-78130000D03*
X189690000Y-78130000D03*
X192230000Y-78130000D03*
X194770000Y-78130000D03*
X197310000Y-78130000D03*
X199850000Y-78130000D03*
X202390000Y-78130000D03*
X204930000Y-78130000D03*
X207470000Y-78130000D03*
X210010000Y-78130000D03*
X212550000Y-78130000D03*
%TD*%
D12*
%TO.C,M3B*%
X214000000Y-96500000D03*
%TD*%
D13*
%TO.C,GND1*%
X213000000Y-84000000D03*
%TD*%
%TO.C,SERVO_5V1*%
X184140000Y-92360000D03*
%TD*%
D14*
%TO.C,Screw Header*%
X203032500Y-91750000D03*
D15*
X203032500Y-96750000D03*
%TD*%
D13*
%TO.C,SCL1*%
X191270000Y-83590000D03*
%TD*%
D12*
%TO.C,M3A*%
X175000000Y-85000000D03*
%TD*%
D13*
%TO.C,5V_USB1*%
X205500000Y-84000000D03*
%TD*%
%TO.C,3V3*%
X177870000Y-92360000D03*
%TD*%
D16*
%TO.C,J1*%
X192960000Y-97540000D03*
D17*
X190420000Y-97540000D03*
X192960000Y-95000000D03*
X190420000Y-95000000D03*
X192960000Y-92460000D03*
X190420000Y-92460000D03*
%TD*%
D13*
%TO.C,SDA1*%
X184000000Y-88190000D03*
%TD*%
M02*
