%TF.GenerationSoftware,KiCad,Pcbnew,9.0.5*%
%TF.CreationDate,2025-10-29T17:37:18-04:00*%
%TF.ProjectId,Cruz_FlightComputerPCB,4372757a-5f46-46c6-9967-6874436f6d70,rev?*%
%TF.SameCoordinates,Original*%
%TF.FileFunction,Copper,L1,Top*%
%TF.FilePolarity,Positive*%
%FSLAX46Y46*%
G04 Gerber Fmt 4.6, Leading zero omitted, Abs format (unit mm)*
G04 Created by KiCad (PCBNEW 9.0.5) date 2025-10-29 17:37:18*
%MOMM*%
%LPD*%
G01*
G04 APERTURE LIST*
G04 Aperture macros list*
%AMRoundRect*
0 Rectangle with rounded corners*
0 $1 Rounding radius*
0 $2 $3 $4 $5 $6 $7 $8 $9 X,Y pos of 4 corners*
0 Add a 4 corners polygon primitive as box body*
4,1,4,$2,$3,$4,$5,$6,$7,$8,$9,$2,$3,0*
0 Add four circle primitives for the rounded corners*
1,1,$1+$1,$2,$3*
1,1,$1+$1,$4,$5*
1,1,$1+$1,$6,$7*
1,1,$1+$1,$8,$9*
0 Add four rect primitives between the rounded corners*
20,1,$1+$1,$2,$3,$4,$5,0*
20,1,$1+$1,$4,$5,$6,$7,0*
20,1,$1+$1,$6,$7,$8,$9,0*
20,1,$1+$1,$8,$9,$2,$3,0*%
G04 Aperture macros list end*
%TA.AperFunction,ComponentPad*%
%ADD10R,1.600000X1.600000*%
%TD*%
%TA.AperFunction,ComponentPad*%
%ADD11O,1.600000X1.600000*%
%TD*%
%TA.AperFunction,ComponentPad*%
%ADD12R,2.000000X2.000000*%
%TD*%
%TA.AperFunction,SMDPad,CuDef*%
%ADD13RoundRect,0.075000X-0.350000X-0.075000X0.350000X-0.075000X0.350000X0.075000X-0.350000X0.075000X0*%
%TD*%
%TA.AperFunction,SMDPad,CuDef*%
%ADD14RoundRect,0.075000X0.075000X-0.350000X0.075000X0.350000X-0.075000X0.350000X-0.075000X-0.350000X0*%
%TD*%
%TA.AperFunction,ComponentPad*%
%ADD15RoundRect,0.250001X-1.149999X1.149999X-1.149999X-1.149999X1.149999X-1.149999X1.149999X1.149999X0*%
%TD*%
%TA.AperFunction,ComponentPad*%
%ADD16C,2.800000*%
%TD*%
%TA.AperFunction,SMDPad,CuDef*%
%ADD17R,0.350000X0.500000*%
%TD*%
%TA.AperFunction,ComponentPad*%
%ADD18R,1.700000X1.700000*%
%TD*%
%TA.AperFunction,ComponentPad*%
%ADD19C,1.700000*%
%TD*%
%TA.AperFunction,ViaPad*%
%ADD20C,0.600000*%
%TD*%
%TA.AperFunction,Conductor*%
%ADD21C,0.200000*%
%TD*%
G04 APERTURE END LIST*
D10*
%TO.P,A1,1,D1/TX*%
%TO.N,unconnected-(A1-D1{slash}TX-Pad1)*%
X212550000Y-62890000D03*
D11*
%TO.P,A1,2,D0/RX*%
%TO.N,unconnected-(A1-D0{slash}RX-Pad2)*%
X210010000Y-62890000D03*
%TO.P,A1,3,~{RESET}*%
%TO.N,unconnected-(A1-~{RESET}-Pad3)*%
X207470000Y-62890000D03*
%TO.P,A1,4,GND*%
%TO.N,GND*%
X204930000Y-62890000D03*
%TO.P,A1,5,D2*%
%TO.N,unconnected-(A1-D2-Pad5)*%
X202390000Y-62890000D03*
%TO.P,A1,6,D3*%
%TO.N,unconnected-(A1-D3-Pad6)*%
X199850000Y-62890000D03*
%TO.P,A1,7,D4*%
%TO.N,unconnected-(A1-D4-Pad7)*%
X197310000Y-62890000D03*
%TO.P,A1,8,D5*%
%TO.N,unconnected-(A1-D5-Pad8)*%
X194770000Y-62890000D03*
%TO.P,A1,9,D6*%
%TO.N,unconnected-(A1-D6-Pad9)*%
X192230000Y-62890000D03*
%TO.P,A1,10,D7*%
%TO.N,unconnected-(A1-D7-Pad10)*%
X189690000Y-62890000D03*
%TO.P,A1,11,D8*%
%TO.N,unconnected-(A1-D8-Pad11)*%
X187150000Y-62890000D03*
%TO.P,A1,12,D9*%
%TO.N,/PWM_A*%
X184610000Y-62890000D03*
%TO.P,A1,13,D10*%
%TO.N,/PWM_B*%
X182070000Y-62890000D03*
%TO.P,A1,14,D11*%
%TO.N,unconnected-(A1-D11-Pad14)*%
X179530000Y-62890000D03*
%TO.P,A1,15,D12*%
%TO.N,unconnected-(A1-D12-Pad15)*%
X176990000Y-62890000D03*
%TO.P,A1,16,D13*%
%TO.N,unconnected-(A1-D13-Pad16)*%
X176990000Y-78130000D03*
%TO.P,A1,17,3V3*%
%TO.N,+3.3V*%
X179530000Y-78130000D03*
%TO.P,A1,18,AREF*%
%TO.N,unconnected-(A1-AREF-Pad18)*%
X182070000Y-78130000D03*
%TO.P,A1,19,A0*%
%TO.N,unconnected-(A1-A0-Pad19)*%
X184610000Y-78130000D03*
%TO.P,A1,20,A1*%
%TO.N,unconnected-(A1-A1-Pad20)*%
X187150000Y-78130000D03*
%TO.P,A1,21,A2*%
%TO.N,unconnected-(A1-A2-Pad21)*%
X189690000Y-78130000D03*
%TO.P,A1,22,A3*%
%TO.N,unconnected-(A1-A3-Pad22)*%
X192230000Y-78130000D03*
%TO.P,A1,23,A4*%
%TO.N,/SDA_3V3*%
X194770000Y-78130000D03*
%TO.P,A1,24,A5*%
%TO.N,/SCL_3V3*%
X197310000Y-78130000D03*
%TO.P,A1,25,A6*%
%TO.N,unconnected-(A1-A6-Pad25)*%
X199850000Y-78130000D03*
%TO.P,A1,26,A7*%
%TO.N,unconnected-(A1-A7-Pad26)*%
X202390000Y-78130000D03*
%TO.P,A1,27,+5V*%
%TO.N,+5V*%
X204930000Y-78130000D03*
%TO.P,A1,28,~{RESET}*%
%TO.N,unconnected-(A1-~{RESET}-Pad28)*%
X207470000Y-78130000D03*
%TO.P,A1,29,GND*%
%TO.N,GND*%
X210010000Y-78130000D03*
%TO.P,A1,30,VIN*%
%TO.N,unconnected-(A1-VIN-Pad30)*%
X212550000Y-78130000D03*
%TD*%
D12*
%TO.P,GND1,1,1*%
%TO.N,GND*%
X213000000Y-84000000D03*
%TD*%
D13*
%TO.P,MPU6050,1,CLKIN*%
%TO.N,unconnected-(U1-CLKIN-Pad1)*%
X196050000Y-82750000D03*
%TO.P,MPU6050,2,NC*%
%TO.N,unconnected-(U1-NC-Pad2)*%
X196050000Y-83250000D03*
%TO.P,MPU6050,3,NC*%
%TO.N,unconnected-(U1-NC-Pad3)*%
X196050000Y-83750000D03*
%TO.P,MPU6050,4,NC*%
%TO.N,unconnected-(U1-NC-Pad4)*%
X196050000Y-84250000D03*
%TO.P,MPU6050,5,NC*%
%TO.N,unconnected-(U1-NC-Pad5)*%
X196050000Y-84750000D03*
%TO.P,MPU6050,6,AUX_DA*%
%TO.N,unconnected-(U1-AUX_DA-Pad6)*%
X196050000Y-85250000D03*
D14*
%TO.P,MPU6050,7,AUX_CL*%
%TO.N,unconnected-(U1-AUX_CL-Pad7)*%
X196750000Y-85950000D03*
%TO.P,MPU6050,8,VLOGIC*%
%TO.N,unconnected-(U1-VLOGIC-Pad8)*%
X197250000Y-85950000D03*
%TO.P,MPU6050,9,AD0*%
%TO.N,GND*%
X197750000Y-85950000D03*
%TO.P,MPU6050,10,REGOUT*%
%TO.N,unconnected-(U1-REGOUT-Pad10)*%
X198250000Y-85950000D03*
%TO.P,MPU6050,11,FSYNC*%
%TO.N,unconnected-(U1-FSYNC-Pad11)*%
X198750000Y-85950000D03*
%TO.P,MPU6050,12,INT*%
%TO.N,unconnected-(U1-INT-Pad12)*%
X199250000Y-85950000D03*
D13*
%TO.P,MPU6050,13,VDD*%
%TO.N,+3.3V*%
X199950000Y-85250000D03*
%TO.P,MPU6050,14,NC*%
%TO.N,unconnected-(U1-NC-Pad14)*%
X199950000Y-84750000D03*
%TO.P,MPU6050,15,NC*%
%TO.N,unconnected-(U1-NC-Pad15)*%
X199950000Y-84250000D03*
%TO.P,MPU6050,16,NC*%
%TO.N,unconnected-(U1-NC-Pad16)*%
X199950000Y-83750000D03*
%TO.P,MPU6050,17,NC*%
%TO.N,unconnected-(U1-NC-Pad17)*%
X199950000Y-83250000D03*
%TO.P,MPU6050,18,GND*%
%TO.N,GND*%
X199950000Y-82750000D03*
D14*
%TO.P,MPU6050,19,RESV*%
%TO.N,unconnected-(U1-RESV-Pad19)*%
X199250000Y-82050000D03*
%TO.P,MPU6050,20,CPOUT*%
%TO.N,unconnected-(U1-CPOUT-Pad20)*%
X198750000Y-82050000D03*
%TO.P,MPU6050,21,RESV*%
%TO.N,unconnected-(U1-RESV-Pad21)*%
X198250000Y-82050000D03*
%TO.P,MPU6050,22,RESV*%
%TO.N,unconnected-(U1-RESV-Pad22)*%
X197750000Y-82050000D03*
%TO.P,MPU6050,23,SCL*%
%TO.N,/SCL_3V3*%
X197250000Y-82050000D03*
%TO.P,MPU6050,24,SDA*%
%TO.N,/SDA_3V3*%
X196750000Y-82050000D03*
%TD*%
D12*
%TO.P,SERVO_5V1,1,1*%
%TO.N,/SERVO 5V NET*%
X184140000Y-92360000D03*
%TD*%
D15*
%TO.P,Screw Header,1,Pin_1*%
%TO.N,GND*%
X203032500Y-91750000D03*
D16*
%TO.P,Screw Header,2,Pin_2*%
%TO.N,/SERVO 5V NET*%
X203032500Y-96750000D03*
%TD*%
D12*
%TO.P,SCL1,1,1*%
%TO.N,/SCL_3V3*%
X191270000Y-83590000D03*
%TD*%
%TO.P,5V_USB1,1,1*%
%TO.N,+5V*%
X205500000Y-84000000D03*
%TD*%
D17*
%TO.P,BMP280,1,GND*%
%TO.N,GND*%
X184915000Y-84430000D03*
%TO.P,BMP280,2,CSB*%
%TO.N,unconnected-(U2-CSB-Pad2)*%
X184265000Y-84430000D03*
%TO.P,BMP280,3,SDI*%
%TO.N,/SDA_3V3*%
X183615000Y-84430000D03*
%TO.P,BMP280,4,SCK*%
%TO.N,/SCL_3V3*%
X182965000Y-84430000D03*
%TO.P,BMP280,5,SDO*%
%TO.N,GND*%
X182965000Y-82830000D03*
%TO.P,BMP280,6,VDDIO*%
%TO.N,+3.3V*%
X183615000Y-82830000D03*
%TO.P,BMP280,7,GND*%
%TO.N,GND*%
X184265000Y-82830000D03*
%TO.P,BMP280,8,VDD*%
%TO.N,+3.3V*%
X184915000Y-82830000D03*
%TD*%
D12*
%TO.P,3V3,1,1*%
%TO.N,+3.3V*%
X177870000Y-92360000D03*
%TD*%
D18*
%TO.P,J1,1,Pin_1*%
%TO.N,/PWM_A*%
X192960000Y-97540000D03*
D19*
%TO.P,J1,2,Pin_2*%
%TO.N,/PWM_B*%
X190420000Y-97540000D03*
%TO.P,J1,3,Pin_3*%
%TO.N,/SERVO 5V NET*%
X192960000Y-95000000D03*
%TO.P,J1,4,Pin_4*%
X190420000Y-95000000D03*
%TO.P,J1,5,Pin_5*%
%TO.N,GND*%
X192960000Y-92460000D03*
%TO.P,J1,6,Pin_6*%
X190420000Y-92460000D03*
%TD*%
D12*
%TO.P,SDA1,1,1*%
%TO.N,/SDA_3V3*%
X184000000Y-88190000D03*
%TD*%
D20*
%TO.N,+3.3V*%
X199880000Y-80680000D03*
%TO.N,/SCL_3V3*%
X182960000Y-85210000D03*
X197020000Y-80710000D03*
%TO.N,/PWM_A*%
X193650000Y-85320000D03*
X196060000Y-90850000D03*
%TO.N,GND*%
X216960000Y-96460000D03*
X196600000Y-60800000D03*
X187120000Y-91350000D03*
X171960000Y-87160000D03*
X209370000Y-68720000D03*
X202790000Y-99780000D03*
X216860000Y-93390000D03*
X172320000Y-65170000D03*
X190930000Y-71370000D03*
X172690000Y-60740000D03*
X202140000Y-67250000D03*
X209330000Y-85500000D03*
X185000000Y-65690000D03*
X217010000Y-71370000D03*
X214340000Y-80520000D03*
X187060000Y-93550000D03*
X184160000Y-60770000D03*
X172420000Y-69900000D03*
X176960000Y-68060000D03*
X202170000Y-87020000D03*
X211570000Y-60670000D03*
X178600000Y-60560000D03*
X177330000Y-75470000D03*
X215950000Y-60680000D03*
X195100000Y-75030000D03*
X185100000Y-99880000D03*
X190980000Y-81530000D03*
X190510000Y-66580000D03*
X181840000Y-65620000D03*
X216840000Y-99670000D03*
X184270000Y-81930000D03*
X187180000Y-83410000D03*
X177900000Y-94950000D03*
X207640000Y-60680000D03*
X216960000Y-90450000D03*
X210650000Y-72020000D03*
X194110000Y-99920000D03*
X202850000Y-80500000D03*
X217010000Y-65050000D03*
X213880000Y-75070000D03*
X201220000Y-83100000D03*
X179260000Y-99390000D03*
X196300000Y-68320000D03*
X202320000Y-60820000D03*
X189850000Y-100010000D03*
X191760000Y-89850000D03*
X198390000Y-99910000D03*
X217020000Y-76420000D03*
X190860000Y-60740000D03*
X183680000Y-70950000D03*
X207720000Y-99740000D03*
X171040000Y-96830000D03*
X212190000Y-99810000D03*
X172170000Y-74120000D03*
X179870000Y-72220000D03*
X216980000Y-82310000D03*
X214520000Y-66080000D03*
X216800000Y-86710000D03*
X194960000Y-71340000D03*
X171240000Y-91530000D03*
X172020000Y-78350000D03*
X203620000Y-73000000D03*
X175290000Y-90630000D03*
X172060000Y-82920000D03*
X173910000Y-99210000D03*
X209320000Y-93980000D03*
%TO.N,/PWM_B*%
X180650000Y-80550000D03*
%TD*%
D21*
%TO.N,+3.3V*%
X202360000Y-83030000D02*
X202360000Y-83298824D01*
X183600000Y-82845000D02*
X183615000Y-82830000D01*
X184518943Y-81079000D02*
X184915000Y-81475057D01*
X200010000Y-80680000D02*
X202360000Y-83030000D01*
X182479000Y-81079000D02*
X184518943Y-81079000D01*
X202360000Y-83298824D02*
X200408824Y-85250000D01*
X179530000Y-78130000D02*
X183615000Y-82215000D01*
X179530000Y-90700000D02*
X177870000Y-92360000D01*
X184915000Y-81475057D02*
X184915000Y-82830000D01*
X179530000Y-78130000D02*
X179530000Y-90700000D01*
X179530000Y-78130000D02*
X182479000Y-81079000D01*
X199880000Y-80680000D02*
X200010000Y-80680000D01*
X183615000Y-82215000D02*
X183615000Y-82830000D01*
X200408824Y-85250000D02*
X199950000Y-85250000D01*
%TO.N,+5V*%
X204930000Y-78130000D02*
X204930000Y-83430000D01*
X204930000Y-83430000D02*
X205500000Y-84000000D01*
%TO.N,/SCL_3V3*%
X182960000Y-85210000D02*
X182960000Y-84435000D01*
X197310000Y-78130000D02*
X197310000Y-80420000D01*
X197020000Y-80710000D02*
X197250000Y-80940000D01*
X197310000Y-78130000D02*
X197250000Y-78190000D01*
X197250000Y-80940000D02*
X197250000Y-82050000D01*
X197310000Y-80420000D02*
X197020000Y-80710000D01*
X182960000Y-84435000D02*
X182965000Y-84430000D01*
%TO.N,/PWM_A*%
X193650000Y-71930000D02*
X193650000Y-85320000D01*
X184610000Y-62890000D02*
X193650000Y-71930000D01*
X196060000Y-94440000D02*
X196060000Y-90850000D01*
X192960000Y-97540000D02*
X196060000Y-94440000D01*
%TO.N,/SDA_3V3*%
X194770000Y-78130000D02*
X194770000Y-80070000D01*
X194770000Y-78130000D02*
X194770000Y-85920000D01*
X194520000Y-86170000D02*
X184720000Y-86170000D01*
X194760000Y-85930000D02*
X184628000Y-85930000D01*
X194770000Y-80070000D02*
X196750000Y-82050000D01*
X184000000Y-86890000D02*
X184000000Y-89000000D01*
X194770000Y-85920000D02*
X194760000Y-85930000D01*
X194770000Y-85920000D02*
X194520000Y-86170000D01*
X184720000Y-86170000D02*
X184000000Y-86890000D01*
X183615000Y-84917000D02*
X183615000Y-84430000D01*
X184628000Y-85930000D02*
X183615000Y-84917000D01*
%TO.N,GND*%
X201220000Y-83100000D02*
X200870000Y-82750000D01*
X184270000Y-81930000D02*
X184270000Y-82825000D01*
X197750000Y-87090000D02*
X197720000Y-87120000D01*
X197750000Y-87090000D02*
X197750000Y-85950000D01*
X200870000Y-82750000D02*
X199950000Y-82750000D01*
X184270000Y-82825000D02*
X184265000Y-82830000D01*
%TO.N,/PWM_B*%
X180650000Y-80550000D02*
X180650000Y-97531000D01*
X180650000Y-97531000D02*
X180659000Y-97540000D01*
X180659000Y-97540000D02*
X190420000Y-97540000D01*
%TO.N,unconnected-(A1-~{RESET}-Pad28)*%
X207450000Y-78150000D02*
X207470000Y-78130000D01*
X207450000Y-78360000D02*
X207450000Y-78150000D01*
%TD*%
%TA.AperFunction,Conductor*%
%TO.N,GND*%
G36*
X192494075Y-92652993D02*
G01*
X192559901Y-92767007D01*
X192652993Y-92860099D01*
X192767007Y-92925925D01*
X192830590Y-92942962D01*
X192198282Y-93575269D01*
X192198282Y-93575270D01*
X192252452Y-93614626D01*
X192252451Y-93614626D01*
X192261495Y-93619234D01*
X192312292Y-93667208D01*
X192329087Y-93735029D01*
X192306550Y-93801164D01*
X192261499Y-93840202D01*
X192252182Y-93844949D01*
X192080213Y-93969890D01*
X191929890Y-94120213D01*
X191804949Y-94292182D01*
X191800484Y-94300946D01*
X191752509Y-94351742D01*
X191684688Y-94368536D01*
X191618553Y-94345998D01*
X191579516Y-94300946D01*
X191575050Y-94292182D01*
X191450109Y-94120213D01*
X191299786Y-93969890D01*
X191127817Y-93844949D01*
X191118504Y-93840204D01*
X191067707Y-93792230D01*
X191050912Y-93724409D01*
X191073449Y-93658274D01*
X191118507Y-93619232D01*
X191127555Y-93614622D01*
X191181716Y-93575270D01*
X191181717Y-93575270D01*
X190549408Y-92942962D01*
X190612993Y-92925925D01*
X190727007Y-92860099D01*
X190820099Y-92767007D01*
X190885925Y-92652993D01*
X190902962Y-92589408D01*
X191535270Y-93221717D01*
X191535270Y-93221716D01*
X191574622Y-93167554D01*
X191579514Y-93157954D01*
X191627488Y-93107157D01*
X191695308Y-93090361D01*
X191761444Y-93112897D01*
X191800486Y-93157954D01*
X191805375Y-93167550D01*
X191844728Y-93221716D01*
X192477037Y-92589408D01*
X192494075Y-92652993D01*
G37*
%TD.AperFunction*%
%TA.AperFunction,Conductor*%
G36*
X190977227Y-78655389D02*
G01*
X190989808Y-78654850D01*
X191009673Y-78666445D01*
X191031445Y-78673865D01*
X191040719Y-78684568D01*
X191050150Y-78690073D01*
X191070485Y-78718919D01*
X191117715Y-78811614D01*
X191238028Y-78977213D01*
X191382786Y-79121971D01*
X191537749Y-79234556D01*
X191548390Y-79242287D01*
X191629499Y-79283614D01*
X191730776Y-79335218D01*
X191730778Y-79335218D01*
X191730781Y-79335220D01*
X191805818Y-79359601D01*
X191925465Y-79398477D01*
X192026557Y-79414488D01*
X192127648Y-79430500D01*
X192127649Y-79430500D01*
X192332351Y-79430500D01*
X192332352Y-79430500D01*
X192534534Y-79398477D01*
X192729219Y-79335220D01*
X192869206Y-79263892D01*
X192937874Y-79250997D01*
X193002614Y-79277273D01*
X193042872Y-79334379D01*
X193049500Y-79374378D01*
X193049500Y-84740234D01*
X193029815Y-84807273D01*
X193028602Y-84809125D01*
X192940609Y-84940814D01*
X192940602Y-84940827D01*
X192880264Y-85086498D01*
X192880261Y-85086508D01*
X192851780Y-85229692D01*
X192819395Y-85291603D01*
X192758679Y-85326177D01*
X192730163Y-85329500D01*
X192402901Y-85329500D01*
X192335862Y-85309815D01*
X192290107Y-85257011D01*
X192280163Y-85187853D01*
X192309188Y-85124297D01*
X192367966Y-85086523D01*
X192374384Y-85084824D01*
X192377479Y-85084092D01*
X192377481Y-85084091D01*
X192377483Y-85084091D01*
X192512331Y-85033796D01*
X192627546Y-84947546D01*
X192713796Y-84832331D01*
X192764091Y-84697483D01*
X192770500Y-84637873D01*
X192770499Y-82542128D01*
X192764091Y-82482517D01*
X192763083Y-82479815D01*
X192713797Y-82347671D01*
X192713793Y-82347664D01*
X192627547Y-82232455D01*
X192627544Y-82232452D01*
X192512335Y-82146206D01*
X192512328Y-82146202D01*
X192377482Y-82095908D01*
X192377483Y-82095908D01*
X192317883Y-82089501D01*
X192317881Y-82089500D01*
X192317873Y-82089500D01*
X192317864Y-82089500D01*
X190222129Y-82089500D01*
X190222123Y-82089501D01*
X190162516Y-82095908D01*
X190027671Y-82146202D01*
X190027664Y-82146206D01*
X189912455Y-82232452D01*
X189912452Y-82232455D01*
X189826206Y-82347664D01*
X189826202Y-82347671D01*
X189775908Y-82482517D01*
X189770575Y-82532127D01*
X189769501Y-82542123D01*
X189769500Y-82542135D01*
X189769500Y-84637870D01*
X189769501Y-84637876D01*
X189775908Y-84697483D01*
X189826202Y-84832328D01*
X189826206Y-84832335D01*
X189912452Y-84947544D01*
X189912455Y-84947547D01*
X190027664Y-85033793D01*
X190027671Y-85033797D01*
X190162511Y-85084089D01*
X190162512Y-85084089D01*
X190162517Y-85084091D01*
X190162521Y-85084091D01*
X190165613Y-85084822D01*
X190167771Y-85086050D01*
X190169785Y-85086802D01*
X190169663Y-85087128D01*
X190226330Y-85119394D01*
X190258717Y-85181304D01*
X190252493Y-85250896D01*
X190209632Y-85306075D01*
X190143743Y-85329322D01*
X190137101Y-85329500D01*
X185429269Y-85329500D01*
X185362230Y-85309815D01*
X185316475Y-85257011D01*
X185306531Y-85187853D01*
X185335556Y-85124297D01*
X185354958Y-85106234D01*
X185447187Y-85037190D01*
X185447190Y-85037187D01*
X185533350Y-84922093D01*
X185533354Y-84922086D01*
X185583596Y-84787379D01*
X185583598Y-84787372D01*
X185589999Y-84727844D01*
X185590000Y-84727827D01*
X185590000Y-84605000D01*
X185064500Y-84605000D01*
X185055814Y-84602449D01*
X185046854Y-84603738D01*
X185022812Y-84592759D01*
X184997461Y-84585315D01*
X184991534Y-84578475D01*
X184983298Y-84574714D01*
X184969007Y-84552478D01*
X184951706Y-84532511D01*
X184949418Y-84521998D01*
X184945523Y-84515936D01*
X184940500Y-84481001D01*
X184940499Y-84379001D01*
X184960183Y-84311962D01*
X185012986Y-84266206D01*
X185064499Y-84255000D01*
X185590000Y-84255000D01*
X185590000Y-84132172D01*
X185589999Y-84132155D01*
X185583598Y-84072627D01*
X185583596Y-84072620D01*
X185533354Y-83937913D01*
X185533350Y-83937906D01*
X185447190Y-83822812D01*
X185447187Y-83822809D01*
X185324989Y-83731331D01*
X185326632Y-83729135D01*
X185287211Y-83689712D01*
X185272360Y-83621438D01*
X185296778Y-83555974D01*
X185326236Y-83530455D01*
X185325231Y-83529112D01*
X185405136Y-83469293D01*
X185447546Y-83437546D01*
X185533796Y-83322331D01*
X185584091Y-83187483D01*
X185590500Y-83127873D01*
X185590499Y-82532128D01*
X185584091Y-82472517D01*
X185533796Y-82337669D01*
X185533793Y-82337666D01*
X185530667Y-82331939D01*
X185515500Y-82272513D01*
X185515500Y-81396001D01*
X185515500Y-81396000D01*
X185497949Y-81330500D01*
X185474577Y-81243272D01*
X185426800Y-81160520D01*
X185395520Y-81106341D01*
X185283716Y-80994537D01*
X185283715Y-80994536D01*
X185279385Y-80990206D01*
X185279374Y-80990196D01*
X185006533Y-80717355D01*
X185006531Y-80717352D01*
X184887660Y-80598481D01*
X184887659Y-80598480D01*
X184800847Y-80548360D01*
X184800847Y-80548359D01*
X184800843Y-80548358D01*
X184750728Y-80519423D01*
X184598000Y-80478499D01*
X184439886Y-80478499D01*
X184432290Y-80478499D01*
X184432274Y-80478500D01*
X182779098Y-80478500D01*
X182712059Y-80458815D01*
X182691417Y-80442181D01*
X181891417Y-79642181D01*
X181857932Y-79580858D01*
X181862916Y-79511166D01*
X181904788Y-79455233D01*
X181970252Y-79430816D01*
X181979098Y-79430500D01*
X182172351Y-79430500D01*
X182172352Y-79430500D01*
X182374534Y-79398477D01*
X182569219Y-79335220D01*
X182751610Y-79242287D01*
X182844590Y-79174732D01*
X182917213Y-79121971D01*
X182917215Y-79121968D01*
X182917219Y-79121966D01*
X183061966Y-78977219D01*
X183061968Y-78977215D01*
X183061971Y-78977213D01*
X183182284Y-78811614D01*
X183182286Y-78811611D01*
X183182287Y-78811610D01*
X183229516Y-78718917D01*
X183277489Y-78668123D01*
X183345310Y-78651328D01*
X183411445Y-78673865D01*
X183450485Y-78718919D01*
X183497715Y-78811614D01*
X183618028Y-78977213D01*
X183762786Y-79121971D01*
X183917749Y-79234556D01*
X183928390Y-79242287D01*
X184009499Y-79283614D01*
X184110776Y-79335218D01*
X184110778Y-79335218D01*
X184110781Y-79335220D01*
X184185818Y-79359601D01*
X184305465Y-79398477D01*
X184406557Y-79414488D01*
X184507648Y-79430500D01*
X184507649Y-79430500D01*
X184712351Y-79430500D01*
X184712352Y-79430500D01*
X184914534Y-79398477D01*
X185109219Y-79335220D01*
X185291610Y-79242287D01*
X185384590Y-79174732D01*
X185457213Y-79121971D01*
X185457215Y-79121968D01*
X185457219Y-79121966D01*
X185601966Y-78977219D01*
X185601968Y-78977215D01*
X185601971Y-78977213D01*
X185722284Y-78811614D01*
X185722286Y-78811611D01*
X185722287Y-78811610D01*
X185769516Y-78718917D01*
X185817489Y-78668123D01*
X185885310Y-78651328D01*
X185951445Y-78673865D01*
X185990485Y-78718919D01*
X186037715Y-78811614D01*
X186158028Y-78977213D01*
X186302786Y-79121971D01*
X186457749Y-79234556D01*
X186468390Y-79242287D01*
X186549499Y-79283614D01*
X186650776Y-79335218D01*
X186650778Y-79335218D01*
X186650781Y-79335220D01*
X186725818Y-79359601D01*
X186845465Y-79398477D01*
X186946557Y-79414488D01*
X187047648Y-79430500D01*
X187047649Y-79430500D01*
X187252351Y-79430500D01*
X187252352Y-79430500D01*
X187454534Y-79398477D01*
X187649219Y-79335220D01*
X187831610Y-79242287D01*
X187924590Y-79174732D01*
X187997213Y-79121971D01*
X187997215Y-79121968D01*
X187997219Y-79121966D01*
X188141966Y-78977219D01*
X188141968Y-78977215D01*
X188141971Y-78977213D01*
X188262284Y-78811614D01*
X188262286Y-78811611D01*
X188262287Y-78811610D01*
X188309516Y-78718917D01*
X188357489Y-78668123D01*
X188425310Y-78651328D01*
X188491445Y-78673865D01*
X188530485Y-78718919D01*
X188577715Y-78811614D01*
X188698028Y-78977213D01*
X188842786Y-79121971D01*
X188997749Y-79234556D01*
X189008390Y-79242287D01*
X189089499Y-79283614D01*
X189190776Y-79335218D01*
X189190778Y-79335218D01*
X189190781Y-79335220D01*
X189265818Y-79359601D01*
X189385465Y-79398477D01*
X189486557Y-79414488D01*
X189587648Y-79430500D01*
X189587649Y-79430500D01*
X189792351Y-79430500D01*
X189792352Y-79430500D01*
X189994534Y-79398477D01*
X190189219Y-79335220D01*
X190371610Y-79242287D01*
X190464590Y-79174732D01*
X190537213Y-79121971D01*
X190537215Y-79121968D01*
X190537219Y-79121966D01*
X190681966Y-78977219D01*
X190681968Y-78977215D01*
X190681971Y-78977213D01*
X190802284Y-78811614D01*
X190802286Y-78811611D01*
X190802287Y-78811610D01*
X190849516Y-78718917D01*
X190858161Y-78709764D01*
X190862896Y-78698099D01*
X190881693Y-78684847D01*
X190897489Y-78668123D01*
X190909711Y-78665096D01*
X190920002Y-78657842D01*
X190942982Y-78656856D01*
X190965310Y-78651328D01*
X190977227Y-78655389D01*
G37*
%TD.AperFunction*%
%TA.AperFunction,Conductor*%
G36*
X201010097Y-82550286D02*
G01*
X201062138Y-82581373D01*
X201557495Y-83076730D01*
X201590980Y-83138053D01*
X201585996Y-83207745D01*
X201557495Y-83252092D01*
X201087181Y-83722406D01*
X201025858Y-83755891D01*
X200956166Y-83750907D01*
X200900233Y-83709035D01*
X200875816Y-83643571D01*
X200875701Y-83640355D01*
X200875500Y-83637300D01*
X200875500Y-83637280D01*
X200860687Y-83524764D01*
X200860686Y-83524763D01*
X200859626Y-83516705D01*
X200862689Y-83516301D01*
X200862689Y-83483698D01*
X200859626Y-83483295D01*
X200865696Y-83437187D01*
X200875500Y-83362720D01*
X200875500Y-83137280D01*
X200860687Y-83024764D01*
X200802698Y-82884767D01*
X200737258Y-82799485D01*
X200712065Y-82734317D01*
X200726103Y-82665872D01*
X200774917Y-82615883D01*
X200835635Y-82600000D01*
X200870087Y-82600000D01*
X200881228Y-82587296D01*
X200940229Y-82549872D01*
X201010097Y-82550286D01*
G37*
%TD.AperFunction*%
%TA.AperFunction,Conductor*%
G36*
X217375553Y-60200239D02*
G01*
X217442583Y-60219952D01*
X217488316Y-60272775D01*
X217499500Y-60324239D01*
X217499500Y-100375500D01*
X217479815Y-100442539D01*
X217427011Y-100488294D01*
X217375500Y-100499500D01*
X170624500Y-100499500D01*
X170557461Y-100479815D01*
X170511706Y-100427011D01*
X170500500Y-100375500D01*
X170500500Y-84878711D01*
X173149500Y-84878711D01*
X173149500Y-85121288D01*
X173181161Y-85361785D01*
X173243947Y-85596104D01*
X173336773Y-85820205D01*
X173336777Y-85820214D01*
X173343458Y-85831786D01*
X173458064Y-86030289D01*
X173458066Y-86030292D01*
X173458067Y-86030293D01*
X173605733Y-86222736D01*
X173605739Y-86222743D01*
X173777256Y-86394260D01*
X173777263Y-86394266D01*
X173850204Y-86450235D01*
X173969711Y-86541936D01*
X174179788Y-86663224D01*
X174403900Y-86756054D01*
X174638211Y-86818838D01*
X174818586Y-86842584D01*
X174878711Y-86850500D01*
X174878712Y-86850500D01*
X175121289Y-86850500D01*
X175169388Y-86844167D01*
X175361789Y-86818838D01*
X175596100Y-86756054D01*
X175820212Y-86663224D01*
X176030289Y-86541936D01*
X176222738Y-86394265D01*
X176394265Y-86222738D01*
X176541936Y-86030289D01*
X176663224Y-85820212D01*
X176756054Y-85596100D01*
X176818838Y-85361789D01*
X176850500Y-85121288D01*
X176850500Y-84878712D01*
X176818838Y-84638211D01*
X176756054Y-84403900D01*
X176663224Y-84179788D01*
X176541936Y-83969711D01*
X176429217Y-83822812D01*
X176394266Y-83777263D01*
X176394260Y-83777256D01*
X176222743Y-83605739D01*
X176222736Y-83605733D01*
X176030293Y-83458067D01*
X176030292Y-83458066D01*
X176030289Y-83458064D01*
X175820212Y-83336776D01*
X175820205Y-83336773D01*
X175596104Y-83243947D01*
X175361785Y-83181161D01*
X175121289Y-83149500D01*
X175121288Y-83149500D01*
X174878712Y-83149500D01*
X174878711Y-83149500D01*
X174638214Y-83181161D01*
X174403895Y-83243947D01*
X174179794Y-83336773D01*
X174179785Y-83336777D01*
X173969706Y-83458067D01*
X173777263Y-83605733D01*
X173777256Y-83605739D01*
X173605739Y-83777256D01*
X173605733Y-83777263D01*
X173458067Y-83969706D01*
X173336777Y-84179785D01*
X173336773Y-84179794D01*
X173243947Y-84403895D01*
X173181161Y-84638214D01*
X173149500Y-84878711D01*
X170500500Y-84878711D01*
X170500500Y-62787648D01*
X175689500Y-62787648D01*
X175689500Y-62992351D01*
X175721522Y-63194534D01*
X175784781Y-63389223D01*
X175877715Y-63571613D01*
X175998028Y-63737213D01*
X176142786Y-63881971D01*
X176297749Y-63994556D01*
X176308390Y-64002287D01*
X176397212Y-64047544D01*
X176490776Y-64095218D01*
X176490778Y-64095218D01*
X176490781Y-64095220D01*
X176595137Y-64129127D01*
X176685465Y-64158477D01*
X176786557Y-64174488D01*
X176887648Y-64190500D01*
X176887649Y-64190500D01*
X177092351Y-64190500D01*
X177092352Y-64190500D01*
X177294534Y-64158477D01*
X177489219Y-64095220D01*
X177671610Y-64002287D01*
X177767901Y-63932328D01*
X177837213Y-63881971D01*
X177837215Y-63881968D01*
X177837219Y-63881966D01*
X177981966Y-63737219D01*
X177981968Y-63737215D01*
X177981971Y-63737213D01*
X178102284Y-63571614D01*
X178102286Y-63571611D01*
X178102287Y-63571610D01*
X178149516Y-63478917D01*
X178197489Y-63428123D01*
X178265310Y-63411328D01*
X178331445Y-63433865D01*
X178370485Y-63478919D01*
X178417715Y-63571614D01*
X178538028Y-63737213D01*
X178682786Y-63881971D01*
X178837749Y-63994556D01*
X178848390Y-64002287D01*
X178937212Y-64047544D01*
X179030776Y-64095218D01*
X179030778Y-64095218D01*
X179030781Y-64095220D01*
X179135137Y-64129127D01*
X179225465Y-64158477D01*
X179326557Y-64174488D01*
X179427648Y-64190500D01*
X179427649Y-64190500D01*
X179632351Y-64190500D01*
X179632352Y-64190500D01*
X179834534Y-64158477D01*
X180029219Y-64095220D01*
X180211610Y-64002287D01*
X180307901Y-63932328D01*
X180377213Y-63881971D01*
X180377215Y-63881968D01*
X180377219Y-63881966D01*
X180521966Y-63737219D01*
X180521968Y-63737215D01*
X180521971Y-63737213D01*
X180642284Y-63571614D01*
X180642286Y-63571611D01*
X180642287Y-63571610D01*
X180689516Y-63478917D01*
X180737489Y-63428123D01*
X180805310Y-63411328D01*
X180871445Y-63433865D01*
X180910485Y-63478919D01*
X180957715Y-63571614D01*
X181078028Y-63737213D01*
X181222786Y-63881971D01*
X181377749Y-63994556D01*
X181388390Y-64002287D01*
X181477212Y-64047544D01*
X181570776Y-64095218D01*
X181570778Y-64095218D01*
X181570781Y-64095220D01*
X181675137Y-64129127D01*
X181765465Y-64158477D01*
X181866557Y-64174488D01*
X181967648Y-64190500D01*
X181967649Y-64190500D01*
X182172351Y-64190500D01*
X182172352Y-64190500D01*
X182374534Y-64158477D01*
X182569219Y-64095220D01*
X182751610Y-64002287D01*
X182847901Y-63932328D01*
X182917213Y-63881971D01*
X182917215Y-63881968D01*
X182917219Y-63881966D01*
X183061966Y-63737219D01*
X183061968Y-63737215D01*
X183061971Y-63737213D01*
X183182284Y-63571614D01*
X183182286Y-63571611D01*
X183182287Y-63571610D01*
X183229516Y-63478917D01*
X183277489Y-63428123D01*
X183345310Y-63411328D01*
X183411445Y-63433865D01*
X183450485Y-63478919D01*
X183497715Y-63571614D01*
X183618028Y-63737213D01*
X183762786Y-63881971D01*
X183917749Y-63994556D01*
X183928390Y-64002287D01*
X184017212Y-64047544D01*
X184110776Y-64095218D01*
X184110778Y-64095218D01*
X184110781Y-64095220D01*
X184215137Y-64129127D01*
X184305465Y-64158477D01*
X184406557Y-64174488D01*
X184507648Y-64190500D01*
X184507649Y-64190500D01*
X184712351Y-64190500D01*
X184712352Y-64190500D01*
X184914534Y-64158477D01*
X184928842Y-64153827D01*
X184998682Y-64151831D01*
X185054842Y-64184077D01*
X193013181Y-72142416D01*
X193046666Y-72203739D01*
X193049500Y-72230097D01*
X193049500Y-76885621D01*
X193029815Y-76952660D01*
X192977011Y-76998415D01*
X192907853Y-77008359D01*
X192869205Y-76996106D01*
X192729223Y-76924782D01*
X192729222Y-76924781D01*
X192729219Y-76924780D01*
X192649035Y-76898726D01*
X192534534Y-76861522D01*
X192359995Y-76833878D01*
X192332352Y-76829500D01*
X192127648Y-76829500D01*
X192103329Y-76833351D01*
X191925465Y-76861522D01*
X191730776Y-76924781D01*
X191548386Y-77017715D01*
X191382786Y-77138028D01*
X191238028Y-77282786D01*
X191117715Y-77448386D01*
X191070485Y-77541080D01*
X191022510Y-77591876D01*
X190954689Y-77608671D01*
X190888554Y-77586134D01*
X190849515Y-77541080D01*
X190802419Y-77448650D01*
X190802287Y-77448390D01*
X190794556Y-77437749D01*
X190681971Y-77282786D01*
X190537213Y-77138028D01*
X190371613Y-77017715D01*
X190371612Y-77017714D01*
X190371610Y-77017713D01*
X190314653Y-76988691D01*
X190189223Y-76924781D01*
X189994534Y-76861522D01*
X189819995Y-76833878D01*
X189792352Y-76829500D01*
X189587648Y-76829500D01*
X189563329Y-76833351D01*
X189385465Y-76861522D01*
X189190776Y-76924781D01*
X189008386Y-77017715D01*
X188842786Y-77138028D01*
X188698028Y-77282786D01*
X188577715Y-77448386D01*
X188530485Y-77541080D01*
X188482510Y-77591876D01*
X188414689Y-77608671D01*
X188348554Y-77586134D01*
X188309515Y-77541080D01*
X188262419Y-77448650D01*
X188262287Y-77448390D01*
X188254556Y-77437749D01*
X188141971Y-77282786D01*
X187997213Y-77138028D01*
X187831613Y-77017715D01*
X187831612Y-77017714D01*
X187831610Y-77017713D01*
X187774653Y-76988691D01*
X187649223Y-76924781D01*
X187454534Y-76861522D01*
X187279995Y-76833878D01*
X187252352Y-76829500D01*
X187047648Y-76829500D01*
X187023329Y-76833351D01*
X186845465Y-76861522D01*
X186650776Y-76924781D01*
X186468386Y-77017715D01*
X186302786Y-77138028D01*
X186158028Y-77282786D01*
X186037715Y-77448386D01*
X185990485Y-77541080D01*
X185942510Y-77591876D01*
X185874689Y-77608671D01*
X185808554Y-77586134D01*
X185769515Y-77541080D01*
X185722419Y-77448650D01*
X185722287Y-77448390D01*
X185714556Y-77437749D01*
X185601971Y-77282786D01*
X185457213Y-77138028D01*
X185291613Y-77017715D01*
X185291612Y-77017714D01*
X185291610Y-77017713D01*
X185234653Y-76988691D01*
X185109223Y-76924781D01*
X184914534Y-76861522D01*
X184739995Y-76833878D01*
X184712352Y-76829500D01*
X184507648Y-76829500D01*
X184483329Y-76833351D01*
X184305465Y-76861522D01*
X184110776Y-76924781D01*
X183928386Y-77017715D01*
X183762786Y-77138028D01*
X183618028Y-77282786D01*
X183497715Y-77448386D01*
X183450485Y-77541080D01*
X183402510Y-77591876D01*
X183334689Y-77608671D01*
X183268554Y-77586134D01*
X183229515Y-77541080D01*
X183182419Y-77448650D01*
X183182287Y-77448390D01*
X183174556Y-77437749D01*
X183061971Y-77282786D01*
X182917213Y-77138028D01*
X182751613Y-77017715D01*
X182751612Y-77017714D01*
X182751610Y-77017713D01*
X182694653Y-76988691D01*
X182569223Y-76924781D01*
X182374534Y-76861522D01*
X182199995Y-76833878D01*
X182172352Y-76829500D01*
X181967648Y-76829500D01*
X181943329Y-76833351D01*
X181765465Y-76861522D01*
X181570776Y-76924781D01*
X181388386Y-77017715D01*
X181222786Y-77138028D01*
X181078028Y-77282786D01*
X180957715Y-77448386D01*
X180910485Y-77541080D01*
X180862510Y-77591876D01*
X180794689Y-77608671D01*
X180728554Y-77586134D01*
X180689515Y-77541080D01*
X180642419Y-77448650D01*
X180642287Y-77448390D01*
X180634556Y-77437749D01*
X180521971Y-77282786D01*
X180377213Y-77138028D01*
X180211613Y-77017715D01*
X180211612Y-77017714D01*
X180211610Y-77017713D01*
X180154653Y-76988691D01*
X180029223Y-76924781D01*
X179834534Y-76861522D01*
X179659995Y-76833878D01*
X179632352Y-76829500D01*
X179427648Y-76829500D01*
X179403329Y-76833351D01*
X179225465Y-76861522D01*
X179030776Y-76924781D01*
X178848386Y-77017715D01*
X178682786Y-77138028D01*
X178538028Y-77282786D01*
X178417715Y-77448386D01*
X178370485Y-77541080D01*
X178322510Y-77591876D01*
X178254689Y-77608671D01*
X178188554Y-77586134D01*
X178149515Y-77541080D01*
X178102419Y-77448650D01*
X178102287Y-77448390D01*
X178094556Y-77437749D01*
X177981971Y-77282786D01*
X177837213Y-77138028D01*
X177671613Y-77017715D01*
X177671612Y-77017714D01*
X177671610Y-77017713D01*
X177614653Y-76988691D01*
X177489223Y-76924781D01*
X177294534Y-76861522D01*
X177119995Y-76833878D01*
X177092352Y-76829500D01*
X176887648Y-76829500D01*
X176863329Y-76833351D01*
X176685465Y-76861522D01*
X176490776Y-76924781D01*
X176308386Y-77017715D01*
X176142786Y-77138028D01*
X175998028Y-77282786D01*
X175877715Y-77448386D01*
X175784781Y-77630776D01*
X175721522Y-77825465D01*
X175689500Y-78027648D01*
X175689500Y-78232351D01*
X175721522Y-78434534D01*
X175784781Y-78629223D01*
X175877715Y-78811613D01*
X175998028Y-78977213D01*
X176142786Y-79121971D01*
X176297749Y-79234556D01*
X176308390Y-79242287D01*
X176389499Y-79283614D01*
X176490776Y-79335218D01*
X176490778Y-79335218D01*
X176490781Y-79335220D01*
X176565818Y-79359601D01*
X176685465Y-79398477D01*
X176786557Y-79414488D01*
X176887648Y-79430500D01*
X176887649Y-79430500D01*
X177092351Y-79430500D01*
X177092352Y-79430500D01*
X177294534Y-79398477D01*
X177489219Y-79335220D01*
X177671610Y-79242287D01*
X177764590Y-79174732D01*
X177837213Y-79121971D01*
X177837215Y-79121968D01*
X177837219Y-79121966D01*
X177981966Y-78977219D01*
X177981968Y-78977215D01*
X177981971Y-78977213D01*
X178102284Y-78811614D01*
X178102286Y-78811611D01*
X178102287Y-78811610D01*
X178149516Y-78718917D01*
X178197489Y-78668123D01*
X178265310Y-78651328D01*
X178331445Y-78673865D01*
X178370485Y-78718919D01*
X178417715Y-78811614D01*
X178538028Y-78977213D01*
X178538034Y-78977219D01*
X178682781Y-79121966D01*
X178848390Y-79242287D01*
X178861793Y-79249116D01*
X178912589Y-79297088D01*
X178929500Y-79359601D01*
X178929500Y-90399902D01*
X178909815Y-90466941D01*
X178893181Y-90487583D01*
X178557582Y-90823181D01*
X178496259Y-90856666D01*
X178469901Y-90859500D01*
X176822129Y-90859500D01*
X176822123Y-90859501D01*
X176762516Y-90865908D01*
X176627671Y-90916202D01*
X176627664Y-90916206D01*
X176512455Y-91002452D01*
X176512452Y-91002455D01*
X176426206Y-91117664D01*
X176426202Y-91117671D01*
X176375908Y-91252517D01*
X176370226Y-91305375D01*
X176369501Y-91312123D01*
X176369500Y-91312135D01*
X176369500Y-93407870D01*
X176369501Y-93407876D01*
X176375908Y-93467483D01*
X176426202Y-93602328D01*
X176426206Y-93602335D01*
X176512452Y-93717544D01*
X176512455Y-93717547D01*
X176627664Y-93803793D01*
X176627671Y-93803797D01*
X176762517Y-93854091D01*
X176762516Y-93854091D01*
X176769444Y-93854835D01*
X176822127Y-93860500D01*
X178917872Y-93860499D01*
X178977483Y-93854091D01*
X179112331Y-93803796D01*
X179227546Y-93717546D01*
X179313796Y-93602331D01*
X179364091Y-93467483D01*
X179370500Y-93407873D01*
X179370499Y-91760097D01*
X179390184Y-91693059D01*
X179406818Y-91672417D01*
X179651684Y-91427551D01*
X179837820Y-91241415D01*
X179899142Y-91207931D01*
X179968834Y-91212915D01*
X180024767Y-91254787D01*
X180049184Y-91320251D01*
X180049500Y-91329097D01*
X180049500Y-97444330D01*
X180049499Y-97444348D01*
X180049499Y-97610054D01*
X180049498Y-97610054D01*
X180049499Y-97610057D01*
X180090423Y-97762785D01*
X180116601Y-97808126D01*
X180119358Y-97812900D01*
X180119359Y-97812904D01*
X180119360Y-97812904D01*
X180166333Y-97894266D01*
X180169479Y-97899714D01*
X180169481Y-97899717D01*
X180290284Y-98020520D01*
X180377095Y-98070639D01*
X180377097Y-98070641D01*
X180415151Y-98092611D01*
X180427215Y-98099577D01*
X180579943Y-98140501D01*
X180579946Y-98140501D01*
X180745653Y-98140501D01*
X180745669Y-98140500D01*
X189134281Y-98140500D01*
X189201320Y-98160185D01*
X189244765Y-98208205D01*
X189264947Y-98247814D01*
X189264948Y-98247815D01*
X189389890Y-98419786D01*
X189540213Y-98570109D01*
X189712179Y-98695048D01*
X189712181Y-98695049D01*
X189712184Y-98695051D01*
X189901588Y-98791557D01*
X190103757Y-98857246D01*
X190313713Y-98890500D01*
X190313714Y-98890500D01*
X190526286Y-98890500D01*
X190526287Y-98890500D01*
X190736243Y-98857246D01*
X190938412Y-98791557D01*
X191127816Y-98695051D01*
X191299792Y-98570104D01*
X191413329Y-98456566D01*
X191474648Y-98423084D01*
X191544340Y-98428068D01*
X191600274Y-98469939D01*
X191617189Y-98500917D01*
X191666202Y-98632328D01*
X191666206Y-98632335D01*
X191752452Y-98747544D01*
X191752455Y-98747547D01*
X191867664Y-98833793D01*
X191867671Y-98833797D01*
X192002517Y-98884091D01*
X192002516Y-98884091D01*
X192009444Y-98884835D01*
X192062127Y-98890500D01*
X193857872Y-98890499D01*
X193917483Y-98884091D01*
X194052331Y-98833796D01*
X194167546Y-98747546D01*
X194253796Y-98632331D01*
X194304091Y-98497483D01*
X194310500Y-98437873D01*
X194310499Y-97090095D01*
X194330184Y-97023057D01*
X194346813Y-97002420D01*
X194723792Y-96625441D01*
X201132000Y-96625441D01*
X201132000Y-96874558D01*
X201132001Y-96874575D01*
X201164517Y-97121561D01*
X201228998Y-97362207D01*
X201324330Y-97592361D01*
X201324337Y-97592376D01*
X201448900Y-97808126D01*
X201600560Y-98005774D01*
X201600566Y-98005781D01*
X201776718Y-98181933D01*
X201776725Y-98181939D01*
X201974373Y-98333599D01*
X202190123Y-98458162D01*
X202190138Y-98458169D01*
X202218554Y-98469939D01*
X202420293Y-98553502D01*
X202660935Y-98617982D01*
X202907935Y-98650500D01*
X202907942Y-98650500D01*
X203157058Y-98650500D01*
X203157065Y-98650500D01*
X203404065Y-98617982D01*
X203644707Y-98553502D01*
X203874873Y-98458164D01*
X204090627Y-98333599D01*
X204288276Y-98181938D01*
X204464438Y-98005776D01*
X204616099Y-97808127D01*
X204740664Y-97592373D01*
X204836002Y-97362207D01*
X204900482Y-97121565D01*
X204933000Y-96874565D01*
X204933000Y-96625435D01*
X204900518Y-96378711D01*
X212149500Y-96378711D01*
X212149500Y-96621288D01*
X212177264Y-96832185D01*
X212181162Y-96861789D01*
X212196710Y-96919815D01*
X212243947Y-97096104D01*
X212336773Y-97320205D01*
X212336776Y-97320212D01*
X212458064Y-97530289D01*
X212458066Y-97530292D01*
X212458067Y-97530293D01*
X212605733Y-97722736D01*
X212605739Y-97722743D01*
X212777256Y-97894260D01*
X212777262Y-97894265D01*
X212969711Y-98041936D01*
X213179788Y-98163224D01*
X213403900Y-98256054D01*
X213638211Y-98318838D01*
X213818586Y-98342584D01*
X213878711Y-98350500D01*
X213878712Y-98350500D01*
X214121289Y-98350500D01*
X214169388Y-98344167D01*
X214361789Y-98318838D01*
X214596100Y-98256054D01*
X214820212Y-98163224D01*
X215030289Y-98041936D01*
X215222738Y-97894265D01*
X215394265Y-97722738D01*
X215541936Y-97530289D01*
X215663224Y-97320212D01*
X215756054Y-97096100D01*
X215818838Y-96861789D01*
X215850500Y-96621288D01*
X215850500Y-96378712D01*
X215818838Y-96138211D01*
X215756054Y-95903900D01*
X215663224Y-95679788D01*
X215541936Y-95469711D01*
X215394265Y-95277262D01*
X215394260Y-95277256D01*
X215222743Y-95105739D01*
X215222736Y-95105733D01*
X215030293Y-94958067D01*
X215030292Y-94958066D01*
X215030289Y-94958064D01*
X214820212Y-94836776D01*
X214820205Y-94836773D01*
X214596104Y-94743947D01*
X214371485Y-94683760D01*
X214361789Y-94681162D01*
X214361788Y-94681161D01*
X214361785Y-94681161D01*
X214121289Y-94649500D01*
X214121288Y-94649500D01*
X213878712Y-94649500D01*
X213878711Y-94649500D01*
X213638214Y-94681161D01*
X213403895Y-94743947D01*
X213179794Y-94836773D01*
X213179785Y-94836777D01*
X212969706Y-94958067D01*
X212777263Y-95105733D01*
X212777256Y-95105739D01*
X212605739Y-95277256D01*
X212605733Y-95277263D01*
X212458067Y-95469706D01*
X212336777Y-95679785D01*
X212336773Y-95679794D01*
X212243947Y-95903895D01*
X212181161Y-96138214D01*
X212149500Y-96378711D01*
X204900518Y-96378711D01*
X204900482Y-96378435D01*
X204836002Y-96137793D01*
X204740664Y-95907627D01*
X204738512Y-95903900D01*
X204616099Y-95691873D01*
X204464439Y-95494225D01*
X204464433Y-95494218D01*
X204288281Y-95318066D01*
X204288274Y-95318060D01*
X204090626Y-95166400D01*
X203874876Y-95041837D01*
X203874861Y-95041830D01*
X203644707Y-94946498D01*
X203404061Y-94882017D01*
X203157075Y-94849501D01*
X203157070Y-94849500D01*
X203157065Y-94849500D01*
X202907935Y-94849500D01*
X202907929Y-94849500D01*
X202907924Y-94849501D01*
X202660938Y-94882017D01*
X202420292Y-94946498D01*
X202190138Y-95041830D01*
X202190123Y-95041837D01*
X201974373Y-95166400D01*
X201776725Y-95318060D01*
X201776718Y-95318066D01*
X201600566Y-95494218D01*
X201600560Y-95494225D01*
X201448900Y-95691873D01*
X201324337Y-95907623D01*
X201324330Y-95907638D01*
X201228998Y-96137792D01*
X201164517Y-96378438D01*
X201132001Y-96625424D01*
X201132000Y-96625441D01*
X194723792Y-96625441D01*
X196418506Y-94930728D01*
X196418511Y-94930724D01*
X196428714Y-94920520D01*
X196428716Y-94920520D01*
X196540520Y-94808716D01*
X196598573Y-94708165D01*
X196619577Y-94671785D01*
X196660501Y-94519057D01*
X196660501Y-94360943D01*
X196660501Y-94353348D01*
X196660500Y-94353330D01*
X196660500Y-91429765D01*
X196680185Y-91362726D01*
X196681398Y-91360874D01*
X196692187Y-91344728D01*
X196769394Y-91229179D01*
X196829737Y-91083497D01*
X196860500Y-90928842D01*
X196860500Y-90771158D01*
X196860500Y-90771155D01*
X196860499Y-90771153D01*
X196829738Y-90616510D01*
X196829737Y-90616503D01*
X196802197Y-90550014D01*
X201132500Y-90550014D01*
X201132500Y-91500000D01*
X202432499Y-91500000D01*
X202407479Y-91560402D01*
X202382500Y-91685981D01*
X202382500Y-91814019D01*
X202407479Y-91939598D01*
X202432499Y-92000000D01*
X201132500Y-92000000D01*
X201132500Y-92949985D01*
X201142993Y-93052689D01*
X201142994Y-93052696D01*
X201198141Y-93219118D01*
X201198143Y-93219123D01*
X201290184Y-93368344D01*
X201414155Y-93492315D01*
X201563376Y-93584356D01*
X201563381Y-93584358D01*
X201729803Y-93639505D01*
X201729810Y-93639506D01*
X201832514Y-93649999D01*
X201832527Y-93650000D01*
X202782500Y-93650000D01*
X202782500Y-92350001D01*
X202842902Y-92375021D01*
X202968481Y-92400000D01*
X203096519Y-92400000D01*
X203222098Y-92375021D01*
X203282500Y-92350001D01*
X203282500Y-93650000D01*
X204232473Y-93650000D01*
X204232485Y-93649999D01*
X204335189Y-93639506D01*
X204335196Y-93639505D01*
X204501618Y-93584358D01*
X204501623Y-93584356D01*
X204650844Y-93492315D01*
X204774815Y-93368344D01*
X204866856Y-93219123D01*
X204866858Y-93219118D01*
X204922005Y-93052696D01*
X204922006Y-93052689D01*
X204932499Y-92949985D01*
X204932500Y-92949972D01*
X204932500Y-92000000D01*
X203632501Y-92000000D01*
X203657521Y-91939598D01*
X203682500Y-91814019D01*
X203682500Y-91685981D01*
X203657521Y-91560402D01*
X203632501Y-91500000D01*
X204932500Y-91500000D01*
X204932500Y-90550027D01*
X204932499Y-90550014D01*
X204922006Y-90447310D01*
X204922005Y-90447303D01*
X204866858Y-90280881D01*
X204866856Y-90280876D01*
X204774815Y-90131655D01*
X204650844Y-90007684D01*
X204501623Y-89915643D01*
X204501618Y-89915641D01*
X204335196Y-89860494D01*
X204335189Y-89860493D01*
X204232485Y-89850000D01*
X203282500Y-89850000D01*
X203282500Y-91149998D01*
X203222098Y-91124979D01*
X203096519Y-91100000D01*
X202968481Y-91100000D01*
X202842902Y-91124979D01*
X202782500Y-91149998D01*
X202782500Y-89850000D01*
X201832514Y-89850000D01*
X201729810Y-89860493D01*
X201729803Y-89860494D01*
X201563381Y-89915641D01*
X201563376Y-89915643D01*
X201414155Y-90007684D01*
X201290184Y-90131655D01*
X201198143Y-90280876D01*
X201198141Y-90280881D01*
X201142994Y-90447303D01*
X201142993Y-90447310D01*
X201132500Y-90550014D01*
X196802197Y-90550014D01*
X196776337Y-90487583D01*
X196769397Y-90470827D01*
X196769390Y-90470814D01*
X196681789Y-90339711D01*
X196681786Y-90339707D01*
X196570292Y-90228213D01*
X196570288Y-90228210D01*
X196439185Y-90140609D01*
X196439172Y-90140602D01*
X196293501Y-90080264D01*
X196293489Y-90080261D01*
X196138845Y-90049500D01*
X196138842Y-90049500D01*
X195981158Y-90049500D01*
X195981155Y-90049500D01*
X195826510Y-90080261D01*
X195826498Y-90080264D01*
X195680827Y-90140602D01*
X195680814Y-90140609D01*
X195549711Y-90228210D01*
X195549707Y-90228213D01*
X195438213Y-90339707D01*
X195438210Y-90339711D01*
X195350609Y-90470814D01*
X195350602Y-90470827D01*
X195290264Y-90616498D01*
X195290261Y-90616510D01*
X195259500Y-90771153D01*
X195259500Y-90928846D01*
X195290261Y-91083489D01*
X195290264Y-91083501D01*
X195350602Y-91229172D01*
X195350609Y-91229185D01*
X195438602Y-91360874D01*
X195459480Y-91427551D01*
X195459500Y-91429765D01*
X195459500Y-94139902D01*
X195439815Y-94206941D01*
X195423181Y-94227583D01*
X194522181Y-95128583D01*
X194460858Y-95162068D01*
X194391166Y-95157084D01*
X194335233Y-95115212D01*
X194310816Y-95049748D01*
X194310500Y-95040902D01*
X194310500Y-94893713D01*
X194308648Y-94882018D01*
X194277246Y-94683757D01*
X194211557Y-94481588D01*
X194115051Y-94292184D01*
X194115049Y-94292181D01*
X194115048Y-94292179D01*
X193990109Y-94120213D01*
X193839786Y-93969890D01*
X193667817Y-93844949D01*
X193658504Y-93840204D01*
X193607707Y-93792230D01*
X193590912Y-93724409D01*
X193613449Y-93658274D01*
X193658507Y-93619232D01*
X193667555Y-93614622D01*
X193721716Y-93575270D01*
X193721717Y-93575270D01*
X193089408Y-92942962D01*
X193152993Y-92925925D01*
X193267007Y-92860099D01*
X193360099Y-92767007D01*
X193425925Y-92652993D01*
X193442962Y-92589408D01*
X194075270Y-93221717D01*
X194075270Y-93221716D01*
X194114622Y-93167554D01*
X194211095Y-92978217D01*
X194276757Y-92776130D01*
X194276757Y-92776127D01*
X194310000Y-92566246D01*
X194310000Y-92353753D01*
X194276757Y-92143872D01*
X194276757Y-92143869D01*
X194211095Y-91941782D01*
X194114624Y-91752449D01*
X194075270Y-91698282D01*
X194075269Y-91698282D01*
X193442962Y-92330590D01*
X193425925Y-92267007D01*
X193360099Y-92152993D01*
X193267007Y-92059901D01*
X193152993Y-91994075D01*
X193089409Y-91977037D01*
X193721716Y-91344728D01*
X193667550Y-91305375D01*
X193478217Y-91208904D01*
X193276129Y-91143242D01*
X193066246Y-91110000D01*
X192853754Y-91110000D01*
X192643872Y-91143242D01*
X192643869Y-91143242D01*
X192441782Y-91208904D01*
X192252439Y-91305380D01*
X192198282Y-91344727D01*
X192198282Y-91344728D01*
X192830591Y-91977037D01*
X192767007Y-91994075D01*
X192652993Y-92059901D01*
X192559901Y-92152993D01*
X192494075Y-92267007D01*
X192477037Y-92330591D01*
X191844728Y-91698282D01*
X191844727Y-91698282D01*
X191805380Y-91752440D01*
X191800483Y-91762051D01*
X191752506Y-91812845D01*
X191684684Y-91829638D01*
X191618550Y-91807098D01*
X191579516Y-91762048D01*
X191574626Y-91752452D01*
X191535270Y-91698282D01*
X191535269Y-91698282D01*
X190902962Y-92330590D01*
X190885925Y-92267007D01*
X190820099Y-92152993D01*
X190727007Y-92059901D01*
X190612993Y-91994075D01*
X190549409Y-91977037D01*
X191181716Y-91344728D01*
X191127550Y-91305375D01*
X190938217Y-91208904D01*
X190736129Y-91143242D01*
X190526246Y-91110000D01*
X190313754Y-91110000D01*
X190103872Y-91143242D01*
X190103869Y-91143242D01*
X189901782Y-91208904D01*
X189712439Y-91305380D01*
X189658282Y-91344727D01*
X189658282Y-91344728D01*
X190290591Y-91977037D01*
X190227007Y-91994075D01*
X190112993Y-92059901D01*
X190019901Y-92152993D01*
X189954075Y-92267007D01*
X189937037Y-92330590D01*
X189304728Y-91698282D01*
X189304727Y-91698282D01*
X189265380Y-91752439D01*
X189168904Y-91941782D01*
X189103242Y-92143869D01*
X189103242Y-92143872D01*
X189070000Y-92353753D01*
X189070000Y-92566246D01*
X189103242Y-92776127D01*
X189103242Y-92776130D01*
X189168904Y-92978217D01*
X189265375Y-93167550D01*
X189304728Y-93221716D01*
X189937037Y-92589408D01*
X189954075Y-92652993D01*
X190019901Y-92767007D01*
X190112993Y-92860099D01*
X190227007Y-92925925D01*
X190290590Y-92942962D01*
X189658282Y-93575269D01*
X189658282Y-93575270D01*
X189712452Y-93614626D01*
X189712451Y-93614626D01*
X189721495Y-93619234D01*
X189772292Y-93667208D01*
X189789087Y-93735029D01*
X189766550Y-93801164D01*
X189721499Y-93840202D01*
X189712182Y-93844949D01*
X189540213Y-93969890D01*
X189389890Y-94120213D01*
X189264951Y-94292179D01*
X189168444Y-94481585D01*
X189102753Y-94683760D01*
X189071352Y-94882017D01*
X189069500Y-94893713D01*
X189069500Y-95106287D01*
X189102754Y-95316243D01*
X189152617Y-95469706D01*
X189168444Y-95518414D01*
X189264951Y-95707820D01*
X189389890Y-95879786D01*
X189540213Y-96030109D01*
X189712182Y-96155050D01*
X189720946Y-96159516D01*
X189771742Y-96207491D01*
X189788536Y-96275312D01*
X189765998Y-96341447D01*
X189720946Y-96380484D01*
X189712182Y-96384949D01*
X189540213Y-96509890D01*
X189389890Y-96660213D01*
X189264948Y-96832184D01*
X189264947Y-96832185D01*
X189244765Y-96871795D01*
X189196791Y-96922591D01*
X189134281Y-96939500D01*
X181374500Y-96939500D01*
X181307461Y-96919815D01*
X181261706Y-96867011D01*
X181250500Y-96815500D01*
X181250500Y-91312135D01*
X182639500Y-91312135D01*
X182639500Y-93407870D01*
X182639501Y-93407876D01*
X182645908Y-93467483D01*
X182696202Y-93602328D01*
X182696206Y-93602335D01*
X182782452Y-93717544D01*
X182782455Y-93717547D01*
X182897664Y-93803793D01*
X182897671Y-93803797D01*
X183032517Y-93854091D01*
X183032516Y-93854091D01*
X183039444Y-93854835D01*
X183092127Y-93860500D01*
X185187872Y-93860499D01*
X185247483Y-93854091D01*
X185382331Y-93803796D01*
X185497546Y-93717546D01*
X185583796Y-93602331D01*
X185634091Y-93467483D01*
X185640500Y-93407873D01*
X185640499Y-91312128D01*
X185634091Y-91252517D01*
X185625386Y-91229179D01*
X185583797Y-91117671D01*
X185583793Y-91117664D01*
X185497547Y-91002455D01*
X185497544Y-91002452D01*
X185382335Y-90916206D01*
X185382328Y-90916202D01*
X185247482Y-90865908D01*
X185247483Y-90865908D01*
X185187883Y-90859501D01*
X185187881Y-90859500D01*
X185187873Y-90859500D01*
X185187864Y-90859500D01*
X183092129Y-90859500D01*
X183092123Y-90859501D01*
X183032516Y-90865908D01*
X182897671Y-90916202D01*
X182897664Y-90916206D01*
X182782455Y-91002452D01*
X182782452Y-91002455D01*
X182696206Y-91117664D01*
X182696202Y-91117671D01*
X182645908Y-91252517D01*
X182640226Y-91305375D01*
X182639501Y-91312123D01*
X182639500Y-91312135D01*
X181250500Y-91312135D01*
X181250500Y-81129765D01*
X181255827Y-81111621D01*
X181256165Y-81092712D01*
X181269665Y-81064494D01*
X181270185Y-81062726D01*
X181271398Y-81060874D01*
X181272461Y-81059284D01*
X181315723Y-80994537D01*
X181323736Y-80982545D01*
X181377348Y-80937740D01*
X181446673Y-80929033D01*
X181509701Y-80959188D01*
X181514519Y-80963755D01*
X182117349Y-81566585D01*
X182117355Y-81566590D01*
X182526501Y-81975736D01*
X182559986Y-82037059D01*
X182555002Y-82106751D01*
X182513131Y-82162684D01*
X182432809Y-82222813D01*
X182346649Y-82337906D01*
X182346645Y-82337913D01*
X182296403Y-82472620D01*
X182296401Y-82472627D01*
X182290000Y-82532155D01*
X182290000Y-82655000D01*
X182815500Y-82655000D01*
X182824185Y-82657550D01*
X182833146Y-82656262D01*
X182857187Y-82667240D01*
X182882539Y-82674685D01*
X182888465Y-82681524D01*
X182896702Y-82685286D01*
X182910992Y-82707521D01*
X182928294Y-82727489D01*
X182930581Y-82738001D01*
X182934477Y-82744064D01*
X182939500Y-82778999D01*
X182939501Y-82880999D01*
X182919817Y-82948038D01*
X182867014Y-82993794D01*
X182815501Y-83005000D01*
X182290000Y-83005000D01*
X182290000Y-83127844D01*
X182296401Y-83187372D01*
X182296403Y-83187379D01*
X182346645Y-83322086D01*
X182346649Y-83322093D01*
X182432809Y-83437187D01*
X182432812Y-83437190D01*
X182555011Y-83528669D01*
X182553365Y-83530866D01*
X182592782Y-83570276D01*
X182607640Y-83638547D01*
X182583229Y-83704014D01*
X182553766Y-83729548D01*
X182554769Y-83730888D01*
X182432455Y-83822452D01*
X182432452Y-83822455D01*
X182346206Y-83937664D01*
X182346202Y-83937671D01*
X182295910Y-84072513D01*
X182295909Y-84072517D01*
X182289500Y-84132127D01*
X182289500Y-84132134D01*
X182289500Y-84132135D01*
X182289500Y-84727874D01*
X182289513Y-84728099D01*
X182289500Y-84728149D01*
X182289501Y-84731192D01*
X182288781Y-84731192D01*
X182273431Y-84796093D01*
X182268793Y-84803599D01*
X182250613Y-84830808D01*
X182250602Y-84830828D01*
X182190264Y-84976498D01*
X182190261Y-84976510D01*
X182159500Y-85131153D01*
X182159500Y-85288846D01*
X182190261Y-85443489D01*
X182190264Y-85443501D01*
X182250602Y-85589172D01*
X182250609Y-85589185D01*
X182338210Y-85720288D01*
X182338213Y-85720292D01*
X182449707Y-85831786D01*
X182449711Y-85831789D01*
X182580814Y-85919390D01*
X182580827Y-85919397D01*
X182726498Y-85979735D01*
X182726503Y-85979737D01*
X182881153Y-86010499D01*
X182881156Y-86010500D01*
X182881158Y-86010500D01*
X183038844Y-86010500D01*
X183038845Y-86010499D01*
X183193497Y-85979737D01*
X183313639Y-85929973D01*
X183339172Y-85919397D01*
X183339172Y-85919396D01*
X183339179Y-85919394D01*
X183470289Y-85831789D01*
X183487739Y-85814337D01*
X183549060Y-85780852D01*
X183618752Y-85785835D01*
X183663102Y-85814337D01*
X183857083Y-86008318D01*
X183890568Y-86069641D01*
X183885584Y-86139333D01*
X183857083Y-86183680D01*
X183742048Y-86298716D01*
X183631286Y-86409478D01*
X183631284Y-86409480D01*
X183590529Y-86450235D01*
X183519481Y-86521282D01*
X183519480Y-86521284D01*
X183507557Y-86541936D01*
X183479675Y-86590229D01*
X183458156Y-86627501D01*
X183407589Y-86675716D01*
X183350769Y-86689500D01*
X182952129Y-86689500D01*
X182952123Y-86689501D01*
X182892516Y-86695908D01*
X182757671Y-86746202D01*
X182757664Y-86746206D01*
X182642455Y-86832452D01*
X182642452Y-86832455D01*
X182556206Y-86947664D01*
X182556202Y-86947671D01*
X182505908Y-87082517D01*
X182499501Y-87142116D01*
X182499501Y-87142123D01*
X182499500Y-87142135D01*
X182499500Y-89237870D01*
X182499501Y-89237876D01*
X182505908Y-89297483D01*
X182556202Y-89432328D01*
X182556206Y-89432335D01*
X182642452Y-89547544D01*
X182642455Y-89547547D01*
X182757664Y-89633793D01*
X182757671Y-89633797D01*
X182892517Y-89684091D01*
X182892516Y-89684091D01*
X182899444Y-89684835D01*
X182952127Y-89690500D01*
X185047872Y-89690499D01*
X185107483Y-89684091D01*
X185242331Y-89633796D01*
X185357546Y-89547546D01*
X185443796Y-89432331D01*
X185494091Y-89297483D01*
X185500500Y-89237873D01*
X185500499Y-87142128D01*
X185494091Y-87082517D01*
X185443796Y-86947669D01*
X185440697Y-86939359D01*
X185443791Y-86938204D01*
X185432363Y-86885638D01*
X185456789Y-86820177D01*
X185512728Y-86778313D01*
X185556046Y-86770500D01*
X194433331Y-86770500D01*
X194433347Y-86770501D01*
X194440943Y-86770501D01*
X194599054Y-86770501D01*
X194599057Y-86770501D01*
X194751785Y-86729577D01*
X194821200Y-86689500D01*
X194888716Y-86650520D01*
X195000520Y-86538716D01*
X195000520Y-86538714D01*
X195010723Y-86528512D01*
X195010727Y-86528506D01*
X195118506Y-86420728D01*
X195118511Y-86420724D01*
X195128714Y-86410520D01*
X195128716Y-86410520D01*
X195240520Y-86298716D01*
X195250520Y-86288716D01*
X195323804Y-86161784D01*
X195329577Y-86151785D01*
X195370500Y-85999057D01*
X195370500Y-85980027D01*
X195375067Y-85963669D01*
X195384934Y-85947854D01*
X195390185Y-85929973D01*
X195403044Y-85918830D01*
X195412053Y-85904392D01*
X195428903Y-85896422D01*
X195442989Y-85884218D01*
X195459832Y-85881796D01*
X195475216Y-85874521D01*
X195493697Y-85876926D01*
X195512147Y-85874274D01*
X195541954Y-85882452D01*
X195549764Y-85885687D01*
X195662280Y-85900500D01*
X195975500Y-85900500D01*
X196042539Y-85920185D01*
X196088294Y-85972989D01*
X196099500Y-86024500D01*
X196099500Y-86337727D01*
X196114313Y-86450235D01*
X196114313Y-86450236D01*
X196152296Y-86541936D01*
X196172302Y-86590233D01*
X196264549Y-86710451D01*
X196384767Y-86802698D01*
X196524764Y-86860687D01*
X196631586Y-86874750D01*
X196637264Y-86875498D01*
X196637280Y-86875500D01*
X196637287Y-86875500D01*
X196862713Y-86875500D01*
X196862720Y-86875500D01*
X196975236Y-86860687D01*
X196975236Y-86860686D01*
X196983295Y-86859626D01*
X196983698Y-86862689D01*
X197016302Y-86862689D01*
X197016705Y-86859626D01*
X197024763Y-86860686D01*
X197024764Y-86860687D01*
X197137280Y-86875500D01*
X197137287Y-86875500D01*
X197362713Y-86875500D01*
X197362720Y-86875500D01*
X197475236Y-86860687D01*
X197615233Y-86802698D01*
X197674515Y-86757208D01*
X197739684Y-86732016D01*
X197808129Y-86746055D01*
X197825484Y-86757208D01*
X197851486Y-86777160D01*
X197892689Y-86833587D01*
X197898878Y-86869102D01*
X197900000Y-86870086D01*
X197982730Y-86859195D01*
X198016469Y-86861415D01*
X198016705Y-86859626D01*
X198024763Y-86860686D01*
X198024764Y-86860687D01*
X198137280Y-86875500D01*
X198137287Y-86875500D01*
X198362713Y-86875500D01*
X198362720Y-86875500D01*
X198475236Y-86860687D01*
X198475236Y-86860686D01*
X198483295Y-86859626D01*
X198483698Y-86862689D01*
X198516302Y-86862689D01*
X198516705Y-86859626D01*
X198524763Y-86860686D01*
X198524764Y-86860687D01*
X198637280Y-86875500D01*
X198637287Y-86875500D01*
X198862713Y-86875500D01*
X198862720Y-86875500D01*
X198975236Y-86860687D01*
X198975236Y-86860686D01*
X198983295Y-86859626D01*
X198983698Y-86862689D01*
X199016302Y-86862689D01*
X199016705Y-86859626D01*
X199024763Y-86860686D01*
X199024764Y-86860687D01*
X199137280Y-86875500D01*
X199137287Y-86875500D01*
X199362713Y-86875500D01*
X199362720Y-86875500D01*
X199475236Y-86860687D01*
X199615233Y-86802698D01*
X199735451Y-86710451D01*
X199827698Y-86590233D01*
X199885687Y-86450236D01*
X199900500Y-86337720D01*
X199900500Y-86024500D01*
X199920185Y-85957461D01*
X199972989Y-85911706D01*
X200024500Y-85900500D01*
X200337713Y-85900500D01*
X200337720Y-85900500D01*
X200450236Y-85885687D01*
X200590233Y-85827698D01*
X200590239Y-85827692D01*
X200591023Y-85827241D01*
X200600531Y-85822285D01*
X200610404Y-85817670D01*
X200640609Y-85809577D01*
X200690728Y-85780639D01*
X200777540Y-85730520D01*
X200889344Y-85618716D01*
X200889344Y-85618714D01*
X200899552Y-85608507D01*
X200899553Y-85608504D01*
X202840520Y-83667540D01*
X202919577Y-83530608D01*
X202960501Y-83377881D01*
X202960501Y-83219766D01*
X202960501Y-83212171D01*
X202960500Y-83212153D01*
X202960500Y-83119059D01*
X202960501Y-83119046D01*
X202960501Y-82950945D01*
X202960501Y-82950943D01*
X202919577Y-82798215D01*
X202890639Y-82748095D01*
X202840520Y-82661284D01*
X202728716Y-82549480D01*
X202728715Y-82549479D01*
X202724385Y-82545149D01*
X202724374Y-82545139D01*
X200682150Y-80502915D01*
X200651171Y-80451231D01*
X200649736Y-80446501D01*
X200589397Y-80300827D01*
X200589390Y-80300814D01*
X200501789Y-80169711D01*
X200501786Y-80169707D01*
X200390292Y-80058213D01*
X200390288Y-80058210D01*
X200259185Y-79970609D01*
X200259172Y-79970602D01*
X200113501Y-79910264D01*
X200113489Y-79910261D01*
X199958845Y-79879500D01*
X199958842Y-79879500D01*
X199801158Y-79879500D01*
X199801155Y-79879500D01*
X199646510Y-79910261D01*
X199646498Y-79910264D01*
X199500827Y-79970602D01*
X199500814Y-79970609D01*
X199369711Y-80058210D01*
X199369707Y-80058213D01*
X199258213Y-80169707D01*
X199258210Y-80169711D01*
X199170609Y-80300814D01*
X199170602Y-80300827D01*
X199110264Y-80446498D01*
X199110261Y-80446510D01*
X199079500Y-80601153D01*
X199079500Y-80758846D01*
X199110261Y-80913489D01*
X199110263Y-80913497D01*
X199131080Y-80963755D01*
X199132699Y-80967662D01*
X199135346Y-80992289D01*
X199142134Y-81016113D01*
X199139016Y-81026422D01*
X199140168Y-81037132D01*
X199129078Y-81059284D01*
X199121910Y-81082992D01*
X199113714Y-81089978D01*
X199108893Y-81099611D01*
X199087588Y-81112251D01*
X199068740Y-81128320D01*
X199053004Y-81132770D01*
X199048804Y-81135263D01*
X199034797Y-81137991D01*
X199034508Y-81138030D01*
X199024764Y-81139313D01*
X199024626Y-81139369D01*
X199016659Y-81140450D01*
X198996587Y-81137399D01*
X198983684Y-81137399D01*
X198983292Y-81140374D01*
X198975237Y-81139313D01*
X198975236Y-81139313D01*
X198944473Y-81135263D01*
X198862727Y-81124500D01*
X198862720Y-81124500D01*
X198637280Y-81124500D01*
X198637272Y-81124500D01*
X198550393Y-81135938D01*
X198524764Y-81139313D01*
X198524762Y-81139313D01*
X198516708Y-81140374D01*
X198516316Y-81137399D01*
X198483684Y-81137399D01*
X198483292Y-81140374D01*
X198475237Y-81139313D01*
X198475236Y-81139313D01*
X198444473Y-81135263D01*
X198362727Y-81124500D01*
X198362720Y-81124500D01*
X198137280Y-81124500D01*
X198137272Y-81124500D01*
X198018899Y-81140085D01*
X198018772Y-81140145D01*
X198018542Y-81140132D01*
X198016708Y-81140374D01*
X198016662Y-81140030D01*
X198002499Y-81139263D01*
X197983479Y-81140469D01*
X197975407Y-81139383D01*
X197975236Y-81139313D01*
X197958005Y-81137044D01*
X197957979Y-81137041D01*
X197926134Y-81122849D01*
X197894416Y-81108817D01*
X197894319Y-81108671D01*
X197894160Y-81108600D01*
X197875075Y-81079494D01*
X197855946Y-81050491D01*
X197855912Y-81050268D01*
X197855848Y-81050170D01*
X197855844Y-81049815D01*
X197850500Y-81014146D01*
X197850500Y-80860945D01*
X197850500Y-80860943D01*
X197831561Y-80790261D01*
X197833224Y-80720414D01*
X197843949Y-80696169D01*
X197869577Y-80651785D01*
X197910501Y-80499057D01*
X197910501Y-80340943D01*
X197910501Y-80333348D01*
X197910500Y-80333330D01*
X197910500Y-79359601D01*
X197930185Y-79292562D01*
X197978206Y-79249116D01*
X197991610Y-79242287D01*
X198157219Y-79121966D01*
X198301966Y-78977219D01*
X198301968Y-78977215D01*
X198301971Y-78977213D01*
X198422284Y-78811614D01*
X198422286Y-78811611D01*
X198422287Y-78811610D01*
X198469516Y-78718917D01*
X198517489Y-78668123D01*
X198585310Y-78651328D01*
X198651445Y-78673865D01*
X198690485Y-78718919D01*
X198737715Y-78811614D01*
X198858028Y-78977213D01*
X199002786Y-79121971D01*
X199157749Y-79234556D01*
X199168390Y-79242287D01*
X199249499Y-79283614D01*
X199350776Y-79335218D01*
X199350778Y-79335218D01*
X199350781Y-79335220D01*
X199425818Y-79359601D01*
X199545465Y-79398477D01*
X199646557Y-79414488D01*
X199747648Y-79430500D01*
X199747649Y-79430500D01*
X199952351Y-79430500D01*
X199952352Y-79430500D01*
X200154534Y-79398477D01*
X200349219Y-79335220D01*
X200531610Y-79242287D01*
X200624590Y-79174732D01*
X200697213Y-79121971D01*
X200697215Y-79121968D01*
X200697219Y-79121966D01*
X200841966Y-78977219D01*
X200841968Y-78977215D01*
X200841971Y-78977213D01*
X200962284Y-78811614D01*
X200962286Y-78811611D01*
X200962287Y-78811610D01*
X201009516Y-78718917D01*
X201057489Y-78668123D01*
X201125310Y-78651328D01*
X201191445Y-78673865D01*
X201230485Y-78718919D01*
X201277715Y-78811614D01*
X201398028Y-78977213D01*
X201542786Y-79121971D01*
X201697749Y-79234556D01*
X201708390Y-79242287D01*
X201789499Y-79283614D01*
X201890776Y-79335218D01*
X201890778Y-79335218D01*
X201890781Y-79335220D01*
X201965818Y-79359601D01*
X202085465Y-79398477D01*
X202186557Y-79414488D01*
X202287648Y-79430500D01*
X202287649Y-79430500D01*
X202492351Y-79430500D01*
X202492352Y-79430500D01*
X202694534Y-79398477D01*
X202889219Y-79335220D01*
X203071610Y-79242287D01*
X203164590Y-79174732D01*
X203237213Y-79121971D01*
X203237215Y-79121968D01*
X203237219Y-79121966D01*
X203381966Y-78977219D01*
X203381968Y-78977215D01*
X203381971Y-78977213D01*
X203502284Y-78811614D01*
X203502286Y-78811611D01*
X203502287Y-78811610D01*
X203549516Y-78718917D01*
X203597489Y-78668123D01*
X203665310Y-78651328D01*
X203731445Y-78673865D01*
X203770485Y-78718919D01*
X203817715Y-78811614D01*
X203938028Y-78977213D01*
X203938034Y-78977219D01*
X204082781Y-79121966D01*
X204248390Y-79242287D01*
X204261793Y-79249116D01*
X204312589Y-79297088D01*
X204329500Y-79359601D01*
X204329500Y-82443408D01*
X204309815Y-82510447D01*
X204264935Y-82552236D01*
X204257672Y-82556202D01*
X204257669Y-82556203D01*
X204257669Y-82556204D01*
X204142454Y-82642454D01*
X204142453Y-82642455D01*
X204142452Y-82642456D01*
X204056206Y-82757664D01*
X204056202Y-82757671D01*
X204005908Y-82892517D01*
X203999627Y-82950943D01*
X203999501Y-82952123D01*
X203999500Y-82952135D01*
X203999500Y-85047870D01*
X203999501Y-85047876D01*
X204005908Y-85107483D01*
X204056202Y-85242328D01*
X204056206Y-85242335D01*
X204142452Y-85357544D01*
X204142455Y-85357547D01*
X204257664Y-85443793D01*
X204257671Y-85443797D01*
X204392517Y-85494091D01*
X204392516Y-85494091D01*
X204399444Y-85494835D01*
X204452127Y-85500500D01*
X206547872Y-85500499D01*
X206607483Y-85494091D01*
X206742331Y-85443796D01*
X206857546Y-85357546D01*
X206943796Y-85242331D01*
X206994091Y-85107483D01*
X207000500Y-85047873D01*
X207000499Y-83969711D01*
X207000499Y-82952155D01*
X211500000Y-82952155D01*
X211500000Y-83750000D01*
X212566988Y-83750000D01*
X212534075Y-83807007D01*
X212500000Y-83934174D01*
X212500000Y-84065826D01*
X212534075Y-84192993D01*
X212566988Y-84250000D01*
X211500000Y-84250000D01*
X211500000Y-85047844D01*
X211506401Y-85107372D01*
X211506403Y-85107379D01*
X211556645Y-85242086D01*
X211556649Y-85242093D01*
X211642809Y-85357187D01*
X211642812Y-85357190D01*
X211757906Y-85443350D01*
X211757913Y-85443354D01*
X211892620Y-85493596D01*
X211892627Y-85493598D01*
X211952155Y-85499999D01*
X211952172Y-85500000D01*
X212750000Y-85500000D01*
X212750000Y-84433012D01*
X212807007Y-84465925D01*
X212934174Y-84500000D01*
X213065826Y-84500000D01*
X213192993Y-84465925D01*
X213250000Y-84433012D01*
X213250000Y-85500000D01*
X214047828Y-85500000D01*
X214047844Y-85499999D01*
X214107372Y-85493598D01*
X214107379Y-85493596D01*
X214242086Y-85443354D01*
X214242093Y-85443350D01*
X214357187Y-85357190D01*
X214357190Y-85357187D01*
X214443350Y-85242093D01*
X214443354Y-85242086D01*
X214493596Y-85107379D01*
X214493598Y-85107372D01*
X214499999Y-85047844D01*
X214500000Y-85047827D01*
X214500000Y-84250000D01*
X213433012Y-84250000D01*
X213465925Y-84192993D01*
X213500000Y-84065826D01*
X213500000Y-83934174D01*
X213465925Y-83807007D01*
X213433012Y-83750000D01*
X214500000Y-83750000D01*
X214500000Y-82952172D01*
X214499999Y-82952155D01*
X214493598Y-82892627D01*
X214493596Y-82892620D01*
X214443354Y-82757913D01*
X214443350Y-82757906D01*
X214357190Y-82642812D01*
X214357187Y-82642809D01*
X214242093Y-82556649D01*
X214242086Y-82556645D01*
X214107379Y-82506403D01*
X214107372Y-82506401D01*
X214047844Y-82500000D01*
X213250000Y-82500000D01*
X213250000Y-83566988D01*
X213192993Y-83534075D01*
X213065826Y-83500000D01*
X212934174Y-83500000D01*
X212807007Y-83534075D01*
X212750000Y-83566988D01*
X212750000Y-82500000D01*
X211952155Y-82500000D01*
X211892627Y-82506401D01*
X211892620Y-82506403D01*
X211757913Y-82556645D01*
X211757906Y-82556649D01*
X211642812Y-82642809D01*
X211642809Y-82642812D01*
X211556649Y-82757906D01*
X211556645Y-82757913D01*
X211506403Y-82892620D01*
X211506401Y-82892627D01*
X211500000Y-82952155D01*
X207000499Y-82952155D01*
X207000499Y-82952129D01*
X207000498Y-82952123D01*
X207000497Y-82952116D01*
X206994091Y-82892517D01*
X206991200Y-82884767D01*
X206943797Y-82757671D01*
X206943793Y-82757664D01*
X206857547Y-82642455D01*
X206857544Y-82642452D01*
X206742335Y-82556206D01*
X206742328Y-82556202D01*
X206607482Y-82505908D01*
X206607483Y-82505908D01*
X206547883Y-82499501D01*
X206547881Y-82499500D01*
X206547873Y-82499500D01*
X206547865Y-82499500D01*
X205654500Y-82499500D01*
X205587461Y-82479815D01*
X205541706Y-82427011D01*
X205530500Y-82375500D01*
X205530500Y-79359601D01*
X205550185Y-79292562D01*
X205598206Y-79249116D01*
X205611610Y-79242287D01*
X205777219Y-79121966D01*
X205921966Y-78977219D01*
X205921968Y-78977215D01*
X205921971Y-78977213D01*
X206042284Y-78811614D01*
X206042286Y-78811611D01*
X206042287Y-78811610D01*
X206089516Y-78718917D01*
X206137489Y-78668123D01*
X206205310Y-78651328D01*
X206271445Y-78673865D01*
X206310485Y-78718919D01*
X206357715Y-78811614D01*
X206478028Y-78977213D01*
X206622786Y-79121971D01*
X206777749Y-79234556D01*
X206788390Y-79242287D01*
X206869499Y-79283614D01*
X206970776Y-79335218D01*
X206970778Y-79335218D01*
X206970781Y-79335220D01*
X207045818Y-79359601D01*
X207165465Y-79398477D01*
X207266557Y-79414488D01*
X207367648Y-79430500D01*
X207367649Y-79430500D01*
X207572351Y-79430500D01*
X207572352Y-79430500D01*
X207774534Y-79398477D01*
X207969219Y-79335220D01*
X208151610Y-79242287D01*
X208244590Y-79174732D01*
X208317213Y-79121971D01*
X208317215Y-79121968D01*
X208317219Y-79121966D01*
X208461966Y-78977219D01*
X208461968Y-78977215D01*
X208461971Y-78977213D01*
X208582284Y-78811614D01*
X208582286Y-78811611D01*
X208582287Y-78811610D01*
X208629795Y-78718369D01*
X208677770Y-78667574D01*
X208745591Y-78650779D01*
X208811725Y-78673316D01*
X208850765Y-78718370D01*
X208898140Y-78811349D01*
X209018417Y-78976894D01*
X209018417Y-78976895D01*
X209163104Y-79121582D01*
X209328650Y-79241859D01*
X209510968Y-79334754D01*
X209705578Y-79397988D01*
X209760000Y-79406607D01*
X209760000Y-78563012D01*
X209817007Y-78595925D01*
X209944174Y-78630000D01*
X210075826Y-78630000D01*
X210202993Y-78595925D01*
X210260000Y-78563012D01*
X210260000Y-79406606D01*
X210314421Y-79397988D01*
X210509031Y-79334754D01*
X210691349Y-79241859D01*
X210856894Y-79121582D01*
X210856895Y-79121582D01*
X211001582Y-78976895D01*
X211001582Y-78976894D01*
X211121861Y-78811347D01*
X211169234Y-78718371D01*
X211217208Y-78667575D01*
X211285028Y-78650779D01*
X211351164Y-78673316D01*
X211390203Y-78718369D01*
X211437713Y-78811611D01*
X211558028Y-78977213D01*
X211702786Y-79121971D01*
X211857749Y-79234556D01*
X211868390Y-79242287D01*
X211949499Y-79283614D01*
X212050776Y-79335218D01*
X212050778Y-79335218D01*
X212050781Y-79335220D01*
X212125818Y-79359601D01*
X212245465Y-79398477D01*
X212346557Y-79414488D01*
X212447648Y-79430500D01*
X212447649Y-79430500D01*
X212652351Y-79430500D01*
X212652352Y-79430500D01*
X212854534Y-79398477D01*
X213049219Y-79335220D01*
X213231610Y-79242287D01*
X213324590Y-79174732D01*
X213397213Y-79121971D01*
X213397215Y-79121968D01*
X213397219Y-79121966D01*
X213541966Y-78977219D01*
X213541968Y-78977215D01*
X213541971Y-78977213D01*
X213594732Y-78904590D01*
X213662287Y-78811610D01*
X213755220Y-78629219D01*
X213818477Y-78434534D01*
X213850500Y-78232352D01*
X213850500Y-78027648D01*
X213818477Y-77825466D01*
X213817673Y-77822993D01*
X213755218Y-77630776D01*
X213662419Y-77448650D01*
X213662287Y-77448390D01*
X213654556Y-77437749D01*
X213541971Y-77282786D01*
X213397213Y-77138028D01*
X213231613Y-77017715D01*
X213231612Y-77017714D01*
X213231610Y-77017713D01*
X213174653Y-76988691D01*
X213049223Y-76924781D01*
X212854534Y-76861522D01*
X212679995Y-76833878D01*
X212652352Y-76829500D01*
X212447648Y-76829500D01*
X212423329Y-76833351D01*
X212245465Y-76861522D01*
X212050776Y-76924781D01*
X211868386Y-77017715D01*
X211702786Y-77138028D01*
X211558028Y-77282786D01*
X211437713Y-77448388D01*
X211390203Y-77541630D01*
X211342228Y-77592426D01*
X211274407Y-77609220D01*
X211208272Y-77586682D01*
X211169234Y-77541628D01*
X211121861Y-77448652D01*
X211001582Y-77283105D01*
X211001582Y-77283104D01*
X210856895Y-77138417D01*
X210691349Y-77018140D01*
X210509029Y-76925244D01*
X210314413Y-76862009D01*
X210260000Y-76853390D01*
X210260000Y-77696988D01*
X210202993Y-77664075D01*
X210075826Y-77630000D01*
X209944174Y-77630000D01*
X209817007Y-77664075D01*
X209760000Y-77696988D01*
X209760000Y-76853390D01*
X209705586Y-76862009D01*
X209510970Y-76925244D01*
X209328650Y-77018140D01*
X209163105Y-77138417D01*
X209163104Y-77138417D01*
X209018417Y-77283104D01*
X209018417Y-77283105D01*
X208898140Y-77448650D01*
X208850765Y-77541629D01*
X208802790Y-77592425D01*
X208734969Y-77609220D01*
X208668834Y-77586682D01*
X208629795Y-77541629D01*
X208582419Y-77448650D01*
X208582287Y-77448390D01*
X208574556Y-77437749D01*
X208461971Y-77282786D01*
X208317213Y-77138028D01*
X208151613Y-77017715D01*
X208151612Y-77017714D01*
X208151610Y-77017713D01*
X208094653Y-76988691D01*
X207969223Y-76924781D01*
X207774534Y-76861522D01*
X207599995Y-76833878D01*
X207572352Y-76829500D01*
X207367648Y-76829500D01*
X207343329Y-76833351D01*
X207165465Y-76861522D01*
X206970776Y-76924781D01*
X206788386Y-77017715D01*
X206622786Y-77138028D01*
X206478028Y-77282786D01*
X206357715Y-77448386D01*
X206310485Y-77541080D01*
X206262510Y-77591876D01*
X206194689Y-77608671D01*
X206128554Y-77586134D01*
X206089515Y-77541080D01*
X206042419Y-77448650D01*
X206042287Y-77448390D01*
X206034556Y-77437749D01*
X205921971Y-77282786D01*
X205777213Y-77138028D01*
X205611613Y-77017715D01*
X205611612Y-77017714D01*
X205611610Y-77017713D01*
X205554653Y-76988691D01*
X205429223Y-76924781D01*
X205234534Y-76861522D01*
X205059995Y-76833878D01*
X205032352Y-76829500D01*
X204827648Y-76829500D01*
X204803329Y-76833351D01*
X204625465Y-76861522D01*
X204430776Y-76924781D01*
X204248386Y-77017715D01*
X204082786Y-77138028D01*
X203938028Y-77282786D01*
X203817715Y-77448386D01*
X203770485Y-77541080D01*
X203722510Y-77591876D01*
X203654689Y-77608671D01*
X203588554Y-77586134D01*
X203549515Y-77541080D01*
X203502419Y-77448650D01*
X203502287Y-77448390D01*
X203494556Y-77437749D01*
X203381971Y-77282786D01*
X203237213Y-77138028D01*
X203071613Y-77017715D01*
X203071612Y-77017714D01*
X203071610Y-77017713D01*
X203014653Y-76988691D01*
X202889223Y-76924781D01*
X202694534Y-76861522D01*
X202519995Y-76833878D01*
X202492352Y-76829500D01*
X202287648Y-76829500D01*
X202263329Y-76833351D01*
X202085465Y-76861522D01*
X201890776Y-76924781D01*
X201708386Y-77017715D01*
X201542786Y-77138028D01*
X201398028Y-77282786D01*
X201277715Y-77448386D01*
X201230485Y-77541080D01*
X201182510Y-77591876D01*
X201114689Y-77608671D01*
X201048554Y-77586134D01*
X201009515Y-77541080D01*
X200962419Y-77448650D01*
X200962287Y-77448390D01*
X200954556Y-77437749D01*
X200841971Y-77282786D01*
X200697213Y-77138028D01*
X200531613Y-77017715D01*
X200531612Y-77017714D01*
X200531610Y-77017713D01*
X200474653Y-76988691D01*
X200349223Y-76924781D01*
X200154534Y-76861522D01*
X199979995Y-76833878D01*
X199952352Y-76829500D01*
X199747648Y-76829500D01*
X199723329Y-76833351D01*
X199545465Y-76861522D01*
X199350776Y-76924781D01*
X199168386Y-77017715D01*
X199002786Y-77138028D01*
X198858028Y-77282786D01*
X198737715Y-77448386D01*
X198690485Y-77541080D01*
X198642510Y-77591876D01*
X198574689Y-77608671D01*
X198508554Y-77586134D01*
X198469515Y-77541080D01*
X198422419Y-77448650D01*
X198422287Y-77448390D01*
X198414556Y-77437749D01*
X198301971Y-77282786D01*
X198157213Y-77138028D01*
X197991613Y-77017715D01*
X197991612Y-77017714D01*
X197991610Y-77017713D01*
X197934653Y-76988691D01*
X197809223Y-76924781D01*
X197614534Y-76861522D01*
X197439995Y-76833878D01*
X197412352Y-76829500D01*
X197207648Y-76829500D01*
X197183329Y-76833351D01*
X197005465Y-76861522D01*
X196810776Y-76924781D01*
X196628386Y-77017715D01*
X196462786Y-77138028D01*
X196318028Y-77282786D01*
X196197715Y-77448386D01*
X196150485Y-77541080D01*
X196102510Y-77591876D01*
X196034689Y-77608671D01*
X195968554Y-77586134D01*
X195929515Y-77541080D01*
X195882419Y-77448650D01*
X195882287Y-77448390D01*
X195874556Y-77437749D01*
X195761971Y-77282786D01*
X195617213Y-77138028D01*
X195451613Y-77017715D01*
X195451612Y-77017714D01*
X195451610Y-77017713D01*
X195394653Y-76988691D01*
X195269223Y-76924781D01*
X195074534Y-76861522D01*
X194899995Y-76833878D01*
X194872352Y-76829500D01*
X194667648Y-76829500D01*
X194600254Y-76840174D01*
X194465464Y-76861523D01*
X194465457Y-76861524D01*
X194412817Y-76878628D01*
X194342976Y-76880623D01*
X194283143Y-76844542D01*
X194252316Y-76781840D01*
X194250500Y-76760697D01*
X194250500Y-72019060D01*
X194250501Y-72019047D01*
X194250501Y-71850944D01*
X194209576Y-71698214D01*
X194209573Y-71698209D01*
X194130524Y-71561290D01*
X194130518Y-71561282D01*
X186971416Y-64402181D01*
X186937931Y-64340858D01*
X186942915Y-64271166D01*
X186984787Y-64215233D01*
X187050251Y-64190816D01*
X187059097Y-64190500D01*
X187252351Y-64190500D01*
X187252352Y-64190500D01*
X187454534Y-64158477D01*
X187649219Y-64095220D01*
X187831610Y-64002287D01*
X187927901Y-63932328D01*
X187997213Y-63881971D01*
X187997215Y-63881968D01*
X187997219Y-63881966D01*
X188141966Y-63737219D01*
X188141968Y-63737215D01*
X188141971Y-63737213D01*
X188262284Y-63571614D01*
X188262286Y-63571611D01*
X188262287Y-63571610D01*
X188309516Y-63478917D01*
X188357489Y-63428123D01*
X188425310Y-63411328D01*
X188491445Y-63433865D01*
X188530485Y-63478919D01*
X188577715Y-63571614D01*
X188698028Y-63737213D01*
X188842786Y-63881971D01*
X188997749Y-63994556D01*
X189008390Y-64002287D01*
X189097212Y-64047544D01*
X189190776Y-64095218D01*
X189190778Y-64095218D01*
X189190781Y-64095220D01*
X189295137Y-64129127D01*
X189385465Y-64158477D01*
X189486557Y-64174488D01*
X189587648Y-64190500D01*
X189587649Y-64190500D01*
X189792351Y-64190500D01*
X189792352Y-64190500D01*
X189994534Y-64158477D01*
X190189219Y-64095220D01*
X190371610Y-64002287D01*
X190467901Y-63932328D01*
X190537213Y-63881971D01*
X190537215Y-63881968D01*
X190537219Y-63881966D01*
X190681966Y-63737219D01*
X190681968Y-63737215D01*
X190681971Y-63737213D01*
X190802284Y-63571614D01*
X190802286Y-63571611D01*
X190802287Y-63571610D01*
X190849516Y-63478917D01*
X190897489Y-63428123D01*
X190965310Y-63411328D01*
X191031445Y-63433865D01*
X191070485Y-63478919D01*
X191117715Y-63571614D01*
X191238028Y-63737213D01*
X191382786Y-63881971D01*
X191537749Y-63994556D01*
X191548390Y-64002287D01*
X191637212Y-64047544D01*
X191730776Y-64095218D01*
X191730778Y-64095218D01*
X191730781Y-64095220D01*
X191835137Y-64129127D01*
X191925465Y-64158477D01*
X192026557Y-64174488D01*
X192127648Y-64190500D01*
X192127649Y-64190500D01*
X192332351Y-64190500D01*
X192332352Y-64190500D01*
X192534534Y-64158477D01*
X192729219Y-64095220D01*
X192911610Y-64002287D01*
X193007901Y-63932328D01*
X193077213Y-63881971D01*
X193077215Y-63881968D01*
X193077219Y-63881966D01*
X193221966Y-63737219D01*
X193221968Y-63737215D01*
X193221971Y-63737213D01*
X193342284Y-63571614D01*
X193342286Y-63571611D01*
X193342287Y-63571610D01*
X193389516Y-63478917D01*
X193437489Y-63428123D01*
X193505310Y-63411328D01*
X193571445Y-63433865D01*
X193610485Y-63478919D01*
X193657715Y-63571614D01*
X193778028Y-63737213D01*
X193922786Y-63881971D01*
X194077749Y-63994556D01*
X194088390Y-64002287D01*
X194177212Y-64047544D01*
X194270776Y-64095218D01*
X194270778Y-64095218D01*
X194270781Y-64095220D01*
X194375137Y-64129127D01*
X194465465Y-64158477D01*
X194566557Y-64174488D01*
X194667648Y-64190500D01*
X194667649Y-64190500D01*
X194872351Y-64190500D01*
X194872352Y-64190500D01*
X195074534Y-64158477D01*
X195269219Y-64095220D01*
X195451610Y-64002287D01*
X195547901Y-63932328D01*
X195617213Y-63881971D01*
X195617215Y-63881968D01*
X195617219Y-63881966D01*
X195761966Y-63737219D01*
X195761968Y-63737215D01*
X195761971Y-63737213D01*
X195882284Y-63571614D01*
X195882286Y-63571611D01*
X195882287Y-63571610D01*
X195929516Y-63478917D01*
X195977489Y-63428123D01*
X196045310Y-63411328D01*
X196111445Y-63433865D01*
X196150485Y-63478919D01*
X196197715Y-63571614D01*
X196318028Y-63737213D01*
X196462786Y-63881971D01*
X196617749Y-63994556D01*
X196628390Y-64002287D01*
X196717212Y-64047544D01*
X196810776Y-64095218D01*
X196810778Y-64095218D01*
X196810781Y-64095220D01*
X196915137Y-64129127D01*
X197005465Y-64158477D01*
X197106557Y-64174488D01*
X197207648Y-64190500D01*
X197207649Y-64190500D01*
X197412351Y-64190500D01*
X197412352Y-64190500D01*
X197614534Y-64158477D01*
X197809219Y-64095220D01*
X197991610Y-64002287D01*
X198087901Y-63932328D01*
X198157213Y-63881971D01*
X198157215Y-63881968D01*
X198157219Y-63881966D01*
X198301966Y-63737219D01*
X198301968Y-63737215D01*
X198301971Y-63737213D01*
X198422284Y-63571614D01*
X198422286Y-63571611D01*
X198422287Y-63571610D01*
X198469516Y-63478917D01*
X198517489Y-63428123D01*
X198585310Y-63411328D01*
X198651445Y-63433865D01*
X198690485Y-63478919D01*
X198737715Y-63571614D01*
X198858028Y-63737213D01*
X199002786Y-63881971D01*
X199157749Y-63994556D01*
X199168390Y-64002287D01*
X199257212Y-64047544D01*
X199350776Y-64095218D01*
X199350778Y-64095218D01*
X199350781Y-64095220D01*
X199455137Y-64129127D01*
X199545465Y-64158477D01*
X199646557Y-64174488D01*
X199747648Y-64190500D01*
X199747649Y-64190500D01*
X199952351Y-64190500D01*
X199952352Y-64190500D01*
X200154534Y-64158477D01*
X200349219Y-64095220D01*
X200531610Y-64002287D01*
X200627901Y-63932328D01*
X200697213Y-63881971D01*
X200697215Y-63881968D01*
X200697219Y-63881966D01*
X200841966Y-63737219D01*
X200841968Y-63737215D01*
X200841971Y-63737213D01*
X200962284Y-63571614D01*
X200962286Y-63571611D01*
X200962287Y-63571610D01*
X201009516Y-63478917D01*
X201057489Y-63428123D01*
X201125310Y-63411328D01*
X201191445Y-63433865D01*
X201230485Y-63478919D01*
X201277715Y-63571614D01*
X201398028Y-63737213D01*
X201542786Y-63881971D01*
X201697749Y-63994556D01*
X201708390Y-64002287D01*
X201797212Y-64047544D01*
X201890776Y-64095218D01*
X201890778Y-64095218D01*
X201890781Y-64095220D01*
X201995137Y-64129127D01*
X202085465Y-64158477D01*
X202186557Y-64174488D01*
X202287648Y-64190500D01*
X202287649Y-64190500D01*
X202492351Y-64190500D01*
X202492352Y-64190500D01*
X202694534Y-64158477D01*
X202889219Y-64095220D01*
X203071610Y-64002287D01*
X203167901Y-63932328D01*
X203237213Y-63881971D01*
X203237215Y-63881968D01*
X203237219Y-63881966D01*
X203381966Y-63737219D01*
X203381968Y-63737215D01*
X203381971Y-63737213D01*
X203502284Y-63571614D01*
X203502286Y-63571611D01*
X203502287Y-63571610D01*
X203549795Y-63478369D01*
X203597770Y-63427574D01*
X203665591Y-63410779D01*
X203731725Y-63433316D01*
X203770765Y-63478370D01*
X203818140Y-63571349D01*
X203938417Y-63736894D01*
X203938417Y-63736895D01*
X204083104Y-63881582D01*
X204248650Y-64001859D01*
X204430968Y-64094754D01*
X204625578Y-64157988D01*
X204680000Y-64166607D01*
X204680000Y-63323012D01*
X204737007Y-63355925D01*
X204864174Y-63390000D01*
X204995826Y-63390000D01*
X205122993Y-63355925D01*
X205180000Y-63323012D01*
X205180000Y-64166606D01*
X205234421Y-64157988D01*
X205429031Y-64094754D01*
X205611349Y-64001859D01*
X205776894Y-63881582D01*
X205776895Y-63881582D01*
X205921582Y-63736895D01*
X205921582Y-63736894D01*
X206041861Y-63571347D01*
X206089234Y-63478371D01*
X206137208Y-63427575D01*
X206205028Y-63410779D01*
X206271164Y-63433316D01*
X206310203Y-63478369D01*
X206357713Y-63571611D01*
X206478028Y-63737213D01*
X206622786Y-63881971D01*
X206777749Y-63994556D01*
X206788390Y-64002287D01*
X206877212Y-64047544D01*
X206970776Y-64095218D01*
X206970778Y-64095218D01*
X206970781Y-64095220D01*
X207075137Y-64129127D01*
X207165465Y-64158477D01*
X207266557Y-64174488D01*
X207367648Y-64190500D01*
X207367649Y-64190500D01*
X207572351Y-64190500D01*
X207572352Y-64190500D01*
X207774534Y-64158477D01*
X207969219Y-64095220D01*
X208151610Y-64002287D01*
X208247901Y-63932328D01*
X208317213Y-63881971D01*
X208317215Y-63881968D01*
X208317219Y-63881966D01*
X208461966Y-63737219D01*
X208461968Y-63737215D01*
X208461971Y-63737213D01*
X208582284Y-63571614D01*
X208582286Y-63571611D01*
X208582287Y-63571610D01*
X208629516Y-63478917D01*
X208677489Y-63428123D01*
X208745310Y-63411328D01*
X208811445Y-63433865D01*
X208850485Y-63478919D01*
X208897715Y-63571614D01*
X209018028Y-63737213D01*
X209162786Y-63881971D01*
X209317749Y-63994556D01*
X209328390Y-64002287D01*
X209417212Y-64047544D01*
X209510776Y-64095218D01*
X209510778Y-64095218D01*
X209510781Y-64095220D01*
X209615137Y-64129127D01*
X209705465Y-64158477D01*
X209806557Y-64174488D01*
X209907648Y-64190500D01*
X209907649Y-64190500D01*
X210112351Y-64190500D01*
X210112352Y-64190500D01*
X210314534Y-64158477D01*
X210509219Y-64095220D01*
X210691610Y-64002287D01*
X210787901Y-63932328D01*
X210857213Y-63881971D01*
X210857215Y-63881968D01*
X210857219Y-63881966D01*
X211001966Y-63737219D01*
X211028330Y-63700930D01*
X211083658Y-63658265D01*
X211153271Y-63652284D01*
X211215067Y-63684889D01*
X211249426Y-63745726D01*
X211251938Y-63760559D01*
X211255907Y-63797480D01*
X211306202Y-63932328D01*
X211306206Y-63932335D01*
X211392452Y-64047544D01*
X211392455Y-64047547D01*
X211507664Y-64133793D01*
X211507671Y-64133797D01*
X211642517Y-64184091D01*
X211642516Y-64184091D01*
X211649444Y-64184835D01*
X211702127Y-64190500D01*
X213397872Y-64190499D01*
X213457483Y-64184091D01*
X213592331Y-64133796D01*
X213707546Y-64047546D01*
X213793796Y-63932331D01*
X213844091Y-63797483D01*
X213850500Y-63737873D01*
X213850499Y-62042128D01*
X213844091Y-61982517D01*
X213793796Y-61847669D01*
X213793795Y-61847668D01*
X213793793Y-61847664D01*
X213707547Y-61732455D01*
X213707544Y-61732452D01*
X213592335Y-61646206D01*
X213592328Y-61646202D01*
X213457482Y-61595908D01*
X213457483Y-61595908D01*
X213397883Y-61589501D01*
X213397881Y-61589500D01*
X213397873Y-61589500D01*
X213397864Y-61589500D01*
X211702129Y-61589500D01*
X211702123Y-61589501D01*
X211642516Y-61595908D01*
X211507671Y-61646202D01*
X211507664Y-61646206D01*
X211392455Y-61732452D01*
X211392452Y-61732455D01*
X211306206Y-61847664D01*
X211306202Y-61847671D01*
X211255908Y-61982516D01*
X211251939Y-62019440D01*
X211225201Y-62083991D01*
X211167809Y-62123839D01*
X211097983Y-62126332D01*
X211037895Y-62090679D01*
X211028332Y-62079070D01*
X211001967Y-62042782D01*
X210857213Y-61898028D01*
X210691613Y-61777715D01*
X210691612Y-61777714D01*
X210691610Y-61777713D01*
X210634653Y-61748691D01*
X210509223Y-61684781D01*
X210314534Y-61621522D01*
X210139995Y-61593878D01*
X210112352Y-61589500D01*
X209907648Y-61589500D01*
X209883329Y-61593351D01*
X209705465Y-61621522D01*
X209510776Y-61684781D01*
X209328386Y-61777715D01*
X209162786Y-61898028D01*
X209018028Y-62042786D01*
X208897715Y-62208386D01*
X208850485Y-62301080D01*
X208802510Y-62351876D01*
X208734689Y-62368671D01*
X208668554Y-62346134D01*
X208629515Y-62301080D01*
X208582419Y-62208650D01*
X208582287Y-62208390D01*
X208520858Y-62123839D01*
X208461971Y-62042786D01*
X208317213Y-61898028D01*
X208151613Y-61777715D01*
X208151612Y-61777714D01*
X208151610Y-61777713D01*
X208094653Y-61748691D01*
X207969223Y-61684781D01*
X207774534Y-61621522D01*
X207599995Y-61593878D01*
X207572352Y-61589500D01*
X207367648Y-61589500D01*
X207343329Y-61593351D01*
X207165465Y-61621522D01*
X206970776Y-61684781D01*
X206788386Y-61777715D01*
X206622786Y-61898028D01*
X206478028Y-62042786D01*
X206357713Y-62208388D01*
X206310203Y-62301630D01*
X206262228Y-62352426D01*
X206194407Y-62369220D01*
X206128272Y-62346682D01*
X206089234Y-62301628D01*
X206041861Y-62208652D01*
X205921582Y-62043105D01*
X205921582Y-62043104D01*
X205776895Y-61898417D01*
X205611349Y-61778140D01*
X205429029Y-61685244D01*
X205234413Y-61622009D01*
X205180000Y-61613390D01*
X205180000Y-62456988D01*
X205122993Y-62424075D01*
X204995826Y-62390000D01*
X204864174Y-62390000D01*
X204737007Y-62424075D01*
X204680000Y-62456988D01*
X204680000Y-61613390D01*
X204625586Y-61622009D01*
X204430970Y-61685244D01*
X204248650Y-61778140D01*
X204083105Y-61898417D01*
X204083104Y-61898417D01*
X203938417Y-62043104D01*
X203938417Y-62043105D01*
X203818140Y-62208650D01*
X203770765Y-62301629D01*
X203722790Y-62352425D01*
X203654969Y-62369220D01*
X203588834Y-62346682D01*
X203549795Y-62301629D01*
X203502419Y-62208650D01*
X203502287Y-62208390D01*
X203440858Y-62123839D01*
X203381971Y-62042786D01*
X203237213Y-61898028D01*
X203071613Y-61777715D01*
X203071612Y-61777714D01*
X203071610Y-61777713D01*
X203014653Y-61748691D01*
X202889223Y-61684781D01*
X202694534Y-61621522D01*
X202519995Y-61593878D01*
X202492352Y-61589500D01*
X202287648Y-61589500D01*
X202263329Y-61593351D01*
X202085465Y-61621522D01*
X201890776Y-61684781D01*
X201708386Y-61777715D01*
X201542786Y-61898028D01*
X201398028Y-62042786D01*
X201277715Y-62208386D01*
X201230485Y-62301080D01*
X201182510Y-62351876D01*
X201114689Y-62368671D01*
X201048554Y-62346134D01*
X201009515Y-62301080D01*
X200962419Y-62208650D01*
X200962287Y-62208390D01*
X200900858Y-62123839D01*
X200841971Y-62042786D01*
X200697213Y-61898028D01*
X200531613Y-61777715D01*
X200531612Y-61777714D01*
X200531610Y-61777713D01*
X200474653Y-61748691D01*
X200349223Y-61684781D01*
X200154534Y-61621522D01*
X199979995Y-61593878D01*
X199952352Y-61589500D01*
X199747648Y-61589500D01*
X199723329Y-61593351D01*
X199545465Y-61621522D01*
X199350776Y-61684781D01*
X199168386Y-61777715D01*
X199002786Y-61898028D01*
X198858028Y-62042786D01*
X198737715Y-62208386D01*
X198690485Y-62301080D01*
X198642510Y-62351876D01*
X198574689Y-62368671D01*
X198508554Y-62346134D01*
X198469515Y-62301080D01*
X198422419Y-62208650D01*
X198422287Y-62208390D01*
X198360858Y-62123839D01*
X198301971Y-62042786D01*
X198157213Y-61898028D01*
X197991613Y-61777715D01*
X197991612Y-61777714D01*
X197991610Y-61777713D01*
X197934653Y-61748691D01*
X197809223Y-61684781D01*
X197614534Y-61621522D01*
X197439995Y-61593878D01*
X197412352Y-61589500D01*
X197207648Y-61589500D01*
X197183329Y-61593351D01*
X197005465Y-61621522D01*
X196810776Y-61684781D01*
X196628386Y-61777715D01*
X196462786Y-61898028D01*
X196318028Y-62042786D01*
X196197715Y-62208386D01*
X196150485Y-62301080D01*
X196102510Y-62351876D01*
X196034689Y-62368671D01*
X195968554Y-62346134D01*
X195929515Y-62301080D01*
X195882419Y-62208650D01*
X195882287Y-62208390D01*
X195820858Y-62123839D01*
X195761971Y-62042786D01*
X195617213Y-61898028D01*
X195451613Y-61777715D01*
X195451612Y-61777714D01*
X195451610Y-61777713D01*
X195394653Y-61748691D01*
X195269223Y-61684781D01*
X195074534Y-61621522D01*
X194899995Y-61593878D01*
X194872352Y-61589500D01*
X194667648Y-61589500D01*
X194643329Y-61593351D01*
X194465465Y-61621522D01*
X194270776Y-61684781D01*
X194088386Y-61777715D01*
X193922786Y-61898028D01*
X193778028Y-62042786D01*
X193657715Y-62208386D01*
X193610485Y-62301080D01*
X193562510Y-62351876D01*
X193494689Y-62368671D01*
X193428554Y-62346134D01*
X193389515Y-62301080D01*
X193342419Y-62208650D01*
X193342287Y-62208390D01*
X193280858Y-62123839D01*
X193221971Y-62042786D01*
X193077213Y-61898028D01*
X192911613Y-61777715D01*
X192911612Y-61777714D01*
X192911610Y-61777713D01*
X192854653Y-61748691D01*
X192729223Y-61684781D01*
X192534534Y-61621522D01*
X192359995Y-61593878D01*
X192332352Y-61589500D01*
X192127648Y-61589500D01*
X192103329Y-61593351D01*
X191925465Y-61621522D01*
X191730776Y-61684781D01*
X191548386Y-61777715D01*
X191382786Y-61898028D01*
X191238028Y-62042786D01*
X191117715Y-62208386D01*
X191070485Y-62301080D01*
X191022510Y-62351876D01*
X190954689Y-62368671D01*
X190888554Y-62346134D01*
X190849515Y-62301080D01*
X190802419Y-62208650D01*
X190802287Y-62208390D01*
X190740858Y-62123839D01*
X190681971Y-62042786D01*
X190537213Y-61898028D01*
X190371613Y-61777715D01*
X190371612Y-61777714D01*
X190371610Y-61777713D01*
X190314653Y-61748691D01*
X190189223Y-61684781D01*
X189994534Y-61621522D01*
X189819995Y-61593878D01*
X189792352Y-61589500D01*
X189587648Y-61589500D01*
X189563329Y-61593351D01*
X189385465Y-61621522D01*
X189190776Y-61684781D01*
X189008386Y-61777715D01*
X188842786Y-61898028D01*
X188698028Y-62042786D01*
X188577715Y-62208386D01*
X188530485Y-62301080D01*
X188482510Y-62351876D01*
X188414689Y-62368671D01*
X188348554Y-62346134D01*
X188309515Y-62301080D01*
X188262419Y-62208650D01*
X188262287Y-62208390D01*
X188200858Y-62123839D01*
X188141971Y-62042786D01*
X187997213Y-61898028D01*
X187831613Y-61777715D01*
X187831612Y-61777714D01*
X187831610Y-61777713D01*
X187774653Y-61748691D01*
X187649223Y-61684781D01*
X187454534Y-61621522D01*
X187279995Y-61593878D01*
X187252352Y-61589500D01*
X187047648Y-61589500D01*
X187023329Y-61593351D01*
X186845465Y-61621522D01*
X186650776Y-61684781D01*
X186468386Y-61777715D01*
X186302786Y-61898028D01*
X186158028Y-62042786D01*
X186037715Y-62208386D01*
X185990485Y-62301080D01*
X185942510Y-62351876D01*
X185874689Y-62368671D01*
X185808554Y-62346134D01*
X185769515Y-62301080D01*
X185722419Y-62208650D01*
X185722287Y-62208390D01*
X185660858Y-62123839D01*
X185601971Y-62042786D01*
X185457213Y-61898028D01*
X185291613Y-61777715D01*
X185291612Y-61777714D01*
X185291610Y-61777713D01*
X185234653Y-61748691D01*
X185109223Y-61684781D01*
X184914534Y-61621522D01*
X184739995Y-61593878D01*
X184712352Y-61589500D01*
X184507648Y-61589500D01*
X184483329Y-61593351D01*
X184305465Y-61621522D01*
X184110776Y-61684781D01*
X183928386Y-61777715D01*
X183762786Y-61898028D01*
X183618028Y-62042786D01*
X183497715Y-62208386D01*
X183450485Y-62301080D01*
X183402510Y-62351876D01*
X183334689Y-62368671D01*
X183268554Y-62346134D01*
X183229515Y-62301080D01*
X183182419Y-62208650D01*
X183182287Y-62208390D01*
X183120858Y-62123839D01*
X183061971Y-62042786D01*
X182917213Y-61898028D01*
X182751613Y-61777715D01*
X182751612Y-61777714D01*
X182751610Y-61777713D01*
X182694653Y-61748691D01*
X182569223Y-61684781D01*
X182374534Y-61621522D01*
X182199995Y-61593878D01*
X182172352Y-61589500D01*
X181967648Y-61589500D01*
X181943329Y-61593351D01*
X181765465Y-61621522D01*
X181570776Y-61684781D01*
X181388386Y-61777715D01*
X181222786Y-61898028D01*
X181078028Y-62042786D01*
X180957715Y-62208386D01*
X180910485Y-62301080D01*
X180862510Y-62351876D01*
X180794689Y-62368671D01*
X180728554Y-62346134D01*
X180689515Y-62301080D01*
X180642419Y-62208650D01*
X180642287Y-62208390D01*
X180580858Y-62123839D01*
X180521971Y-62042786D01*
X180377213Y-61898028D01*
X180211613Y-61777715D01*
X180211612Y-61777714D01*
X180211610Y-61777713D01*
X180154653Y-61748691D01*
X180029223Y-61684781D01*
X179834534Y-61621522D01*
X179659995Y-61593878D01*
X179632352Y-61589500D01*
X179427648Y-61589500D01*
X179403329Y-61593351D01*
X179225465Y-61621522D01*
X179030776Y-61684781D01*
X178848386Y-61777715D01*
X178682786Y-61898028D01*
X178538028Y-62042786D01*
X178417715Y-62208386D01*
X178370485Y-62301080D01*
X178322510Y-62351876D01*
X178254689Y-62368671D01*
X178188554Y-62346134D01*
X178149515Y-62301080D01*
X178102419Y-62208650D01*
X178102287Y-62208390D01*
X178040858Y-62123839D01*
X177981971Y-62042786D01*
X177837213Y-61898028D01*
X177671613Y-61777715D01*
X177671612Y-61777714D01*
X177671610Y-61777713D01*
X177614653Y-61748691D01*
X177489223Y-61684781D01*
X177294534Y-61621522D01*
X177119995Y-61593878D01*
X177092352Y-61589500D01*
X176887648Y-61589500D01*
X176863329Y-61593351D01*
X176685465Y-61621522D01*
X176490776Y-61684781D01*
X176308386Y-61777715D01*
X176142786Y-61898028D01*
X175998028Y-62042786D01*
X175877715Y-62208386D01*
X175784781Y-62390776D01*
X175721522Y-62585465D01*
X175689500Y-62787648D01*
X170500500Y-62787648D01*
X170500500Y-60304760D01*
X170520185Y-60237721D01*
X170572989Y-60191966D01*
X170624548Y-60180760D01*
X217375553Y-60200239D01*
G37*
%TD.AperFunction*%
%TD*%
M02*
