%TF.GenerationSoftware,KiCad,Pcbnew,9.0.5*%
%TF.CreationDate,2025-10-29T17:37:18-04:00*%
%TF.ProjectId,Cruz_FlightComputerPCB,4372757a-5f46-46c6-9967-6874436f6d70,rev?*%
%TF.SameCoordinates,Original*%
%TF.FileFunction,Copper,L2,Bot*%
%TF.FilePolarity,Positive*%
%FSLAX46Y46*%
G04 Gerber Fmt 4.6, Leading zero omitted, Abs format (unit mm)*
G04 Created by KiCad (PCBNEW 9.0.5) date 2025-10-29 17:37:18*
%MOMM*%
%LPD*%
G01*
G04 APERTURE LIST*
G04 Aperture macros list*
%AMRoundRect*
0 Rectangle with rounded corners*
0 $1 Rounding radius*
0 $2 $3 $4 $5 $6 $7 $8 $9 X,Y pos of 4 corners*
0 Add a 4 corners polygon primitive as box body*
4,1,4,$2,$3,$4,$5,$6,$7,$8,$9,$2,$3,0*
0 Add four circle primitives for the rounded corners*
1,1,$1+$1,$2,$3*
1,1,$1+$1,$4,$5*
1,1,$1+$1,$6,$7*
1,1,$1+$1,$8,$9*
0 Add four rect primitives between the rounded corners*
20,1,$1+$1,$2,$3,$4,$5,0*
20,1,$1+$1,$4,$5,$6,$7,0*
20,1,$1+$1,$6,$7,$8,$9,0*
20,1,$1+$1,$8,$9,$2,$3,0*%
G04 Aperture macros list end*
%TA.AperFunction,ComponentPad*%
%ADD10R,1.600000X1.600000*%
%TD*%
%TA.AperFunction,ComponentPad*%
%ADD11O,1.600000X1.600000*%
%TD*%
%TA.AperFunction,ComponentPad*%
%ADD12R,2.000000X2.000000*%
%TD*%
%TA.AperFunction,ComponentPad*%
%ADD13RoundRect,0.250001X-1.149999X1.149999X-1.149999X-1.149999X1.149999X-1.149999X1.149999X1.149999X0*%
%TD*%
%TA.AperFunction,ComponentPad*%
%ADD14C,2.800000*%
%TD*%
%TA.AperFunction,ComponentPad*%
%ADD15R,1.700000X1.700000*%
%TD*%
%TA.AperFunction,ComponentPad*%
%ADD16C,1.700000*%
%TD*%
%TA.AperFunction,ViaPad*%
%ADD17C,0.600000*%
%TD*%
%TA.AperFunction,Conductor*%
%ADD18C,0.200000*%
%TD*%
G04 APERTURE END LIST*
D10*
%TO.P,A1,1,D1/TX*%
%TO.N,unconnected-(A1-D1{slash}TX-Pad1)*%
X212550000Y-62890000D03*
D11*
%TO.P,A1,2,D0/RX*%
%TO.N,unconnected-(A1-D0{slash}RX-Pad2)*%
X210010000Y-62890000D03*
%TO.P,A1,3,~{RESET}*%
%TO.N,unconnected-(A1-~{RESET}-Pad3)*%
X207470000Y-62890000D03*
%TO.P,A1,4,GND*%
%TO.N,GND*%
X204930000Y-62890000D03*
%TO.P,A1,5,D2*%
%TO.N,unconnected-(A1-D2-Pad5)*%
X202390000Y-62890000D03*
%TO.P,A1,6,D3*%
%TO.N,unconnected-(A1-D3-Pad6)*%
X199850000Y-62890000D03*
%TO.P,A1,7,D4*%
%TO.N,unconnected-(A1-D4-Pad7)*%
X197310000Y-62890000D03*
%TO.P,A1,8,D5*%
%TO.N,unconnected-(A1-D5-Pad8)*%
X194770000Y-62890000D03*
%TO.P,A1,9,D6*%
%TO.N,unconnected-(A1-D6-Pad9)*%
X192230000Y-62890000D03*
%TO.P,A1,10,D7*%
%TO.N,unconnected-(A1-D7-Pad10)*%
X189690000Y-62890000D03*
%TO.P,A1,11,D8*%
%TO.N,unconnected-(A1-D8-Pad11)*%
X187150000Y-62890000D03*
%TO.P,A1,12,D9*%
%TO.N,/PWM_A*%
X184610000Y-62890000D03*
%TO.P,A1,13,D10*%
%TO.N,/PWM_B*%
X182070000Y-62890000D03*
%TO.P,A1,14,D11*%
%TO.N,unconnected-(A1-D11-Pad14)*%
X179530000Y-62890000D03*
%TO.P,A1,15,D12*%
%TO.N,unconnected-(A1-D12-Pad15)*%
X176990000Y-62890000D03*
%TO.P,A1,16,D13*%
%TO.N,unconnected-(A1-D13-Pad16)*%
X176990000Y-78130000D03*
%TO.P,A1,17,3V3*%
%TO.N,+3.3V*%
X179530000Y-78130000D03*
%TO.P,A1,18,AREF*%
%TO.N,unconnected-(A1-AREF-Pad18)*%
X182070000Y-78130000D03*
%TO.P,A1,19,A0*%
%TO.N,unconnected-(A1-A0-Pad19)*%
X184610000Y-78130000D03*
%TO.P,A1,20,A1*%
%TO.N,unconnected-(A1-A1-Pad20)*%
X187150000Y-78130000D03*
%TO.P,A1,21,A2*%
%TO.N,unconnected-(A1-A2-Pad21)*%
X189690000Y-78130000D03*
%TO.P,A1,22,A3*%
%TO.N,unconnected-(A1-A3-Pad22)*%
X192230000Y-78130000D03*
%TO.P,A1,23,A4*%
%TO.N,/SDA_3V3*%
X194770000Y-78130000D03*
%TO.P,A1,24,A5*%
%TO.N,/SCL_3V3*%
X197310000Y-78130000D03*
%TO.P,A1,25,A6*%
%TO.N,unconnected-(A1-A6-Pad25)*%
X199850000Y-78130000D03*
%TO.P,A1,26,A7*%
%TO.N,unconnected-(A1-A7-Pad26)*%
X202390000Y-78130000D03*
%TO.P,A1,27,+5V*%
%TO.N,+5V*%
X204930000Y-78130000D03*
%TO.P,A1,28,~{RESET}*%
%TO.N,unconnected-(A1-~{RESET}-Pad28)*%
X207470000Y-78130000D03*
%TO.P,A1,29,GND*%
%TO.N,GND*%
X210010000Y-78130000D03*
%TO.P,A1,30,VIN*%
%TO.N,unconnected-(A1-VIN-Pad30)*%
X212550000Y-78130000D03*
%TD*%
D12*
%TO.P,GND1,1,1*%
%TO.N,GND*%
X213000000Y-84000000D03*
%TD*%
%TO.P,SERVO_5V1,1,1*%
%TO.N,/SERVO 5V NET*%
X184140000Y-92360000D03*
%TD*%
D13*
%TO.P,Screw Header,1,Pin_1*%
%TO.N,GND*%
X203032500Y-91750000D03*
D14*
%TO.P,Screw Header,2,Pin_2*%
%TO.N,/SERVO 5V NET*%
X203032500Y-96750000D03*
%TD*%
D12*
%TO.P,SCL1,1,1*%
%TO.N,/SCL_3V3*%
X191270000Y-83590000D03*
%TD*%
%TO.P,5V_USB1,1,1*%
%TO.N,+5V*%
X205500000Y-84000000D03*
%TD*%
%TO.P,3V3,1,1*%
%TO.N,+3.3V*%
X177870000Y-92360000D03*
%TD*%
D15*
%TO.P,J1,1,Pin_1*%
%TO.N,/PWM_A*%
X192960000Y-97540000D03*
D16*
%TO.P,J1,2,Pin_2*%
%TO.N,/PWM_B*%
X190420000Y-97540000D03*
%TO.P,J1,3,Pin_3*%
%TO.N,/SERVO 5V NET*%
X192960000Y-95000000D03*
%TO.P,J1,4,Pin_4*%
X190420000Y-95000000D03*
%TO.P,J1,5,Pin_5*%
%TO.N,GND*%
X192960000Y-92460000D03*
%TO.P,J1,6,Pin_6*%
X190420000Y-92460000D03*
%TD*%
D12*
%TO.P,SDA1,1,1*%
%TO.N,/SDA_3V3*%
X184000000Y-88190000D03*
%TD*%
D17*
%TO.N,+3.3V*%
X199880000Y-80680000D03*
%TO.N,/SCL_3V3*%
X182960000Y-85210000D03*
X197020000Y-80710000D03*
%TO.N,/PWM_A*%
X193650000Y-85320000D03*
X196060000Y-90850000D03*
%TO.N,GND*%
X216960000Y-96460000D03*
X196600000Y-60800000D03*
X187120000Y-91350000D03*
X171960000Y-87160000D03*
X209370000Y-68720000D03*
X202790000Y-99780000D03*
X216860000Y-93390000D03*
X172320000Y-65170000D03*
X190930000Y-71370000D03*
X172690000Y-60740000D03*
X202140000Y-67250000D03*
X209330000Y-85500000D03*
X185000000Y-65690000D03*
X217010000Y-71370000D03*
X214340000Y-80520000D03*
X187060000Y-93550000D03*
X184160000Y-60770000D03*
X172420000Y-69900000D03*
X176960000Y-68060000D03*
X202170000Y-87020000D03*
X211570000Y-60670000D03*
X178600000Y-60560000D03*
X177330000Y-75470000D03*
X215950000Y-60680000D03*
X195100000Y-75030000D03*
X185100000Y-99880000D03*
X190980000Y-81530000D03*
X190510000Y-66580000D03*
X181840000Y-65620000D03*
X216840000Y-99670000D03*
X184270000Y-81930000D03*
X187180000Y-83410000D03*
X177900000Y-94950000D03*
X207640000Y-60680000D03*
X216960000Y-90450000D03*
X210650000Y-72020000D03*
X194110000Y-99920000D03*
X202850000Y-80500000D03*
X217010000Y-65050000D03*
X213880000Y-75070000D03*
X201220000Y-83100000D03*
X179260000Y-99390000D03*
X196300000Y-68320000D03*
X202320000Y-60820000D03*
X189850000Y-100010000D03*
X191760000Y-89850000D03*
X198390000Y-99910000D03*
X217020000Y-76420000D03*
X190860000Y-60740000D03*
X183680000Y-70950000D03*
X207720000Y-99740000D03*
X171040000Y-96830000D03*
X212190000Y-99810000D03*
X172170000Y-74120000D03*
X179870000Y-72220000D03*
X216980000Y-82310000D03*
X214520000Y-66080000D03*
X216800000Y-86710000D03*
X194960000Y-71340000D03*
X171240000Y-91530000D03*
X172020000Y-78350000D03*
X203620000Y-73000000D03*
X175290000Y-90630000D03*
X172060000Y-82920000D03*
X173910000Y-99210000D03*
X209320000Y-93980000D03*
%TO.N,/PWM_B*%
X180650000Y-80550000D03*
%TD*%
D18*
%TO.N,+3.3V*%
X179510000Y-78150000D02*
X179530000Y-78130000D01*
X179510000Y-78150000D02*
X179510000Y-78290000D01*
X181509000Y-80109000D02*
X199309000Y-80109000D01*
X199309000Y-80109000D02*
X199880000Y-80680000D01*
X179530000Y-78130000D02*
X181509000Y-80109000D01*
%TO.N,/SCL_3V3*%
X189330000Y-83590000D02*
X191270000Y-83590000D01*
X194140000Y-83590000D02*
X191270000Y-83590000D01*
X182960000Y-85210000D02*
X183110000Y-85360000D01*
X183110000Y-85360000D02*
X187560000Y-85360000D01*
X187560000Y-85360000D02*
X189330000Y-83590000D01*
X197020000Y-80710000D02*
X194140000Y-83590000D01*
%TO.N,/PWM_A*%
X196060000Y-87730000D02*
X193650000Y-85320000D01*
X196060000Y-90850000D02*
X196060000Y-87730000D01*
%TO.N,/PWM_B*%
X178429000Y-66531000D02*
X182070000Y-62890000D01*
X178429000Y-78586050D02*
X178429000Y-66531000D01*
X180392950Y-80550000D02*
X178429000Y-78586050D01*
X180650000Y-80550000D02*
X180392950Y-80550000D01*
%TO.N,/SERVO 5V NET*%
X187780000Y-92360000D02*
X190420000Y-95000000D01*
X184140000Y-92360000D02*
X187780000Y-92360000D01*
X192960000Y-95000000D02*
X194710000Y-96750000D01*
X190420000Y-95000000D02*
X192960000Y-95000000D01*
X194710000Y-96750000D02*
X203032500Y-96750000D01*
%TD*%
%TA.AperFunction,Conductor*%
%TO.N,GND*%
G36*
X192494075Y-92652993D02*
G01*
X192559901Y-92767007D01*
X192652993Y-92860099D01*
X192767007Y-92925925D01*
X192830590Y-92942962D01*
X192198282Y-93575269D01*
X192198282Y-93575270D01*
X192252452Y-93614626D01*
X192252451Y-93614626D01*
X192261495Y-93619234D01*
X192312292Y-93667208D01*
X192329087Y-93735029D01*
X192306550Y-93801164D01*
X192261499Y-93840202D01*
X192252182Y-93844949D01*
X192080213Y-93969890D01*
X191929890Y-94120213D01*
X191804949Y-94292182D01*
X191800484Y-94300946D01*
X191752509Y-94351742D01*
X191684688Y-94368536D01*
X191618553Y-94345998D01*
X191579516Y-94300946D01*
X191575050Y-94292182D01*
X191450109Y-94120213D01*
X191299786Y-93969890D01*
X191127817Y-93844949D01*
X191118504Y-93840204D01*
X191067707Y-93792230D01*
X191050912Y-93724409D01*
X191073449Y-93658274D01*
X191118507Y-93619232D01*
X191127555Y-93614622D01*
X191181716Y-93575270D01*
X191181717Y-93575270D01*
X190549408Y-92942962D01*
X190612993Y-92925925D01*
X190727007Y-92860099D01*
X190820099Y-92767007D01*
X190885925Y-92652993D01*
X190902962Y-92589408D01*
X191535270Y-93221717D01*
X191535270Y-93221716D01*
X191574622Y-93167554D01*
X191579514Y-93157954D01*
X191627488Y-93107157D01*
X191695308Y-93090361D01*
X191761444Y-93112897D01*
X191800486Y-93157954D01*
X191805375Y-93167550D01*
X191844728Y-93221716D01*
X192477037Y-92589408D01*
X192494075Y-92652993D01*
G37*
%TD.AperFunction*%
%TA.AperFunction,Conductor*%
G36*
X217375553Y-60200239D02*
G01*
X217442583Y-60219952D01*
X217488316Y-60272775D01*
X217499500Y-60324239D01*
X217499500Y-100375500D01*
X217479815Y-100442539D01*
X217427011Y-100488294D01*
X217375500Y-100499500D01*
X170624500Y-100499500D01*
X170557461Y-100479815D01*
X170511706Y-100427011D01*
X170500500Y-100375500D01*
X170500500Y-91312135D01*
X176369500Y-91312135D01*
X176369500Y-93407870D01*
X176369501Y-93407876D01*
X176375908Y-93467483D01*
X176426202Y-93602328D01*
X176426206Y-93602335D01*
X176512452Y-93717544D01*
X176512455Y-93717547D01*
X176627664Y-93803793D01*
X176627671Y-93803797D01*
X176762517Y-93854091D01*
X176762516Y-93854091D01*
X176769444Y-93854835D01*
X176822127Y-93860500D01*
X178917872Y-93860499D01*
X178977483Y-93854091D01*
X179112331Y-93803796D01*
X179227546Y-93717546D01*
X179313796Y-93602331D01*
X179364091Y-93467483D01*
X179370500Y-93407873D01*
X179370499Y-91312135D01*
X182639500Y-91312135D01*
X182639500Y-93407870D01*
X182639501Y-93407876D01*
X182645908Y-93467483D01*
X182696202Y-93602328D01*
X182696206Y-93602335D01*
X182782452Y-93717544D01*
X182782455Y-93717547D01*
X182897664Y-93803793D01*
X182897671Y-93803797D01*
X183032517Y-93854091D01*
X183032516Y-93854091D01*
X183039444Y-93854835D01*
X183092127Y-93860500D01*
X185187872Y-93860499D01*
X185247483Y-93854091D01*
X185382331Y-93803796D01*
X185497546Y-93717546D01*
X185583796Y-93602331D01*
X185634091Y-93467483D01*
X185640500Y-93407873D01*
X185640500Y-93084500D01*
X185660185Y-93017461D01*
X185712989Y-92971706D01*
X185764500Y-92960500D01*
X187479903Y-92960500D01*
X187546942Y-92980185D01*
X187567584Y-92996819D01*
X189086241Y-94515476D01*
X189119726Y-94576799D01*
X189116492Y-94641473D01*
X189102753Y-94683757D01*
X189069500Y-94893713D01*
X189069500Y-95106286D01*
X189102753Y-95316239D01*
X189102753Y-95316241D01*
X189102754Y-95316243D01*
X189157431Y-95484522D01*
X189168444Y-95518414D01*
X189264951Y-95707820D01*
X189389890Y-95879786D01*
X189540213Y-96030109D01*
X189712182Y-96155050D01*
X189720946Y-96159516D01*
X189771742Y-96207491D01*
X189788536Y-96275312D01*
X189765998Y-96341447D01*
X189720946Y-96380484D01*
X189712182Y-96384949D01*
X189540213Y-96509890D01*
X189389890Y-96660213D01*
X189264951Y-96832179D01*
X189168444Y-97021585D01*
X189102753Y-97223760D01*
X189069500Y-97433713D01*
X189069500Y-97646286D01*
X189081609Y-97722743D01*
X189102754Y-97856243D01*
X189163088Y-98041932D01*
X189168444Y-98058414D01*
X189264951Y-98247820D01*
X189389890Y-98419786D01*
X189540213Y-98570109D01*
X189712179Y-98695048D01*
X189712181Y-98695049D01*
X189712184Y-98695051D01*
X189901588Y-98791557D01*
X190103757Y-98857246D01*
X190313713Y-98890500D01*
X190313714Y-98890500D01*
X190526286Y-98890500D01*
X190526287Y-98890500D01*
X190736243Y-98857246D01*
X190938412Y-98791557D01*
X191127816Y-98695051D01*
X191299792Y-98570104D01*
X191413329Y-98456566D01*
X191474648Y-98423084D01*
X191544340Y-98428068D01*
X191600274Y-98469939D01*
X191617189Y-98500917D01*
X191666202Y-98632328D01*
X191666206Y-98632335D01*
X191752452Y-98747544D01*
X191752455Y-98747547D01*
X191867664Y-98833793D01*
X191867671Y-98833797D01*
X192002517Y-98884091D01*
X192002516Y-98884091D01*
X192009444Y-98884835D01*
X192062127Y-98890500D01*
X193857872Y-98890499D01*
X193917483Y-98884091D01*
X194052331Y-98833796D01*
X194167546Y-98747546D01*
X194253796Y-98632331D01*
X194304091Y-98497483D01*
X194310500Y-98437873D01*
X194310499Y-97425684D01*
X194330183Y-97358646D01*
X194382987Y-97312891D01*
X194452146Y-97302947D01*
X194470247Y-97307913D01*
X194470366Y-97307473D01*
X194478214Y-97309575D01*
X194478216Y-97309577D01*
X194630943Y-97350501D01*
X194630945Y-97350501D01*
X194796654Y-97350501D01*
X194796670Y-97350500D01*
X201141295Y-97350500D01*
X201208334Y-97370185D01*
X201254089Y-97422989D01*
X201255856Y-97427048D01*
X201324330Y-97592361D01*
X201324337Y-97592376D01*
X201448900Y-97808126D01*
X201600560Y-98005774D01*
X201600566Y-98005781D01*
X201776718Y-98181933D01*
X201776725Y-98181939D01*
X201974373Y-98333599D01*
X202190123Y-98458162D01*
X202190138Y-98458169D01*
X202218554Y-98469939D01*
X202420293Y-98553502D01*
X202660935Y-98617982D01*
X202907935Y-98650500D01*
X202907942Y-98650500D01*
X203157058Y-98650500D01*
X203157065Y-98650500D01*
X203404065Y-98617982D01*
X203644707Y-98553502D01*
X203874873Y-98458164D01*
X204090627Y-98333599D01*
X204288276Y-98181938D01*
X204464438Y-98005776D01*
X204616099Y-97808127D01*
X204740664Y-97592373D01*
X204836002Y-97362207D01*
X204900482Y-97121565D01*
X204933000Y-96874565D01*
X204933000Y-96625435D01*
X204900518Y-96378711D01*
X212149500Y-96378711D01*
X212149500Y-96621288D01*
X212177263Y-96832179D01*
X212181162Y-96861789D01*
X212212554Y-96978944D01*
X212243947Y-97096104D01*
X212336773Y-97320205D01*
X212336776Y-97320212D01*
X212458064Y-97530289D01*
X212458066Y-97530292D01*
X212458067Y-97530293D01*
X212605733Y-97722736D01*
X212605739Y-97722743D01*
X212777256Y-97894260D01*
X212777262Y-97894265D01*
X212969711Y-98041936D01*
X213179788Y-98163224D01*
X213403900Y-98256054D01*
X213638211Y-98318838D01*
X213818586Y-98342584D01*
X213878711Y-98350500D01*
X213878712Y-98350500D01*
X214121289Y-98350500D01*
X214169388Y-98344167D01*
X214361789Y-98318838D01*
X214596100Y-98256054D01*
X214820212Y-98163224D01*
X215030289Y-98041936D01*
X215222738Y-97894265D01*
X215394265Y-97722738D01*
X215541936Y-97530289D01*
X215663224Y-97320212D01*
X215756054Y-97096100D01*
X215818838Y-96861789D01*
X215850500Y-96621288D01*
X215850500Y-96378712D01*
X215818838Y-96138211D01*
X215756054Y-95903900D01*
X215663224Y-95679788D01*
X215541936Y-95469711D01*
X215394265Y-95277262D01*
X215394260Y-95277256D01*
X215222743Y-95105739D01*
X215222736Y-95105733D01*
X215030293Y-94958067D01*
X215030292Y-94958066D01*
X215030289Y-94958064D01*
X214820212Y-94836776D01*
X214820205Y-94836773D01*
X214596104Y-94743947D01*
X214371485Y-94683760D01*
X214361789Y-94681162D01*
X214361788Y-94681161D01*
X214361785Y-94681161D01*
X214121289Y-94649500D01*
X214121288Y-94649500D01*
X213878712Y-94649500D01*
X213878711Y-94649500D01*
X213638214Y-94681161D01*
X213403895Y-94743947D01*
X213179794Y-94836773D01*
X213179785Y-94836777D01*
X212969706Y-94958067D01*
X212777263Y-95105733D01*
X212777256Y-95105739D01*
X212605739Y-95277256D01*
X212605733Y-95277263D01*
X212458067Y-95469706D01*
X212336777Y-95679785D01*
X212336773Y-95679794D01*
X212243947Y-95903895D01*
X212181161Y-96138214D01*
X212149500Y-96378711D01*
X204900518Y-96378711D01*
X204900482Y-96378435D01*
X204836002Y-96137793D01*
X204740664Y-95907627D01*
X204738512Y-95903900D01*
X204616099Y-95691873D01*
X204464439Y-95494225D01*
X204464433Y-95494218D01*
X204288281Y-95318066D01*
X204288274Y-95318060D01*
X204090626Y-95166400D01*
X203874876Y-95041837D01*
X203874861Y-95041830D01*
X203644707Y-94946498D01*
X203404061Y-94882017D01*
X203157075Y-94849501D01*
X203157070Y-94849500D01*
X203157065Y-94849500D01*
X202907935Y-94849500D01*
X202907929Y-94849500D01*
X202907924Y-94849501D01*
X202660938Y-94882017D01*
X202420292Y-94946498D01*
X202190138Y-95041830D01*
X202190123Y-95041837D01*
X201974373Y-95166400D01*
X201776725Y-95318060D01*
X201776718Y-95318066D01*
X201600566Y-95494218D01*
X201600560Y-95494225D01*
X201448900Y-95691873D01*
X201324337Y-95907623D01*
X201324330Y-95907638D01*
X201255856Y-96072952D01*
X201212015Y-96127356D01*
X201145721Y-96149421D01*
X201141295Y-96149500D01*
X195010098Y-96149500D01*
X194943059Y-96129815D01*
X194922417Y-96113181D01*
X194293757Y-95484522D01*
X194260272Y-95423199D01*
X194263507Y-95358523D01*
X194277246Y-95316243D01*
X194310500Y-95106287D01*
X194310500Y-94893713D01*
X194277246Y-94683757D01*
X194211557Y-94481588D01*
X194115051Y-94292184D01*
X194115049Y-94292181D01*
X194115048Y-94292179D01*
X193990109Y-94120213D01*
X193839786Y-93969890D01*
X193667817Y-93844949D01*
X193658504Y-93840204D01*
X193607707Y-93792230D01*
X193590912Y-93724409D01*
X193613449Y-93658274D01*
X193658507Y-93619232D01*
X193667555Y-93614622D01*
X193721716Y-93575270D01*
X193721717Y-93575270D01*
X193089408Y-92942962D01*
X193152993Y-92925925D01*
X193267007Y-92860099D01*
X193360099Y-92767007D01*
X193425925Y-92652993D01*
X193442962Y-92589408D01*
X194075270Y-93221717D01*
X194075270Y-93221716D01*
X194114622Y-93167554D01*
X194211095Y-92978217D01*
X194276757Y-92776130D01*
X194276757Y-92776127D01*
X194310000Y-92566246D01*
X194310000Y-92353753D01*
X194276757Y-92143872D01*
X194276757Y-92143869D01*
X194225773Y-91986956D01*
X194211095Y-91941782D01*
X194114624Y-91752449D01*
X194075270Y-91698282D01*
X194075269Y-91698282D01*
X193442962Y-92330590D01*
X193425925Y-92267007D01*
X193360099Y-92152993D01*
X193267007Y-92059901D01*
X193152993Y-91994075D01*
X193089409Y-91977037D01*
X193721716Y-91344728D01*
X193667550Y-91305375D01*
X193478217Y-91208904D01*
X193276129Y-91143242D01*
X193066246Y-91110000D01*
X192853754Y-91110000D01*
X192643872Y-91143242D01*
X192643869Y-91143242D01*
X192441782Y-91208904D01*
X192252439Y-91305380D01*
X192198282Y-91344727D01*
X192198282Y-91344728D01*
X192830591Y-91977037D01*
X192767007Y-91994075D01*
X192652993Y-92059901D01*
X192559901Y-92152993D01*
X192494075Y-92267007D01*
X192477037Y-92330591D01*
X191844728Y-91698282D01*
X191844727Y-91698282D01*
X191805380Y-91752440D01*
X191800483Y-91762051D01*
X191752506Y-91812845D01*
X191684684Y-91829638D01*
X191618550Y-91807098D01*
X191579516Y-91762048D01*
X191574626Y-91752452D01*
X191535270Y-91698282D01*
X191535269Y-91698282D01*
X190902962Y-92330590D01*
X190885925Y-92267007D01*
X190820099Y-92152993D01*
X190727007Y-92059901D01*
X190612993Y-91994075D01*
X190549409Y-91977037D01*
X191181716Y-91344728D01*
X191127550Y-91305375D01*
X190938217Y-91208904D01*
X190736129Y-91143242D01*
X190526246Y-91110000D01*
X190313754Y-91110000D01*
X190103872Y-91143242D01*
X190103869Y-91143242D01*
X189901782Y-91208904D01*
X189712439Y-91305380D01*
X189658282Y-91344727D01*
X189658282Y-91344728D01*
X190290591Y-91977037D01*
X190227007Y-91994075D01*
X190112993Y-92059901D01*
X190019901Y-92152993D01*
X189954075Y-92267007D01*
X189937037Y-92330591D01*
X189304728Y-91698282D01*
X189304727Y-91698282D01*
X189265380Y-91752439D01*
X189168904Y-91941782D01*
X189103242Y-92143869D01*
X189103242Y-92143872D01*
X189070000Y-92353753D01*
X189070000Y-92501403D01*
X189050315Y-92568442D01*
X188997511Y-92614197D01*
X188928353Y-92624141D01*
X188864797Y-92595116D01*
X188858319Y-92589084D01*
X188267590Y-91998355D01*
X188267588Y-91998352D01*
X188148717Y-91879481D01*
X188148716Y-91879480D01*
X188061904Y-91829360D01*
X188061904Y-91829359D01*
X188061900Y-91829358D01*
X188011785Y-91800423D01*
X187859057Y-91759499D01*
X187700943Y-91759499D01*
X187693347Y-91759499D01*
X187693331Y-91759500D01*
X185764499Y-91759500D01*
X185755813Y-91756949D01*
X185746852Y-91758238D01*
X185722811Y-91747259D01*
X185697460Y-91739815D01*
X185691532Y-91732974D01*
X185683296Y-91729213D01*
X185669006Y-91706978D01*
X185651705Y-91687011D01*
X185649417Y-91676496D01*
X185645522Y-91670435D01*
X185640499Y-91635500D01*
X185640499Y-91312129D01*
X185640498Y-91312123D01*
X185640497Y-91312116D01*
X185634091Y-91252517D01*
X185625386Y-91229179D01*
X185583797Y-91117671D01*
X185583793Y-91117664D01*
X185497547Y-91002455D01*
X185497544Y-91002452D01*
X185382335Y-90916206D01*
X185382328Y-90916202D01*
X185247482Y-90865908D01*
X185247483Y-90865908D01*
X185187883Y-90859501D01*
X185187881Y-90859500D01*
X185187873Y-90859500D01*
X185187864Y-90859500D01*
X183092129Y-90859500D01*
X183092123Y-90859501D01*
X183032516Y-90865908D01*
X182897671Y-90916202D01*
X182897664Y-90916206D01*
X182782455Y-91002452D01*
X182782452Y-91002455D01*
X182696206Y-91117664D01*
X182696202Y-91117671D01*
X182645908Y-91252517D01*
X182640226Y-91305375D01*
X182639501Y-91312123D01*
X182639500Y-91312135D01*
X179370499Y-91312135D01*
X179370499Y-91312128D01*
X179364091Y-91252517D01*
X179355386Y-91229179D01*
X179313797Y-91117671D01*
X179313793Y-91117664D01*
X179227547Y-91002455D01*
X179227544Y-91002452D01*
X179112335Y-90916206D01*
X179112328Y-90916202D01*
X178977482Y-90865908D01*
X178977483Y-90865908D01*
X178917883Y-90859501D01*
X178917881Y-90859500D01*
X178917873Y-90859500D01*
X178917864Y-90859500D01*
X176822129Y-90859500D01*
X176822123Y-90859501D01*
X176762516Y-90865908D01*
X176627671Y-90916202D01*
X176627664Y-90916206D01*
X176512455Y-91002452D01*
X176512452Y-91002455D01*
X176426206Y-91117664D01*
X176426202Y-91117671D01*
X176375908Y-91252517D01*
X176370226Y-91305375D01*
X176369501Y-91312123D01*
X176369500Y-91312135D01*
X170500500Y-91312135D01*
X170500500Y-87142135D01*
X182499500Y-87142135D01*
X182499500Y-89237870D01*
X182499501Y-89237876D01*
X182505908Y-89297483D01*
X182556202Y-89432328D01*
X182556206Y-89432335D01*
X182642452Y-89547544D01*
X182642455Y-89547547D01*
X182757664Y-89633793D01*
X182757671Y-89633797D01*
X182892517Y-89684091D01*
X182892516Y-89684091D01*
X182899444Y-89684835D01*
X182952127Y-89690500D01*
X185047872Y-89690499D01*
X185107483Y-89684091D01*
X185242331Y-89633796D01*
X185357546Y-89547546D01*
X185443796Y-89432331D01*
X185494091Y-89297483D01*
X185500500Y-89237873D01*
X185500499Y-87142128D01*
X185494091Y-87082517D01*
X185443796Y-86947669D01*
X185443795Y-86947668D01*
X185443793Y-86947664D01*
X185357547Y-86832455D01*
X185357544Y-86832452D01*
X185242335Y-86746206D01*
X185242328Y-86746202D01*
X185107482Y-86695908D01*
X185107483Y-86695908D01*
X185047883Y-86689501D01*
X185047881Y-86689500D01*
X185047873Y-86689500D01*
X185047864Y-86689500D01*
X182952129Y-86689500D01*
X182952123Y-86689501D01*
X182892516Y-86695908D01*
X182757671Y-86746202D01*
X182757664Y-86746206D01*
X182642455Y-86832452D01*
X182642452Y-86832455D01*
X182556206Y-86947664D01*
X182556202Y-86947671D01*
X182505908Y-87082517D01*
X182499501Y-87142116D01*
X182499501Y-87142123D01*
X182499500Y-87142135D01*
X170500500Y-87142135D01*
X170500500Y-84878711D01*
X173149500Y-84878711D01*
X173149500Y-85121288D01*
X173180603Y-85357547D01*
X173181162Y-85361789D01*
X173203016Y-85443350D01*
X173243947Y-85596104D01*
X173295388Y-85720292D01*
X173336776Y-85820212D01*
X173458064Y-86030289D01*
X173458066Y-86030292D01*
X173458067Y-86030293D01*
X173605733Y-86222736D01*
X173605739Y-86222743D01*
X173777256Y-86394260D01*
X173777262Y-86394265D01*
X173969711Y-86541936D01*
X174179788Y-86663224D01*
X174403900Y-86756054D01*
X174638211Y-86818838D01*
X174818586Y-86842584D01*
X174878711Y-86850500D01*
X174878712Y-86850500D01*
X175121289Y-86850500D01*
X175169388Y-86844167D01*
X175361789Y-86818838D01*
X175596100Y-86756054D01*
X175820212Y-86663224D01*
X176030289Y-86541936D01*
X176222738Y-86394265D01*
X176394265Y-86222738D01*
X176541936Y-86030289D01*
X176663224Y-85820212D01*
X176756054Y-85596100D01*
X176818838Y-85361789D01*
X176850500Y-85121288D01*
X176850500Y-84878712D01*
X176818838Y-84638211D01*
X176756054Y-84403900D01*
X176663224Y-84179788D01*
X176541936Y-83969711D01*
X176394265Y-83777262D01*
X176394260Y-83777256D01*
X176222743Y-83605739D01*
X176222736Y-83605733D01*
X176030293Y-83458067D01*
X176030292Y-83458066D01*
X176030289Y-83458064D01*
X175820212Y-83336776D01*
X175820205Y-83336773D01*
X175596104Y-83243947D01*
X175361785Y-83181161D01*
X175121289Y-83149500D01*
X175121288Y-83149500D01*
X174878712Y-83149500D01*
X174878711Y-83149500D01*
X174638214Y-83181161D01*
X174403895Y-83243947D01*
X174179794Y-83336773D01*
X174179785Y-83336777D01*
X173969706Y-83458067D01*
X173777263Y-83605733D01*
X173777256Y-83605739D01*
X173605739Y-83777256D01*
X173605733Y-83777263D01*
X173458067Y-83969706D01*
X173336777Y-84179785D01*
X173336773Y-84179794D01*
X173243947Y-84403895D01*
X173181161Y-84638214D01*
X173149500Y-84878711D01*
X170500500Y-84878711D01*
X170500500Y-62787648D01*
X175689500Y-62787648D01*
X175689500Y-62992351D01*
X175721522Y-63194534D01*
X175784781Y-63389223D01*
X175877715Y-63571613D01*
X175998028Y-63737213D01*
X176142786Y-63881971D01*
X176297749Y-63994556D01*
X176308390Y-64002287D01*
X176397212Y-64047544D01*
X176490776Y-64095218D01*
X176490778Y-64095218D01*
X176490781Y-64095220D01*
X176595137Y-64129127D01*
X176685465Y-64158477D01*
X176786557Y-64174488D01*
X176887648Y-64190500D01*
X176887649Y-64190500D01*
X177092351Y-64190500D01*
X177092352Y-64190500D01*
X177294534Y-64158477D01*
X177489219Y-64095220D01*
X177671610Y-64002287D01*
X177767901Y-63932328D01*
X177837213Y-63881971D01*
X177837215Y-63881968D01*
X177837219Y-63881966D01*
X177981966Y-63737219D01*
X177981968Y-63737215D01*
X177981971Y-63737213D01*
X178102284Y-63571614D01*
X178102286Y-63571611D01*
X178102287Y-63571610D01*
X178149516Y-63478917D01*
X178197489Y-63428123D01*
X178265310Y-63411328D01*
X178331445Y-63433865D01*
X178370485Y-63478919D01*
X178417715Y-63571614D01*
X178538028Y-63737213D01*
X178682786Y-63881971D01*
X178837749Y-63994556D01*
X178848390Y-64002287D01*
X178937212Y-64047544D01*
X179030776Y-64095218D01*
X179030778Y-64095218D01*
X179030781Y-64095220D01*
X179135137Y-64129127D01*
X179225465Y-64158477D01*
X179326557Y-64174488D01*
X179427648Y-64190500D01*
X179427649Y-64190500D01*
X179620901Y-64190500D01*
X179687940Y-64210185D01*
X179733695Y-64262989D01*
X179743639Y-64332147D01*
X179714614Y-64395703D01*
X179708582Y-64402181D01*
X178060286Y-66050478D01*
X177948481Y-66162282D01*
X177948479Y-66162285D01*
X177898361Y-66249094D01*
X177898359Y-66249096D01*
X177869425Y-66299209D01*
X177869424Y-66299210D01*
X177869423Y-66299215D01*
X177828499Y-66451943D01*
X177828499Y-66451945D01*
X177828499Y-66620046D01*
X177828500Y-66620059D01*
X177828500Y-76895302D01*
X177808815Y-76962341D01*
X177756011Y-77008096D01*
X177686853Y-77018040D01*
X177648205Y-77005787D01*
X177489223Y-76924782D01*
X177489222Y-76924781D01*
X177489219Y-76924780D01*
X177398495Y-76895302D01*
X177294534Y-76861522D01*
X177119995Y-76833878D01*
X177092352Y-76829500D01*
X176887648Y-76829500D01*
X176863329Y-76833351D01*
X176685465Y-76861522D01*
X176490776Y-76924781D01*
X176308386Y-77017715D01*
X176142786Y-77138028D01*
X175998028Y-77282786D01*
X175877715Y-77448386D01*
X175784781Y-77630776D01*
X175721522Y-77825465D01*
X175689500Y-78027648D01*
X175689500Y-78232351D01*
X175721522Y-78434534D01*
X175784781Y-78629223D01*
X175877715Y-78811613D01*
X175998028Y-78977213D01*
X176142786Y-79121971D01*
X176297749Y-79234556D01*
X176308390Y-79242287D01*
X176370660Y-79274015D01*
X176490776Y-79335218D01*
X176490778Y-79335218D01*
X176490781Y-79335220D01*
X176588137Y-79366853D01*
X176685465Y-79398477D01*
X176786557Y-79414488D01*
X176887648Y-79430500D01*
X176887649Y-79430500D01*
X177092351Y-79430500D01*
X177092352Y-79430500D01*
X177294534Y-79398477D01*
X177489219Y-79335220D01*
X177671610Y-79242287D01*
X177764590Y-79174732D01*
X177837213Y-79121971D01*
X177837215Y-79121968D01*
X177837219Y-79121966D01*
X177888768Y-79070416D01*
X177896703Y-79066083D01*
X177902123Y-79058841D01*
X177926892Y-79049598D01*
X177950090Y-79036931D01*
X177959110Y-79037576D01*
X177967584Y-79034414D01*
X177993415Y-79040029D01*
X178019782Y-79041915D01*
X178028828Y-79047727D01*
X178035859Y-79049256D01*
X178048214Y-79058503D01*
X178048454Y-79058145D01*
X178048457Y-79058147D01*
X178056000Y-79064331D01*
X178064076Y-79070376D01*
X178064116Y-79070401D01*
X178067343Y-79073628D01*
X178067344Y-79073630D01*
X178067349Y-79073635D01*
X178067355Y-79073640D01*
X179967636Y-80973922D01*
X179983057Y-80992712D01*
X180028210Y-81060288D01*
X180028213Y-81060292D01*
X180139707Y-81171786D01*
X180139711Y-81171789D01*
X180270814Y-81259390D01*
X180270827Y-81259397D01*
X180373165Y-81301786D01*
X180416503Y-81319737D01*
X180571153Y-81350499D01*
X180571156Y-81350500D01*
X180571158Y-81350500D01*
X180728844Y-81350500D01*
X180728845Y-81350499D01*
X180883497Y-81319737D01*
X181029179Y-81259394D01*
X181160289Y-81171789D01*
X181271789Y-81060289D01*
X181359394Y-80929179D01*
X181418680Y-80786049D01*
X181431223Y-80770483D01*
X181439527Y-80752300D01*
X181452695Y-80743836D01*
X181462520Y-80731645D01*
X181481487Y-80725331D01*
X181498304Y-80714524D01*
X181525865Y-80710561D01*
X181528814Y-80709580D01*
X181533239Y-80709501D01*
X181588058Y-80709501D01*
X181588061Y-80709500D01*
X181595668Y-80709500D01*
X195871903Y-80709500D01*
X195938942Y-80729185D01*
X195984697Y-80781989D01*
X195994641Y-80851147D01*
X195965616Y-80914703D01*
X195959584Y-80921181D01*
X193927584Y-82953181D01*
X193866261Y-82986666D01*
X193839903Y-82989500D01*
X192894499Y-82989500D01*
X192827460Y-82969815D01*
X192781705Y-82917011D01*
X192770499Y-82865500D01*
X192770499Y-82542129D01*
X192770498Y-82542123D01*
X192770497Y-82542116D01*
X192764091Y-82482517D01*
X192713796Y-82347669D01*
X192713795Y-82347668D01*
X192713793Y-82347664D01*
X192627547Y-82232455D01*
X192627544Y-82232452D01*
X192512335Y-82146206D01*
X192512328Y-82146202D01*
X192377482Y-82095908D01*
X192377483Y-82095908D01*
X192317883Y-82089501D01*
X192317881Y-82089500D01*
X192317873Y-82089500D01*
X192317864Y-82089500D01*
X190222129Y-82089500D01*
X190222123Y-82089501D01*
X190162516Y-82095908D01*
X190027671Y-82146202D01*
X190027664Y-82146206D01*
X189912455Y-82232452D01*
X189912452Y-82232455D01*
X189826206Y-82347664D01*
X189826202Y-82347671D01*
X189775908Y-82482517D01*
X189769501Y-82542116D01*
X189769501Y-82542123D01*
X189769500Y-82542135D01*
X189769500Y-82865500D01*
X189766949Y-82874185D01*
X189768238Y-82883147D01*
X189757259Y-82907187D01*
X189749815Y-82932539D01*
X189742974Y-82938466D01*
X189739213Y-82946703D01*
X189716978Y-82960992D01*
X189697011Y-82978294D01*
X189686496Y-82980581D01*
X189680435Y-82984477D01*
X189645500Y-82989500D01*
X189416669Y-82989500D01*
X189416653Y-82989499D01*
X189409057Y-82989499D01*
X189250943Y-82989499D01*
X189136397Y-83020192D01*
X189098214Y-83030423D01*
X189085182Y-83037948D01*
X189085180Y-83037949D01*
X188961287Y-83109477D01*
X188961282Y-83109481D01*
X188849478Y-83221286D01*
X187347584Y-84723181D01*
X187286261Y-84756666D01*
X187259903Y-84759500D01*
X183688018Y-84759500D01*
X183620979Y-84739815D01*
X183584914Y-84704388D01*
X183581788Y-84699709D01*
X183470292Y-84588213D01*
X183470288Y-84588210D01*
X183339185Y-84500609D01*
X183339172Y-84500602D01*
X183193501Y-84440264D01*
X183193489Y-84440261D01*
X183038845Y-84409500D01*
X183038842Y-84409500D01*
X182881158Y-84409500D01*
X182881155Y-84409500D01*
X182726510Y-84440261D01*
X182726498Y-84440264D01*
X182580827Y-84500602D01*
X182580814Y-84500609D01*
X182449711Y-84588210D01*
X182449707Y-84588213D01*
X182338213Y-84699707D01*
X182338210Y-84699711D01*
X182250609Y-84830814D01*
X182250602Y-84830827D01*
X182190264Y-84976498D01*
X182190261Y-84976510D01*
X182159500Y-85131153D01*
X182159500Y-85288846D01*
X182190261Y-85443489D01*
X182190264Y-85443501D01*
X182250602Y-85589172D01*
X182250609Y-85589185D01*
X182338210Y-85720288D01*
X182338213Y-85720292D01*
X182449707Y-85831786D01*
X182449711Y-85831789D01*
X182580814Y-85919390D01*
X182580827Y-85919397D01*
X182702846Y-85969938D01*
X182726503Y-85979737D01*
X182881153Y-86010499D01*
X182881156Y-86010500D01*
X182881158Y-86010500D01*
X183038844Y-86010500D01*
X183038845Y-86010499D01*
X183115152Y-85995320D01*
X183193488Y-85979739D01*
X183193489Y-85979738D01*
X183193497Y-85979737D01*
X183217155Y-85969937D01*
X183264604Y-85960500D01*
X187473331Y-85960500D01*
X187473347Y-85960501D01*
X187480943Y-85960501D01*
X187639054Y-85960501D01*
X187639057Y-85960501D01*
X187791785Y-85919577D01*
X187841904Y-85890639D01*
X187928716Y-85840520D01*
X188040520Y-85728716D01*
X188040520Y-85728714D01*
X188050728Y-85718507D01*
X188050729Y-85718504D01*
X188528081Y-85241153D01*
X192849500Y-85241153D01*
X192849500Y-85398846D01*
X192880261Y-85553489D01*
X192880264Y-85553501D01*
X192940602Y-85699172D01*
X192940609Y-85699185D01*
X193028210Y-85830288D01*
X193028213Y-85830292D01*
X193139707Y-85941786D01*
X193139711Y-85941789D01*
X193270814Y-86029390D01*
X193270827Y-86029397D01*
X193416498Y-86089735D01*
X193416503Y-86089737D01*
X193481147Y-86102595D01*
X193571849Y-86120638D01*
X193633760Y-86153023D01*
X193635339Y-86154574D01*
X195423181Y-87942416D01*
X195456666Y-88003739D01*
X195459500Y-88030097D01*
X195459500Y-90270234D01*
X195439815Y-90337273D01*
X195438602Y-90339125D01*
X195350609Y-90470814D01*
X195350602Y-90470827D01*
X195290264Y-90616498D01*
X195290261Y-90616510D01*
X195259500Y-90771153D01*
X195259500Y-90928846D01*
X195290261Y-91083489D01*
X195290264Y-91083501D01*
X195350602Y-91229172D01*
X195350609Y-91229185D01*
X195438210Y-91360288D01*
X195438213Y-91360292D01*
X195549707Y-91471786D01*
X195549711Y-91471789D01*
X195680814Y-91559390D01*
X195680827Y-91559397D01*
X195826498Y-91619735D01*
X195826503Y-91619737D01*
X195981153Y-91650499D01*
X195981156Y-91650500D01*
X195981158Y-91650500D01*
X196138844Y-91650500D01*
X196138845Y-91650499D01*
X196293497Y-91619737D01*
X196406166Y-91573067D01*
X196439172Y-91559397D01*
X196439172Y-91559396D01*
X196439179Y-91559394D01*
X196570289Y-91471789D01*
X196681789Y-91360289D01*
X196769394Y-91229179D01*
X196829737Y-91083497D01*
X196860500Y-90928842D01*
X196860500Y-90771158D01*
X196860500Y-90771155D01*
X196860499Y-90771153D01*
X196829738Y-90616510D01*
X196829737Y-90616503D01*
X196802197Y-90550014D01*
X201132500Y-90550014D01*
X201132500Y-91500000D01*
X202432499Y-91500000D01*
X202407479Y-91560402D01*
X202382500Y-91685981D01*
X202382500Y-91814019D01*
X202407479Y-91939598D01*
X202432499Y-92000000D01*
X201132500Y-92000000D01*
X201132500Y-92949985D01*
X201142993Y-93052689D01*
X201142994Y-93052696D01*
X201198141Y-93219118D01*
X201198143Y-93219123D01*
X201290184Y-93368344D01*
X201414155Y-93492315D01*
X201563376Y-93584356D01*
X201563381Y-93584358D01*
X201729803Y-93639505D01*
X201729810Y-93639506D01*
X201832514Y-93649999D01*
X201832527Y-93650000D01*
X202782500Y-93650000D01*
X202782500Y-92350001D01*
X202842902Y-92375021D01*
X202968481Y-92400000D01*
X203096519Y-92400000D01*
X203222098Y-92375021D01*
X203282500Y-92350001D01*
X203282500Y-93650000D01*
X204232473Y-93650000D01*
X204232485Y-93649999D01*
X204335189Y-93639506D01*
X204335196Y-93639505D01*
X204501618Y-93584358D01*
X204501623Y-93584356D01*
X204650844Y-93492315D01*
X204774815Y-93368344D01*
X204866856Y-93219123D01*
X204866858Y-93219118D01*
X204922005Y-93052696D01*
X204922006Y-93052689D01*
X204932499Y-92949985D01*
X204932500Y-92949972D01*
X204932500Y-92000000D01*
X203632501Y-92000000D01*
X203657521Y-91939598D01*
X203682500Y-91814019D01*
X203682500Y-91685981D01*
X203657521Y-91560402D01*
X203632501Y-91500000D01*
X204932500Y-91500000D01*
X204932500Y-90550027D01*
X204932499Y-90550014D01*
X204922006Y-90447310D01*
X204922005Y-90447303D01*
X204866858Y-90280881D01*
X204866856Y-90280876D01*
X204774815Y-90131655D01*
X204650844Y-90007684D01*
X204501623Y-89915643D01*
X204501618Y-89915641D01*
X204335196Y-89860494D01*
X204335189Y-89860493D01*
X204232485Y-89850000D01*
X203282500Y-89850000D01*
X203282500Y-91149998D01*
X203222098Y-91124979D01*
X203096519Y-91100000D01*
X202968481Y-91100000D01*
X202842902Y-91124979D01*
X202782500Y-91149998D01*
X202782500Y-89850000D01*
X201832514Y-89850000D01*
X201729810Y-89860493D01*
X201729803Y-89860494D01*
X201563381Y-89915641D01*
X201563376Y-89915643D01*
X201414155Y-90007684D01*
X201290184Y-90131655D01*
X201198143Y-90280876D01*
X201198141Y-90280881D01*
X201142994Y-90447303D01*
X201142993Y-90447310D01*
X201132500Y-90550014D01*
X196802197Y-90550014D01*
X196769397Y-90470827D01*
X196769390Y-90470814D01*
X196681398Y-90339125D01*
X196660520Y-90272447D01*
X196660500Y-90270234D01*
X196660500Y-87819060D01*
X196660501Y-87819047D01*
X196660501Y-87650944D01*
X196619576Y-87498214D01*
X196619573Y-87498209D01*
X196540524Y-87361290D01*
X196540518Y-87361282D01*
X194484573Y-85305337D01*
X194451088Y-85244014D01*
X194450637Y-85241847D01*
X194423910Y-85107482D01*
X194419737Y-85086503D01*
X194403735Y-85047870D01*
X194359397Y-84940827D01*
X194359390Y-84940814D01*
X194271789Y-84809711D01*
X194271786Y-84809707D01*
X194160292Y-84698213D01*
X194160288Y-84698210D01*
X194029185Y-84610609D01*
X194029172Y-84610602D01*
X193883501Y-84550264D01*
X193883489Y-84550261D01*
X193728845Y-84519500D01*
X193728842Y-84519500D01*
X193571158Y-84519500D01*
X193571155Y-84519500D01*
X193416510Y-84550261D01*
X193416498Y-84550264D01*
X193270827Y-84610602D01*
X193270814Y-84610609D01*
X193139711Y-84698210D01*
X193139707Y-84698213D01*
X193028213Y-84809707D01*
X193028210Y-84809711D01*
X192940609Y-84940814D01*
X192940602Y-84940827D01*
X192880264Y-85086498D01*
X192880261Y-85086510D01*
X192849500Y-85241153D01*
X188528081Y-85241153D01*
X189542416Y-84226819D01*
X189569343Y-84212115D01*
X189595162Y-84195523D01*
X189601362Y-84194631D01*
X189603739Y-84193334D01*
X189630097Y-84190500D01*
X189645501Y-84190500D01*
X189712540Y-84210185D01*
X189758295Y-84262989D01*
X189769501Y-84314500D01*
X189769501Y-84637876D01*
X189775908Y-84697483D01*
X189826202Y-84832328D01*
X189826206Y-84832335D01*
X189912452Y-84947544D01*
X189912455Y-84947547D01*
X190027664Y-85033793D01*
X190027671Y-85033797D01*
X190162517Y-85084091D01*
X190162516Y-85084091D01*
X190169444Y-85084835D01*
X190222127Y-85090500D01*
X192317872Y-85090499D01*
X192377483Y-85084091D01*
X192512331Y-85033796D01*
X192627546Y-84947546D01*
X192713796Y-84832331D01*
X192764091Y-84697483D01*
X192770500Y-84637873D01*
X192770500Y-84314500D01*
X192790185Y-84247461D01*
X192842989Y-84201706D01*
X192894500Y-84190500D01*
X194053331Y-84190500D01*
X194053347Y-84190501D01*
X194060943Y-84190501D01*
X194219054Y-84190501D01*
X194219057Y-84190501D01*
X194371785Y-84149577D01*
X194421904Y-84120639D01*
X194508716Y-84070520D01*
X194620520Y-83958716D01*
X194620520Y-83958714D01*
X194630728Y-83948507D01*
X194630729Y-83948504D01*
X195627098Y-82952135D01*
X203999500Y-82952135D01*
X203999500Y-85047870D01*
X203999501Y-85047876D01*
X204005908Y-85107483D01*
X204056202Y-85242328D01*
X204056206Y-85242335D01*
X204142452Y-85357544D01*
X204142455Y-85357547D01*
X204257664Y-85443793D01*
X204257671Y-85443797D01*
X204392517Y-85494091D01*
X204392516Y-85494091D01*
X204399444Y-85494835D01*
X204452127Y-85500500D01*
X206547872Y-85500499D01*
X206607483Y-85494091D01*
X206742331Y-85443796D01*
X206857546Y-85357546D01*
X206943796Y-85242331D01*
X206994091Y-85107483D01*
X207000500Y-85047873D01*
X207000499Y-83969711D01*
X207000499Y-82952155D01*
X211500000Y-82952155D01*
X211500000Y-83750000D01*
X212566988Y-83750000D01*
X212534075Y-83807007D01*
X212500000Y-83934174D01*
X212500000Y-84065826D01*
X212534075Y-84192993D01*
X212566988Y-84250000D01*
X211500000Y-84250000D01*
X211500000Y-85047844D01*
X211506401Y-85107372D01*
X211506403Y-85107379D01*
X211556645Y-85242086D01*
X211556649Y-85242093D01*
X211642809Y-85357187D01*
X211642812Y-85357190D01*
X211757906Y-85443350D01*
X211757913Y-85443354D01*
X211892620Y-85493596D01*
X211892627Y-85493598D01*
X211952155Y-85499999D01*
X211952172Y-85500000D01*
X212750000Y-85500000D01*
X212750000Y-84433012D01*
X212807007Y-84465925D01*
X212934174Y-84500000D01*
X213065826Y-84500000D01*
X213192993Y-84465925D01*
X213250000Y-84433012D01*
X213250000Y-85500000D01*
X214047828Y-85500000D01*
X214047844Y-85499999D01*
X214107372Y-85493598D01*
X214107379Y-85493596D01*
X214242086Y-85443354D01*
X214242093Y-85443350D01*
X214357187Y-85357190D01*
X214357190Y-85357187D01*
X214443350Y-85242093D01*
X214443354Y-85242086D01*
X214493596Y-85107379D01*
X214493598Y-85107372D01*
X214499999Y-85047844D01*
X214500000Y-85047827D01*
X214500000Y-84250000D01*
X213433012Y-84250000D01*
X213465925Y-84192993D01*
X213500000Y-84065826D01*
X213500000Y-83934174D01*
X213465925Y-83807007D01*
X213433012Y-83750000D01*
X214500000Y-83750000D01*
X214500000Y-82952172D01*
X214499999Y-82952155D01*
X214493598Y-82892627D01*
X214493596Y-82892620D01*
X214443354Y-82757913D01*
X214443350Y-82757906D01*
X214357190Y-82642812D01*
X214357187Y-82642809D01*
X214242093Y-82556649D01*
X214242086Y-82556645D01*
X214107379Y-82506403D01*
X214107372Y-82506401D01*
X214047844Y-82500000D01*
X213250000Y-82500000D01*
X213250000Y-83566988D01*
X213192993Y-83534075D01*
X213065826Y-83500000D01*
X212934174Y-83500000D01*
X212807007Y-83534075D01*
X212750000Y-83566988D01*
X212750000Y-82500000D01*
X211952155Y-82500000D01*
X211892627Y-82506401D01*
X211892620Y-82506403D01*
X211757913Y-82556645D01*
X211757906Y-82556649D01*
X211642812Y-82642809D01*
X211642809Y-82642812D01*
X211556649Y-82757906D01*
X211556645Y-82757913D01*
X211506403Y-82892620D01*
X211506401Y-82892627D01*
X211500000Y-82952155D01*
X207000499Y-82952155D01*
X207000499Y-82952129D01*
X207000498Y-82952123D01*
X207000497Y-82952116D01*
X206994091Y-82892517D01*
X206990596Y-82883147D01*
X206943797Y-82757671D01*
X206943793Y-82757664D01*
X206857547Y-82642455D01*
X206857544Y-82642452D01*
X206742335Y-82556206D01*
X206742328Y-82556202D01*
X206607482Y-82505908D01*
X206607483Y-82505908D01*
X206547883Y-82499501D01*
X206547881Y-82499500D01*
X206547873Y-82499500D01*
X206547864Y-82499500D01*
X204452129Y-82499500D01*
X204452123Y-82499501D01*
X204392516Y-82505908D01*
X204257671Y-82556202D01*
X204257664Y-82556206D01*
X204142455Y-82642452D01*
X204142452Y-82642455D01*
X204056206Y-82757664D01*
X204056202Y-82757671D01*
X204005908Y-82892517D01*
X204000083Y-82946703D01*
X203999501Y-82952123D01*
X203999500Y-82952135D01*
X195627098Y-82952135D01*
X197034662Y-81544572D01*
X197095983Y-81511089D01*
X197098150Y-81510638D01*
X197156085Y-81499113D01*
X197253497Y-81479737D01*
X197399179Y-81419394D01*
X197530289Y-81331789D01*
X197641789Y-81220289D01*
X197729394Y-81089179D01*
X197789737Y-80943497D01*
X197816429Y-80809309D01*
X197848814Y-80747398D01*
X197909529Y-80712824D01*
X197938046Y-80709500D01*
X198967921Y-80709500D01*
X199034960Y-80729185D01*
X199080715Y-80781989D01*
X199089538Y-80809309D01*
X199110261Y-80913489D01*
X199110264Y-80913501D01*
X199170602Y-81059172D01*
X199170609Y-81059185D01*
X199258210Y-81190288D01*
X199258213Y-81190292D01*
X199369707Y-81301786D01*
X199369711Y-81301789D01*
X199500814Y-81389390D01*
X199500827Y-81389397D01*
X199646498Y-81449735D01*
X199646503Y-81449737D01*
X199797312Y-81479735D01*
X199801153Y-81480499D01*
X199801156Y-81480500D01*
X199801158Y-81480500D01*
X199958844Y-81480500D01*
X199958845Y-81480499D01*
X200113497Y-81449737D01*
X200259179Y-81389394D01*
X200390289Y-81301789D01*
X200501789Y-81190289D01*
X200589394Y-81059179D01*
X200649737Y-80913497D01*
X200680500Y-80758842D01*
X200680500Y-80601158D01*
X200680500Y-80601155D01*
X200680499Y-80601153D01*
X200649738Y-80446510D01*
X200649737Y-80446503D01*
X200649735Y-80446498D01*
X200589397Y-80300827D01*
X200589390Y-80300814D01*
X200501789Y-80169711D01*
X200501786Y-80169707D01*
X200390292Y-80058213D01*
X200390288Y-80058210D01*
X200259185Y-79970609D01*
X200259172Y-79970602D01*
X200113501Y-79910264D01*
X200113491Y-79910261D01*
X199958149Y-79879361D01*
X199941392Y-79870595D01*
X199922914Y-79866576D01*
X199897877Y-79847833D01*
X199896238Y-79846976D01*
X199894660Y-79845425D01*
X199796590Y-79747355D01*
X199796588Y-79747352D01*
X199691417Y-79642181D01*
X199657932Y-79580858D01*
X199662916Y-79511166D01*
X199704788Y-79455233D01*
X199770252Y-79430816D01*
X199779098Y-79430500D01*
X199952351Y-79430500D01*
X199952352Y-79430500D01*
X200154534Y-79398477D01*
X200349219Y-79335220D01*
X200531610Y-79242287D01*
X200624590Y-79174732D01*
X200697213Y-79121971D01*
X200697215Y-79121968D01*
X200697219Y-79121966D01*
X200841966Y-78977219D01*
X200841968Y-78977215D01*
X200841971Y-78977213D01*
X200962284Y-78811614D01*
X200962286Y-78811611D01*
X200962287Y-78811610D01*
X201009516Y-78718917D01*
X201057489Y-78668123D01*
X201125310Y-78651328D01*
X201191445Y-78673865D01*
X201230485Y-78718919D01*
X201277715Y-78811614D01*
X201398028Y-78977213D01*
X201542786Y-79121971D01*
X201697749Y-79234556D01*
X201708390Y-79242287D01*
X201770660Y-79274015D01*
X201890776Y-79335218D01*
X201890778Y-79335218D01*
X201890781Y-79335220D01*
X201988137Y-79366853D01*
X202085465Y-79398477D01*
X202186557Y-79414488D01*
X202287648Y-79430500D01*
X202287649Y-79430500D01*
X202492351Y-79430500D01*
X202492352Y-79430500D01*
X202694534Y-79398477D01*
X202889219Y-79335220D01*
X203071610Y-79242287D01*
X203164590Y-79174732D01*
X203237213Y-79121971D01*
X203237215Y-79121968D01*
X203237219Y-79121966D01*
X203381966Y-78977219D01*
X203381968Y-78977215D01*
X203381971Y-78977213D01*
X203502284Y-78811614D01*
X203502286Y-78811611D01*
X203502287Y-78811610D01*
X203549516Y-78718917D01*
X203597489Y-78668123D01*
X203665310Y-78651328D01*
X203731445Y-78673865D01*
X203770485Y-78718919D01*
X203817715Y-78811614D01*
X203938028Y-78977213D01*
X204082786Y-79121971D01*
X204237749Y-79234556D01*
X204248390Y-79242287D01*
X204310660Y-79274015D01*
X204430776Y-79335218D01*
X204430778Y-79335218D01*
X204430781Y-79335220D01*
X204528137Y-79366853D01*
X204625465Y-79398477D01*
X204726557Y-79414488D01*
X204827648Y-79430500D01*
X204827649Y-79430500D01*
X205032351Y-79430500D01*
X205032352Y-79430500D01*
X205234534Y-79398477D01*
X205429219Y-79335220D01*
X205611610Y-79242287D01*
X205704590Y-79174732D01*
X205777213Y-79121971D01*
X205777215Y-79121968D01*
X205777219Y-79121966D01*
X205921966Y-78977219D01*
X205921968Y-78977215D01*
X205921971Y-78977213D01*
X206042284Y-78811614D01*
X206042286Y-78811611D01*
X206042287Y-78811610D01*
X206089516Y-78718917D01*
X206137489Y-78668123D01*
X206205310Y-78651328D01*
X206271445Y-78673865D01*
X206310485Y-78718919D01*
X206357715Y-78811614D01*
X206478028Y-78977213D01*
X206622786Y-79121971D01*
X206777749Y-79234556D01*
X206788390Y-79242287D01*
X206850660Y-79274015D01*
X206970776Y-79335218D01*
X206970778Y-79335218D01*
X206970781Y-79335220D01*
X207068137Y-79366853D01*
X207165465Y-79398477D01*
X207266557Y-79414488D01*
X207367648Y-79430500D01*
X207367649Y-79430500D01*
X207572351Y-79430500D01*
X207572352Y-79430500D01*
X207774534Y-79398477D01*
X207969219Y-79335220D01*
X208151610Y-79242287D01*
X208244590Y-79174732D01*
X208317213Y-79121971D01*
X208317215Y-79121968D01*
X208317219Y-79121966D01*
X208461966Y-78977219D01*
X208461968Y-78977215D01*
X208461971Y-78977213D01*
X208582284Y-78811614D01*
X208582286Y-78811611D01*
X208582287Y-78811610D01*
X208629795Y-78718369D01*
X208677770Y-78667574D01*
X208745591Y-78650779D01*
X208811725Y-78673316D01*
X208850765Y-78718370D01*
X208898140Y-78811349D01*
X209018417Y-78976894D01*
X209018417Y-78976895D01*
X209163104Y-79121582D01*
X209328650Y-79241859D01*
X209510968Y-79334754D01*
X209705578Y-79397988D01*
X209760000Y-79406607D01*
X209760000Y-78563012D01*
X209817007Y-78595925D01*
X209944174Y-78630000D01*
X210075826Y-78630000D01*
X210202993Y-78595925D01*
X210260000Y-78563012D01*
X210260000Y-79406606D01*
X210314421Y-79397988D01*
X210509031Y-79334754D01*
X210691349Y-79241859D01*
X210856894Y-79121582D01*
X210856895Y-79121582D01*
X211001582Y-78976895D01*
X211001582Y-78976894D01*
X211121861Y-78811347D01*
X211169234Y-78718371D01*
X211217208Y-78667575D01*
X211285028Y-78650779D01*
X211351164Y-78673316D01*
X211390203Y-78718369D01*
X211437713Y-78811611D01*
X211558028Y-78977213D01*
X211702786Y-79121971D01*
X211857749Y-79234556D01*
X211868390Y-79242287D01*
X211930660Y-79274015D01*
X212050776Y-79335218D01*
X212050778Y-79335218D01*
X212050781Y-79335220D01*
X212148137Y-79366853D01*
X212245465Y-79398477D01*
X212346557Y-79414488D01*
X212447648Y-79430500D01*
X212447649Y-79430500D01*
X212652351Y-79430500D01*
X212652352Y-79430500D01*
X212854534Y-79398477D01*
X213049219Y-79335220D01*
X213231610Y-79242287D01*
X213324590Y-79174732D01*
X213397213Y-79121971D01*
X213397215Y-79121968D01*
X213397219Y-79121966D01*
X213541966Y-78977219D01*
X213541968Y-78977215D01*
X213541971Y-78977213D01*
X213594732Y-78904590D01*
X213662287Y-78811610D01*
X213755220Y-78629219D01*
X213818477Y-78434534D01*
X213850500Y-78232352D01*
X213850500Y-78027648D01*
X213818477Y-77825466D01*
X213817673Y-77822993D01*
X213755218Y-77630776D01*
X213662419Y-77448650D01*
X213662287Y-77448390D01*
X213654556Y-77437749D01*
X213541971Y-77282786D01*
X213397213Y-77138028D01*
X213231613Y-77017715D01*
X213231612Y-77017714D01*
X213231610Y-77017713D01*
X213174653Y-76988691D01*
X213049223Y-76924781D01*
X212854534Y-76861522D01*
X212679995Y-76833878D01*
X212652352Y-76829500D01*
X212447648Y-76829500D01*
X212423329Y-76833351D01*
X212245465Y-76861522D01*
X212050776Y-76924781D01*
X211868386Y-77017715D01*
X211702786Y-77138028D01*
X211558028Y-77282786D01*
X211437713Y-77448388D01*
X211390203Y-77541630D01*
X211342228Y-77592426D01*
X211274407Y-77609220D01*
X211208272Y-77586682D01*
X211169234Y-77541628D01*
X211121861Y-77448652D01*
X211001582Y-77283105D01*
X211001582Y-77283104D01*
X210856895Y-77138417D01*
X210691349Y-77018140D01*
X210509029Y-76925244D01*
X210314413Y-76862009D01*
X210260000Y-76853390D01*
X210260000Y-77696988D01*
X210202993Y-77664075D01*
X210075826Y-77630000D01*
X209944174Y-77630000D01*
X209817007Y-77664075D01*
X209760000Y-77696988D01*
X209760000Y-76853390D01*
X209705586Y-76862009D01*
X209510970Y-76925244D01*
X209328650Y-77018140D01*
X209163105Y-77138417D01*
X209163104Y-77138417D01*
X209018417Y-77283104D01*
X209018417Y-77283105D01*
X208898140Y-77448650D01*
X208850765Y-77541629D01*
X208802790Y-77592425D01*
X208734969Y-77609220D01*
X208668834Y-77586682D01*
X208629795Y-77541629D01*
X208582419Y-77448650D01*
X208582287Y-77448390D01*
X208574556Y-77437749D01*
X208461971Y-77282786D01*
X208317213Y-77138028D01*
X208151613Y-77017715D01*
X208151612Y-77017714D01*
X208151610Y-77017713D01*
X208094653Y-76988691D01*
X207969223Y-76924781D01*
X207774534Y-76861522D01*
X207599995Y-76833878D01*
X207572352Y-76829500D01*
X207367648Y-76829500D01*
X207343329Y-76833351D01*
X207165465Y-76861522D01*
X206970776Y-76924781D01*
X206788386Y-77017715D01*
X206622786Y-77138028D01*
X206478028Y-77282786D01*
X206357715Y-77448386D01*
X206310485Y-77541080D01*
X206262510Y-77591876D01*
X206194689Y-77608671D01*
X206128554Y-77586134D01*
X206089515Y-77541080D01*
X206042419Y-77448650D01*
X206042287Y-77448390D01*
X206034556Y-77437749D01*
X205921971Y-77282786D01*
X205777213Y-77138028D01*
X205611613Y-77017715D01*
X205611612Y-77017714D01*
X205611610Y-77017713D01*
X205554653Y-76988691D01*
X205429223Y-76924781D01*
X205234534Y-76861522D01*
X205059995Y-76833878D01*
X205032352Y-76829500D01*
X204827648Y-76829500D01*
X204803329Y-76833351D01*
X204625465Y-76861522D01*
X204430776Y-76924781D01*
X204248386Y-77017715D01*
X204082786Y-77138028D01*
X203938028Y-77282786D01*
X203817715Y-77448386D01*
X203770485Y-77541080D01*
X203722510Y-77591876D01*
X203654689Y-77608671D01*
X203588554Y-77586134D01*
X203549515Y-77541080D01*
X203502419Y-77448650D01*
X203502287Y-77448390D01*
X203494556Y-77437749D01*
X203381971Y-77282786D01*
X203237213Y-77138028D01*
X203071613Y-77017715D01*
X203071612Y-77017714D01*
X203071610Y-77017713D01*
X203014653Y-76988691D01*
X202889223Y-76924781D01*
X202694534Y-76861522D01*
X202519995Y-76833878D01*
X202492352Y-76829500D01*
X202287648Y-76829500D01*
X202263329Y-76833351D01*
X202085465Y-76861522D01*
X201890776Y-76924781D01*
X201708386Y-77017715D01*
X201542786Y-77138028D01*
X201398028Y-77282786D01*
X201277715Y-77448386D01*
X201230485Y-77541080D01*
X201182510Y-77591876D01*
X201114689Y-77608671D01*
X201048554Y-77586134D01*
X201009515Y-77541080D01*
X200962419Y-77448650D01*
X200962287Y-77448390D01*
X200954556Y-77437749D01*
X200841971Y-77282786D01*
X200697213Y-77138028D01*
X200531613Y-77017715D01*
X200531612Y-77017714D01*
X200531610Y-77017713D01*
X200474653Y-76988691D01*
X200349223Y-76924781D01*
X200154534Y-76861522D01*
X199979995Y-76833878D01*
X199952352Y-76829500D01*
X199747648Y-76829500D01*
X199723329Y-76833351D01*
X199545465Y-76861522D01*
X199350776Y-76924781D01*
X199168386Y-77017715D01*
X199002786Y-77138028D01*
X198858028Y-77282786D01*
X198737715Y-77448386D01*
X198690485Y-77541080D01*
X198642510Y-77591876D01*
X198574689Y-77608671D01*
X198508554Y-77586134D01*
X198469515Y-77541080D01*
X198422419Y-77448650D01*
X198422287Y-77448390D01*
X198414556Y-77437749D01*
X198301971Y-77282786D01*
X198157213Y-77138028D01*
X197991613Y-77017715D01*
X197991612Y-77017714D01*
X197991610Y-77017713D01*
X197934653Y-76988691D01*
X197809223Y-76924781D01*
X197614534Y-76861522D01*
X197439995Y-76833878D01*
X197412352Y-76829500D01*
X197207648Y-76829500D01*
X197183329Y-76833351D01*
X197005465Y-76861522D01*
X196810776Y-76924781D01*
X196628386Y-77017715D01*
X196462786Y-77138028D01*
X196318028Y-77282786D01*
X196197715Y-77448386D01*
X196150485Y-77541080D01*
X196102510Y-77591876D01*
X196034689Y-77608671D01*
X195968554Y-77586134D01*
X195929515Y-77541080D01*
X195882419Y-77448650D01*
X195882287Y-77448390D01*
X195874556Y-77437749D01*
X195761971Y-77282786D01*
X195617213Y-77138028D01*
X195451613Y-77017715D01*
X195451612Y-77017714D01*
X195451610Y-77017713D01*
X195394653Y-76988691D01*
X195269223Y-76924781D01*
X195074534Y-76861522D01*
X194899995Y-76833878D01*
X194872352Y-76829500D01*
X194667648Y-76829500D01*
X194643329Y-76833351D01*
X194465465Y-76861522D01*
X194270776Y-76924781D01*
X194088386Y-77017715D01*
X193922786Y-77138028D01*
X193778028Y-77282786D01*
X193657715Y-77448386D01*
X193610485Y-77541080D01*
X193562510Y-77591876D01*
X193494689Y-77608671D01*
X193428554Y-77586134D01*
X193389515Y-77541080D01*
X193342419Y-77448650D01*
X193342287Y-77448390D01*
X193334556Y-77437749D01*
X193221971Y-77282786D01*
X193077213Y-77138028D01*
X192911613Y-77017715D01*
X192911612Y-77017714D01*
X192911610Y-77017713D01*
X192854653Y-76988691D01*
X192729223Y-76924781D01*
X192534534Y-76861522D01*
X192359995Y-76833878D01*
X192332352Y-76829500D01*
X192127648Y-76829500D01*
X192103329Y-76833351D01*
X191925465Y-76861522D01*
X191730776Y-76924781D01*
X191548386Y-77017715D01*
X191382786Y-77138028D01*
X191238028Y-77282786D01*
X191117715Y-77448386D01*
X191070485Y-77541080D01*
X191022510Y-77591876D01*
X190954689Y-77608671D01*
X190888554Y-77586134D01*
X190849515Y-77541080D01*
X190802419Y-77448650D01*
X190802287Y-77448390D01*
X190794556Y-77437749D01*
X190681971Y-77282786D01*
X190537213Y-77138028D01*
X190371613Y-77017715D01*
X190371612Y-77017714D01*
X190371610Y-77017713D01*
X190314653Y-76988691D01*
X190189223Y-76924781D01*
X189994534Y-76861522D01*
X189819995Y-76833878D01*
X189792352Y-76829500D01*
X189587648Y-76829500D01*
X189563329Y-76833351D01*
X189385465Y-76861522D01*
X189190776Y-76924781D01*
X189008386Y-77017715D01*
X188842786Y-77138028D01*
X188698028Y-77282786D01*
X188577715Y-77448386D01*
X188530485Y-77541080D01*
X188482510Y-77591876D01*
X188414689Y-77608671D01*
X188348554Y-77586134D01*
X188309515Y-77541080D01*
X188262419Y-77448650D01*
X188262287Y-77448390D01*
X188254556Y-77437749D01*
X188141971Y-77282786D01*
X187997213Y-77138028D01*
X187831613Y-77017715D01*
X187831612Y-77017714D01*
X187831610Y-77017713D01*
X187774653Y-76988691D01*
X187649223Y-76924781D01*
X187454534Y-76861522D01*
X187279995Y-76833878D01*
X187252352Y-76829500D01*
X187047648Y-76829500D01*
X187023329Y-76833351D01*
X186845465Y-76861522D01*
X186650776Y-76924781D01*
X186468386Y-77017715D01*
X186302786Y-77138028D01*
X186158028Y-77282786D01*
X186037715Y-77448386D01*
X185990485Y-77541080D01*
X185942510Y-77591876D01*
X185874689Y-77608671D01*
X185808554Y-77586134D01*
X185769515Y-77541080D01*
X185722419Y-77448650D01*
X185722287Y-77448390D01*
X185714556Y-77437749D01*
X185601971Y-77282786D01*
X185457213Y-77138028D01*
X185291613Y-77017715D01*
X185291612Y-77017714D01*
X185291610Y-77017713D01*
X185234653Y-76988691D01*
X185109223Y-76924781D01*
X184914534Y-76861522D01*
X184739995Y-76833878D01*
X184712352Y-76829500D01*
X184507648Y-76829500D01*
X184483329Y-76833351D01*
X184305465Y-76861522D01*
X184110776Y-76924781D01*
X183928386Y-77017715D01*
X183762786Y-77138028D01*
X183618028Y-77282786D01*
X183497715Y-77448386D01*
X183450485Y-77541080D01*
X183402510Y-77591876D01*
X183334689Y-77608671D01*
X183268554Y-77586134D01*
X183229515Y-77541080D01*
X183182419Y-77448650D01*
X183182287Y-77448390D01*
X183174556Y-77437749D01*
X183061971Y-77282786D01*
X182917213Y-77138028D01*
X182751613Y-77017715D01*
X182751612Y-77017714D01*
X182751610Y-77017713D01*
X182694653Y-76988691D01*
X182569223Y-76924781D01*
X182374534Y-76861522D01*
X182199995Y-76833878D01*
X182172352Y-76829500D01*
X181967648Y-76829500D01*
X181943329Y-76833351D01*
X181765465Y-76861522D01*
X181570776Y-76924781D01*
X181388386Y-77017715D01*
X181222786Y-77138028D01*
X181078028Y-77282786D01*
X180957715Y-77448386D01*
X180910485Y-77541080D01*
X180862510Y-77591876D01*
X180794689Y-77608671D01*
X180728554Y-77586134D01*
X180689515Y-77541080D01*
X180642419Y-77448650D01*
X180642287Y-77448390D01*
X180634556Y-77437749D01*
X180521971Y-77282786D01*
X180377213Y-77138028D01*
X180211613Y-77017715D01*
X180211612Y-77017714D01*
X180211610Y-77017713D01*
X180154653Y-76988691D01*
X180029223Y-76924781D01*
X179834534Y-76861522D01*
X179659995Y-76833878D01*
X179632352Y-76829500D01*
X179427648Y-76829500D01*
X179371652Y-76838369D01*
X179225464Y-76861523D01*
X179225457Y-76861524D01*
X179191817Y-76872455D01*
X179121976Y-76874450D01*
X179062144Y-76838369D01*
X179031316Y-76775668D01*
X179029500Y-76754524D01*
X179029500Y-66831097D01*
X179049185Y-66764058D01*
X179065819Y-66743416D01*
X179758757Y-66050478D01*
X181625159Y-64184075D01*
X181686480Y-64150592D01*
X181751154Y-64153826D01*
X181765466Y-64158477D01*
X181967648Y-64190500D01*
X181967649Y-64190500D01*
X182172351Y-64190500D01*
X182172352Y-64190500D01*
X182374534Y-64158477D01*
X182569219Y-64095220D01*
X182751610Y-64002287D01*
X182847901Y-63932328D01*
X182917213Y-63881971D01*
X182917215Y-63881968D01*
X182917219Y-63881966D01*
X183061966Y-63737219D01*
X183061968Y-63737215D01*
X183061971Y-63737213D01*
X183182284Y-63571614D01*
X183182286Y-63571611D01*
X183182287Y-63571610D01*
X183229516Y-63478917D01*
X183277489Y-63428123D01*
X183345310Y-63411328D01*
X183411445Y-63433865D01*
X183450485Y-63478919D01*
X183497715Y-63571614D01*
X183618028Y-63737213D01*
X183762786Y-63881971D01*
X183917749Y-63994556D01*
X183928390Y-64002287D01*
X184017212Y-64047544D01*
X184110776Y-64095218D01*
X184110778Y-64095218D01*
X184110781Y-64095220D01*
X184215137Y-64129127D01*
X184305465Y-64158477D01*
X184406557Y-64174488D01*
X184507648Y-64190500D01*
X184507649Y-64190500D01*
X184712351Y-64190500D01*
X184712352Y-64190500D01*
X184914534Y-64158477D01*
X185109219Y-64095220D01*
X185291610Y-64002287D01*
X185387901Y-63932328D01*
X185457213Y-63881971D01*
X185457215Y-63881968D01*
X185457219Y-63881966D01*
X185601966Y-63737219D01*
X185601968Y-63737215D01*
X185601971Y-63737213D01*
X185722284Y-63571614D01*
X185722286Y-63571611D01*
X185722287Y-63571610D01*
X185769516Y-63478917D01*
X185817489Y-63428123D01*
X185885310Y-63411328D01*
X185951445Y-63433865D01*
X185990485Y-63478919D01*
X186037715Y-63571614D01*
X186158028Y-63737213D01*
X186302786Y-63881971D01*
X186457749Y-63994556D01*
X186468390Y-64002287D01*
X186557212Y-64047544D01*
X186650776Y-64095218D01*
X186650778Y-64095218D01*
X186650781Y-64095220D01*
X186755137Y-64129127D01*
X186845465Y-64158477D01*
X186946557Y-64174488D01*
X187047648Y-64190500D01*
X187047649Y-64190500D01*
X187252351Y-64190500D01*
X187252352Y-64190500D01*
X187454534Y-64158477D01*
X187649219Y-64095220D01*
X187831610Y-64002287D01*
X187927901Y-63932328D01*
X187997213Y-63881971D01*
X187997215Y-63881968D01*
X187997219Y-63881966D01*
X188141966Y-63737219D01*
X188141968Y-63737215D01*
X188141971Y-63737213D01*
X188262284Y-63571614D01*
X188262286Y-63571611D01*
X188262287Y-63571610D01*
X188309516Y-63478917D01*
X188357489Y-63428123D01*
X188425310Y-63411328D01*
X188491445Y-63433865D01*
X188530485Y-63478919D01*
X188577715Y-63571614D01*
X188698028Y-63737213D01*
X188842786Y-63881971D01*
X188997749Y-63994556D01*
X189008390Y-64002287D01*
X189097212Y-64047544D01*
X189190776Y-64095218D01*
X189190778Y-64095218D01*
X189190781Y-64095220D01*
X189295137Y-64129127D01*
X189385465Y-64158477D01*
X189486557Y-64174488D01*
X189587648Y-64190500D01*
X189587649Y-64190500D01*
X189792351Y-64190500D01*
X189792352Y-64190500D01*
X189994534Y-64158477D01*
X190189219Y-64095220D01*
X190371610Y-64002287D01*
X190467901Y-63932328D01*
X190537213Y-63881971D01*
X190537215Y-63881968D01*
X190537219Y-63881966D01*
X190681966Y-63737219D01*
X190681968Y-63737215D01*
X190681971Y-63737213D01*
X190802284Y-63571614D01*
X190802286Y-63571611D01*
X190802287Y-63571610D01*
X190849516Y-63478917D01*
X190897489Y-63428123D01*
X190965310Y-63411328D01*
X191031445Y-63433865D01*
X191070485Y-63478919D01*
X191117715Y-63571614D01*
X191238028Y-63737213D01*
X191382786Y-63881971D01*
X191537749Y-63994556D01*
X191548390Y-64002287D01*
X191637212Y-64047544D01*
X191730776Y-64095218D01*
X191730778Y-64095218D01*
X191730781Y-64095220D01*
X191835137Y-64129127D01*
X191925465Y-64158477D01*
X192026557Y-64174488D01*
X192127648Y-64190500D01*
X192127649Y-64190500D01*
X192332351Y-64190500D01*
X192332352Y-64190500D01*
X192534534Y-64158477D01*
X192729219Y-64095220D01*
X192911610Y-64002287D01*
X193007901Y-63932328D01*
X193077213Y-63881971D01*
X193077215Y-63881968D01*
X193077219Y-63881966D01*
X193221966Y-63737219D01*
X193221968Y-63737215D01*
X193221971Y-63737213D01*
X193342284Y-63571614D01*
X193342286Y-63571611D01*
X193342287Y-63571610D01*
X193389516Y-63478917D01*
X193437489Y-63428123D01*
X193505310Y-63411328D01*
X193571445Y-63433865D01*
X193610485Y-63478919D01*
X193657715Y-63571614D01*
X193778028Y-63737213D01*
X193922786Y-63881971D01*
X194077749Y-63994556D01*
X194088390Y-64002287D01*
X194177212Y-64047544D01*
X194270776Y-64095218D01*
X194270778Y-64095218D01*
X194270781Y-64095220D01*
X194375137Y-64129127D01*
X194465465Y-64158477D01*
X194566557Y-64174488D01*
X194667648Y-64190500D01*
X194667649Y-64190500D01*
X194872351Y-64190500D01*
X194872352Y-64190500D01*
X195074534Y-64158477D01*
X195269219Y-64095220D01*
X195451610Y-64002287D01*
X195547901Y-63932328D01*
X195617213Y-63881971D01*
X195617215Y-63881968D01*
X195617219Y-63881966D01*
X195761966Y-63737219D01*
X195761968Y-63737215D01*
X195761971Y-63737213D01*
X195882284Y-63571614D01*
X195882286Y-63571611D01*
X195882287Y-63571610D01*
X195929516Y-63478917D01*
X195977489Y-63428123D01*
X196045310Y-63411328D01*
X196111445Y-63433865D01*
X196150485Y-63478919D01*
X196197715Y-63571614D01*
X196318028Y-63737213D01*
X196462786Y-63881971D01*
X196617749Y-63994556D01*
X196628390Y-64002287D01*
X196717212Y-64047544D01*
X196810776Y-64095218D01*
X196810778Y-64095218D01*
X196810781Y-64095220D01*
X196915137Y-64129127D01*
X197005465Y-64158477D01*
X197106557Y-64174488D01*
X197207648Y-64190500D01*
X197207649Y-64190500D01*
X197412351Y-64190500D01*
X197412352Y-64190500D01*
X197614534Y-64158477D01*
X197809219Y-64095220D01*
X197991610Y-64002287D01*
X198087901Y-63932328D01*
X198157213Y-63881971D01*
X198157215Y-63881968D01*
X198157219Y-63881966D01*
X198301966Y-63737219D01*
X198301968Y-63737215D01*
X198301971Y-63737213D01*
X198422284Y-63571614D01*
X198422286Y-63571611D01*
X198422287Y-63571610D01*
X198469516Y-63478917D01*
X198517489Y-63428123D01*
X198585310Y-63411328D01*
X198651445Y-63433865D01*
X198690485Y-63478919D01*
X198737715Y-63571614D01*
X198858028Y-63737213D01*
X199002786Y-63881971D01*
X199157749Y-63994556D01*
X199168390Y-64002287D01*
X199257212Y-64047544D01*
X199350776Y-64095218D01*
X199350778Y-64095218D01*
X199350781Y-64095220D01*
X199455137Y-64129127D01*
X199545465Y-64158477D01*
X199646557Y-64174488D01*
X199747648Y-64190500D01*
X199747649Y-64190500D01*
X199952351Y-64190500D01*
X199952352Y-64190500D01*
X200154534Y-64158477D01*
X200349219Y-64095220D01*
X200531610Y-64002287D01*
X200627901Y-63932328D01*
X200697213Y-63881971D01*
X200697215Y-63881968D01*
X200697219Y-63881966D01*
X200841966Y-63737219D01*
X200841968Y-63737215D01*
X200841971Y-63737213D01*
X200962284Y-63571614D01*
X200962286Y-63571611D01*
X200962287Y-63571610D01*
X201009516Y-63478917D01*
X201057489Y-63428123D01*
X201125310Y-63411328D01*
X201191445Y-63433865D01*
X201230485Y-63478919D01*
X201277715Y-63571614D01*
X201398028Y-63737213D01*
X201542786Y-63881971D01*
X201697749Y-63994556D01*
X201708390Y-64002287D01*
X201797212Y-64047544D01*
X201890776Y-64095218D01*
X201890778Y-64095218D01*
X201890781Y-64095220D01*
X201995137Y-64129127D01*
X202085465Y-64158477D01*
X202186557Y-64174488D01*
X202287648Y-64190500D01*
X202287649Y-64190500D01*
X202492351Y-64190500D01*
X202492352Y-64190500D01*
X202694534Y-64158477D01*
X202889219Y-64095220D01*
X203071610Y-64002287D01*
X203167901Y-63932328D01*
X203237213Y-63881971D01*
X203237215Y-63881968D01*
X203237219Y-63881966D01*
X203381966Y-63737219D01*
X203381968Y-63737215D01*
X203381971Y-63737213D01*
X203502284Y-63571614D01*
X203502286Y-63571611D01*
X203502287Y-63571610D01*
X203549795Y-63478369D01*
X203597770Y-63427574D01*
X203665591Y-63410779D01*
X203731725Y-63433316D01*
X203770765Y-63478370D01*
X203818140Y-63571349D01*
X203938417Y-63736894D01*
X203938417Y-63736895D01*
X204083104Y-63881582D01*
X204248650Y-64001859D01*
X204430968Y-64094754D01*
X204625578Y-64157988D01*
X204680000Y-64166607D01*
X204680000Y-63323012D01*
X204737007Y-63355925D01*
X204864174Y-63390000D01*
X204995826Y-63390000D01*
X205122993Y-63355925D01*
X205180000Y-63323012D01*
X205180000Y-64166606D01*
X205234421Y-64157988D01*
X205429031Y-64094754D01*
X205611349Y-64001859D01*
X205776894Y-63881582D01*
X205776895Y-63881582D01*
X205921582Y-63736895D01*
X205921582Y-63736894D01*
X206041861Y-63571347D01*
X206089234Y-63478371D01*
X206137208Y-63427575D01*
X206205028Y-63410779D01*
X206271164Y-63433316D01*
X206310203Y-63478369D01*
X206357713Y-63571611D01*
X206478028Y-63737213D01*
X206622786Y-63881971D01*
X206777749Y-63994556D01*
X206788390Y-64002287D01*
X206877212Y-64047544D01*
X206970776Y-64095218D01*
X206970778Y-64095218D01*
X206970781Y-64095220D01*
X207075137Y-64129127D01*
X207165465Y-64158477D01*
X207266557Y-64174488D01*
X207367648Y-64190500D01*
X207367649Y-64190500D01*
X207572351Y-64190500D01*
X207572352Y-64190500D01*
X207774534Y-64158477D01*
X207969219Y-64095220D01*
X208151610Y-64002287D01*
X208247901Y-63932328D01*
X208317213Y-63881971D01*
X208317215Y-63881968D01*
X208317219Y-63881966D01*
X208461966Y-63737219D01*
X208461968Y-63737215D01*
X208461971Y-63737213D01*
X208582284Y-63571614D01*
X208582286Y-63571611D01*
X208582287Y-63571610D01*
X208629516Y-63478917D01*
X208677489Y-63428123D01*
X208745310Y-63411328D01*
X208811445Y-63433865D01*
X208850485Y-63478919D01*
X208897715Y-63571614D01*
X209018028Y-63737213D01*
X209162786Y-63881971D01*
X209317749Y-63994556D01*
X209328390Y-64002287D01*
X209417212Y-64047544D01*
X209510776Y-64095218D01*
X209510778Y-64095218D01*
X209510781Y-64095220D01*
X209615137Y-64129127D01*
X209705465Y-64158477D01*
X209806557Y-64174488D01*
X209907648Y-64190500D01*
X209907649Y-64190500D01*
X210112351Y-64190500D01*
X210112352Y-64190500D01*
X210314534Y-64158477D01*
X210509219Y-64095220D01*
X210691610Y-64002287D01*
X210787901Y-63932328D01*
X210857213Y-63881971D01*
X210857215Y-63881968D01*
X210857219Y-63881966D01*
X211001966Y-63737219D01*
X211028330Y-63700930D01*
X211083658Y-63658265D01*
X211153271Y-63652284D01*
X211215067Y-63684889D01*
X211249426Y-63745726D01*
X211251938Y-63760559D01*
X211255907Y-63797480D01*
X211306202Y-63932328D01*
X211306206Y-63932335D01*
X211392452Y-64047544D01*
X211392455Y-64047547D01*
X211507664Y-64133793D01*
X211507671Y-64133797D01*
X211642517Y-64184091D01*
X211642516Y-64184091D01*
X211649444Y-64184835D01*
X211702127Y-64190500D01*
X213397872Y-64190499D01*
X213457483Y-64184091D01*
X213592331Y-64133796D01*
X213707546Y-64047546D01*
X213793796Y-63932331D01*
X213844091Y-63797483D01*
X213850500Y-63737873D01*
X213850499Y-62042128D01*
X213844091Y-61982517D01*
X213793796Y-61847669D01*
X213793795Y-61847668D01*
X213793793Y-61847664D01*
X213707547Y-61732455D01*
X213707544Y-61732452D01*
X213592335Y-61646206D01*
X213592328Y-61646202D01*
X213457482Y-61595908D01*
X213457483Y-61595908D01*
X213397883Y-61589501D01*
X213397881Y-61589500D01*
X213397873Y-61589500D01*
X213397864Y-61589500D01*
X211702129Y-61589500D01*
X211702123Y-61589501D01*
X211642516Y-61595908D01*
X211507671Y-61646202D01*
X211507664Y-61646206D01*
X211392455Y-61732452D01*
X211392452Y-61732455D01*
X211306206Y-61847664D01*
X211306202Y-61847671D01*
X211255908Y-61982516D01*
X211251939Y-62019440D01*
X211225201Y-62083991D01*
X211167809Y-62123839D01*
X211097983Y-62126332D01*
X211037895Y-62090679D01*
X211028332Y-62079070D01*
X211001967Y-62042782D01*
X210857213Y-61898028D01*
X210691613Y-61777715D01*
X210691612Y-61777714D01*
X210691610Y-61777713D01*
X210634653Y-61748691D01*
X210509223Y-61684781D01*
X210314534Y-61621522D01*
X210139995Y-61593878D01*
X210112352Y-61589500D01*
X209907648Y-61589500D01*
X209883329Y-61593351D01*
X209705465Y-61621522D01*
X209510776Y-61684781D01*
X209328386Y-61777715D01*
X209162786Y-61898028D01*
X209018028Y-62042786D01*
X208897715Y-62208386D01*
X208850485Y-62301080D01*
X208802510Y-62351876D01*
X208734689Y-62368671D01*
X208668554Y-62346134D01*
X208629515Y-62301080D01*
X208582419Y-62208650D01*
X208582287Y-62208390D01*
X208520858Y-62123839D01*
X208461971Y-62042786D01*
X208317213Y-61898028D01*
X208151613Y-61777715D01*
X208151612Y-61777714D01*
X208151610Y-61777713D01*
X208094653Y-61748691D01*
X207969223Y-61684781D01*
X207774534Y-61621522D01*
X207599995Y-61593878D01*
X207572352Y-61589500D01*
X207367648Y-61589500D01*
X207343329Y-61593351D01*
X207165465Y-61621522D01*
X206970776Y-61684781D01*
X206788386Y-61777715D01*
X206622786Y-61898028D01*
X206478028Y-62042786D01*
X206357713Y-62208388D01*
X206310203Y-62301630D01*
X206262228Y-62352426D01*
X206194407Y-62369220D01*
X206128272Y-62346682D01*
X206089234Y-62301628D01*
X206041861Y-62208652D01*
X205921582Y-62043105D01*
X205921582Y-62043104D01*
X205776895Y-61898417D01*
X205611349Y-61778140D01*
X205429029Y-61685244D01*
X205234413Y-61622009D01*
X205180000Y-61613390D01*
X205180000Y-62456988D01*
X205122993Y-62424075D01*
X204995826Y-62390000D01*
X204864174Y-62390000D01*
X204737007Y-62424075D01*
X204680000Y-62456988D01*
X204680000Y-61613390D01*
X204625586Y-61622009D01*
X204430970Y-61685244D01*
X204248650Y-61778140D01*
X204083105Y-61898417D01*
X204083104Y-61898417D01*
X203938417Y-62043104D01*
X203938417Y-62043105D01*
X203818140Y-62208650D01*
X203770765Y-62301629D01*
X203722790Y-62352425D01*
X203654969Y-62369220D01*
X203588834Y-62346682D01*
X203549795Y-62301629D01*
X203502419Y-62208650D01*
X203502287Y-62208390D01*
X203440858Y-62123839D01*
X203381971Y-62042786D01*
X203237213Y-61898028D01*
X203071613Y-61777715D01*
X203071612Y-61777714D01*
X203071610Y-61777713D01*
X203014653Y-61748691D01*
X202889223Y-61684781D01*
X202694534Y-61621522D01*
X202519995Y-61593878D01*
X202492352Y-61589500D01*
X202287648Y-61589500D01*
X202263329Y-61593351D01*
X202085465Y-61621522D01*
X201890776Y-61684781D01*
X201708386Y-61777715D01*
X201542786Y-61898028D01*
X201398028Y-62042786D01*
X201277715Y-62208386D01*
X201230485Y-62301080D01*
X201182510Y-62351876D01*
X201114689Y-62368671D01*
X201048554Y-62346134D01*
X201009515Y-62301080D01*
X200962419Y-62208650D01*
X200962287Y-62208390D01*
X200900858Y-62123839D01*
X200841971Y-62042786D01*
X200697213Y-61898028D01*
X200531613Y-61777715D01*
X200531612Y-61777714D01*
X200531610Y-61777713D01*
X200474653Y-61748691D01*
X200349223Y-61684781D01*
X200154534Y-61621522D01*
X199979995Y-61593878D01*
X199952352Y-61589500D01*
X199747648Y-61589500D01*
X199723329Y-61593351D01*
X199545465Y-61621522D01*
X199350776Y-61684781D01*
X199168386Y-61777715D01*
X199002786Y-61898028D01*
X198858028Y-62042786D01*
X198737715Y-62208386D01*
X198690485Y-62301080D01*
X198642510Y-62351876D01*
X198574689Y-62368671D01*
X198508554Y-62346134D01*
X198469515Y-62301080D01*
X198422419Y-62208650D01*
X198422287Y-62208390D01*
X198360858Y-62123839D01*
X198301971Y-62042786D01*
X198157213Y-61898028D01*
X197991613Y-61777715D01*
X197991612Y-61777714D01*
X197991610Y-61777713D01*
X197934653Y-61748691D01*
X197809223Y-61684781D01*
X197614534Y-61621522D01*
X197439995Y-61593878D01*
X197412352Y-61589500D01*
X197207648Y-61589500D01*
X197183329Y-61593351D01*
X197005465Y-61621522D01*
X196810776Y-61684781D01*
X196628386Y-61777715D01*
X196462786Y-61898028D01*
X196318028Y-62042786D01*
X196197715Y-62208386D01*
X196150485Y-62301080D01*
X196102510Y-62351876D01*
X196034689Y-62368671D01*
X195968554Y-62346134D01*
X195929515Y-62301080D01*
X195882419Y-62208650D01*
X195882287Y-62208390D01*
X195820858Y-62123839D01*
X195761971Y-62042786D01*
X195617213Y-61898028D01*
X195451613Y-61777715D01*
X195451612Y-61777714D01*
X195451610Y-61777713D01*
X195394653Y-61748691D01*
X195269223Y-61684781D01*
X195074534Y-61621522D01*
X194899995Y-61593878D01*
X194872352Y-61589500D01*
X194667648Y-61589500D01*
X194643329Y-61593351D01*
X194465465Y-61621522D01*
X194270776Y-61684781D01*
X194088386Y-61777715D01*
X193922786Y-61898028D01*
X193778028Y-62042786D01*
X193657715Y-62208386D01*
X193610485Y-62301080D01*
X193562510Y-62351876D01*
X193494689Y-62368671D01*
X193428554Y-62346134D01*
X193389515Y-62301080D01*
X193342419Y-62208650D01*
X193342287Y-62208390D01*
X193280858Y-62123839D01*
X193221971Y-62042786D01*
X193077213Y-61898028D01*
X192911613Y-61777715D01*
X192911612Y-61777714D01*
X192911610Y-61777713D01*
X192854653Y-61748691D01*
X192729223Y-61684781D01*
X192534534Y-61621522D01*
X192359995Y-61593878D01*
X192332352Y-61589500D01*
X192127648Y-61589500D01*
X192103329Y-61593351D01*
X191925465Y-61621522D01*
X191730776Y-61684781D01*
X191548386Y-61777715D01*
X191382786Y-61898028D01*
X191238028Y-62042786D01*
X191117715Y-62208386D01*
X191070485Y-62301080D01*
X191022510Y-62351876D01*
X190954689Y-62368671D01*
X190888554Y-62346134D01*
X190849515Y-62301080D01*
X190802419Y-62208650D01*
X190802287Y-62208390D01*
X190740858Y-62123839D01*
X190681971Y-62042786D01*
X190537213Y-61898028D01*
X190371613Y-61777715D01*
X190371612Y-61777714D01*
X190371610Y-61777713D01*
X190314653Y-61748691D01*
X190189223Y-61684781D01*
X189994534Y-61621522D01*
X189819995Y-61593878D01*
X189792352Y-61589500D01*
X189587648Y-61589500D01*
X189563329Y-61593351D01*
X189385465Y-61621522D01*
X189190776Y-61684781D01*
X189008386Y-61777715D01*
X188842786Y-61898028D01*
X188698028Y-62042786D01*
X188577715Y-62208386D01*
X188530485Y-62301080D01*
X188482510Y-62351876D01*
X188414689Y-62368671D01*
X188348554Y-62346134D01*
X188309515Y-62301080D01*
X188262419Y-62208650D01*
X188262287Y-62208390D01*
X188200858Y-62123839D01*
X188141971Y-62042786D01*
X187997213Y-61898028D01*
X187831613Y-61777715D01*
X187831612Y-61777714D01*
X187831610Y-61777713D01*
X187774653Y-61748691D01*
X187649223Y-61684781D01*
X187454534Y-61621522D01*
X187279995Y-61593878D01*
X187252352Y-61589500D01*
X187047648Y-61589500D01*
X187023329Y-61593351D01*
X186845465Y-61621522D01*
X186650776Y-61684781D01*
X186468386Y-61777715D01*
X186302786Y-61898028D01*
X186158028Y-62042786D01*
X186037715Y-62208386D01*
X185990485Y-62301080D01*
X185942510Y-62351876D01*
X185874689Y-62368671D01*
X185808554Y-62346134D01*
X185769515Y-62301080D01*
X185722419Y-62208650D01*
X185722287Y-62208390D01*
X185660858Y-62123839D01*
X185601971Y-62042786D01*
X185457213Y-61898028D01*
X185291613Y-61777715D01*
X185291612Y-61777714D01*
X185291610Y-61777713D01*
X185234653Y-61748691D01*
X185109223Y-61684781D01*
X184914534Y-61621522D01*
X184739995Y-61593878D01*
X184712352Y-61589500D01*
X184507648Y-61589500D01*
X184483329Y-61593351D01*
X184305465Y-61621522D01*
X184110776Y-61684781D01*
X183928386Y-61777715D01*
X183762786Y-61898028D01*
X183618028Y-62042786D01*
X183497715Y-62208386D01*
X183450485Y-62301080D01*
X183402510Y-62351876D01*
X183334689Y-62368671D01*
X183268554Y-62346134D01*
X183229515Y-62301080D01*
X183182419Y-62208650D01*
X183182287Y-62208390D01*
X183120858Y-62123839D01*
X183061971Y-62042786D01*
X182917213Y-61898028D01*
X182751613Y-61777715D01*
X182751612Y-61777714D01*
X182751610Y-61777713D01*
X182694653Y-61748691D01*
X182569223Y-61684781D01*
X182374534Y-61621522D01*
X182199995Y-61593878D01*
X182172352Y-61589500D01*
X181967648Y-61589500D01*
X181943329Y-61593351D01*
X181765465Y-61621522D01*
X181570776Y-61684781D01*
X181388386Y-61777715D01*
X181222786Y-61898028D01*
X181078028Y-62042786D01*
X180957715Y-62208386D01*
X180910485Y-62301080D01*
X180862510Y-62351876D01*
X180794689Y-62368671D01*
X180728554Y-62346134D01*
X180689515Y-62301080D01*
X180642419Y-62208650D01*
X180642287Y-62208390D01*
X180580858Y-62123839D01*
X180521971Y-62042786D01*
X180377213Y-61898028D01*
X180211613Y-61777715D01*
X180211612Y-61777714D01*
X180211610Y-61777713D01*
X180154653Y-61748691D01*
X180029223Y-61684781D01*
X179834534Y-61621522D01*
X179659995Y-61593878D01*
X179632352Y-61589500D01*
X179427648Y-61589500D01*
X179403329Y-61593351D01*
X179225465Y-61621522D01*
X179030776Y-61684781D01*
X178848386Y-61777715D01*
X178682786Y-61898028D01*
X178538028Y-62042786D01*
X178417715Y-62208386D01*
X178370485Y-62301080D01*
X178322510Y-62351876D01*
X178254689Y-62368671D01*
X178188554Y-62346134D01*
X178149515Y-62301080D01*
X178102419Y-62208650D01*
X178102287Y-62208390D01*
X178040858Y-62123839D01*
X177981971Y-62042786D01*
X177837213Y-61898028D01*
X177671613Y-61777715D01*
X177671612Y-61777714D01*
X177671610Y-61777713D01*
X177614653Y-61748691D01*
X177489223Y-61684781D01*
X177294534Y-61621522D01*
X177119995Y-61593878D01*
X177092352Y-61589500D01*
X176887648Y-61589500D01*
X176863329Y-61593351D01*
X176685465Y-61621522D01*
X176490776Y-61684781D01*
X176308386Y-61777715D01*
X176142786Y-61898028D01*
X175998028Y-62042786D01*
X175877715Y-62208386D01*
X175784781Y-62390776D01*
X175721522Y-62585465D01*
X175689500Y-62787648D01*
X170500500Y-62787648D01*
X170500500Y-60304760D01*
X170520185Y-60237721D01*
X170572989Y-60191966D01*
X170624548Y-60180760D01*
X217375553Y-60200239D01*
G37*
%TD.AperFunction*%
%TD*%
M02*
