%TF.GenerationSoftware,KiCad,Pcbnew,9.0.5*%
%TF.CreationDate,2025-10-29T17:37:18-04:00*%
%TF.ProjectId,Cruz_FlightComputerPCB,4372757a-5f46-46c6-9967-6874436f6d70,rev?*%
%TF.SameCoordinates,Original*%
%TF.FileFunction,Legend,Top*%
%TF.FilePolarity,Positive*%
%FSLAX46Y46*%
G04 Gerber Fmt 4.6, Leading zero omitted, Abs format (unit mm)*
G04 Created by KiCad (PCBNEW 9.0.5) date 2025-10-29 17:37:18*
%MOMM*%
%LPD*%
G01*
G04 APERTURE LIST*
%ADD10C,0.150000*%
%ADD11C,0.087500*%
%ADD12C,0.120000*%
%ADD13C,0.000000*%
%ADD14C,0.100000*%
G04 APERTURE END LIST*
D10*
X186786666Y-88967200D02*
X186929523Y-89014819D01*
X186929523Y-89014819D02*
X187167618Y-89014819D01*
X187167618Y-89014819D02*
X187262856Y-88967200D01*
X187262856Y-88967200D02*
X187310475Y-88919580D01*
X187310475Y-88919580D02*
X187358094Y-88824342D01*
X187358094Y-88824342D02*
X187358094Y-88729104D01*
X187358094Y-88729104D02*
X187310475Y-88633866D01*
X187310475Y-88633866D02*
X187262856Y-88586247D01*
X187262856Y-88586247D02*
X187167618Y-88538628D01*
X187167618Y-88538628D02*
X186977142Y-88491009D01*
X186977142Y-88491009D02*
X186881904Y-88443390D01*
X186881904Y-88443390D02*
X186834285Y-88395771D01*
X186834285Y-88395771D02*
X186786666Y-88300533D01*
X186786666Y-88300533D02*
X186786666Y-88205295D01*
X186786666Y-88205295D02*
X186834285Y-88110057D01*
X186834285Y-88110057D02*
X186881904Y-88062438D01*
X186881904Y-88062438D02*
X186977142Y-88014819D01*
X186977142Y-88014819D02*
X187215237Y-88014819D01*
X187215237Y-88014819D02*
X187358094Y-88062438D01*
X188167618Y-88967200D02*
X188072380Y-89014819D01*
X188072380Y-89014819D02*
X187881904Y-89014819D01*
X187881904Y-89014819D02*
X187786666Y-88967200D01*
X187786666Y-88967200D02*
X187739047Y-88871961D01*
X187739047Y-88871961D02*
X187739047Y-88491009D01*
X187739047Y-88491009D02*
X187786666Y-88395771D01*
X187786666Y-88395771D02*
X187881904Y-88348152D01*
X187881904Y-88348152D02*
X188072380Y-88348152D01*
X188072380Y-88348152D02*
X188167618Y-88395771D01*
X188167618Y-88395771D02*
X188215237Y-88491009D01*
X188215237Y-88491009D02*
X188215237Y-88586247D01*
X188215237Y-88586247D02*
X187739047Y-88681485D01*
X188643809Y-89014819D02*
X188643809Y-88348152D01*
X188643809Y-88538628D02*
X188691428Y-88443390D01*
X188691428Y-88443390D02*
X188739047Y-88395771D01*
X188739047Y-88395771D02*
X188834285Y-88348152D01*
X188834285Y-88348152D02*
X188929523Y-88348152D01*
X189167619Y-88348152D02*
X189405714Y-89014819D01*
X189405714Y-89014819D02*
X189643809Y-88348152D01*
X190167619Y-89014819D02*
X190072381Y-88967200D01*
X190072381Y-88967200D02*
X190024762Y-88919580D01*
X190024762Y-88919580D02*
X189977143Y-88824342D01*
X189977143Y-88824342D02*
X189977143Y-88538628D01*
X189977143Y-88538628D02*
X190024762Y-88443390D01*
X190024762Y-88443390D02*
X190072381Y-88395771D01*
X190072381Y-88395771D02*
X190167619Y-88348152D01*
X190167619Y-88348152D02*
X190310476Y-88348152D01*
X190310476Y-88348152D02*
X190405714Y-88395771D01*
X190405714Y-88395771D02*
X190453333Y-88443390D01*
X190453333Y-88443390D02*
X190500952Y-88538628D01*
X190500952Y-88538628D02*
X190500952Y-88824342D01*
X190500952Y-88824342D02*
X190453333Y-88919580D01*
X190453333Y-88919580D02*
X190405714Y-88967200D01*
X190405714Y-88967200D02*
X190310476Y-89014819D01*
X190310476Y-89014819D02*
X190167619Y-89014819D01*
X191691429Y-89014819D02*
X191691429Y-88014819D01*
X191691429Y-88491009D02*
X192262857Y-88491009D01*
X192262857Y-89014819D02*
X192262857Y-88014819D01*
X193120000Y-88967200D02*
X193024762Y-89014819D01*
X193024762Y-89014819D02*
X192834286Y-89014819D01*
X192834286Y-89014819D02*
X192739048Y-88967200D01*
X192739048Y-88967200D02*
X192691429Y-88871961D01*
X192691429Y-88871961D02*
X192691429Y-88491009D01*
X192691429Y-88491009D02*
X192739048Y-88395771D01*
X192739048Y-88395771D02*
X192834286Y-88348152D01*
X192834286Y-88348152D02*
X193024762Y-88348152D01*
X193024762Y-88348152D02*
X193120000Y-88395771D01*
X193120000Y-88395771D02*
X193167619Y-88491009D01*
X193167619Y-88491009D02*
X193167619Y-88586247D01*
X193167619Y-88586247D02*
X192691429Y-88681485D01*
X194024762Y-89014819D02*
X194024762Y-88491009D01*
X194024762Y-88491009D02*
X193977143Y-88395771D01*
X193977143Y-88395771D02*
X193881905Y-88348152D01*
X193881905Y-88348152D02*
X193691429Y-88348152D01*
X193691429Y-88348152D02*
X193596191Y-88395771D01*
X194024762Y-88967200D02*
X193929524Y-89014819D01*
X193929524Y-89014819D02*
X193691429Y-89014819D01*
X193691429Y-89014819D02*
X193596191Y-88967200D01*
X193596191Y-88967200D02*
X193548572Y-88871961D01*
X193548572Y-88871961D02*
X193548572Y-88776723D01*
X193548572Y-88776723D02*
X193596191Y-88681485D01*
X193596191Y-88681485D02*
X193691429Y-88633866D01*
X193691429Y-88633866D02*
X193929524Y-88633866D01*
X193929524Y-88633866D02*
X194024762Y-88586247D01*
X194929524Y-89014819D02*
X194929524Y-88014819D01*
X194929524Y-88967200D02*
X194834286Y-89014819D01*
X194834286Y-89014819D02*
X194643810Y-89014819D01*
X194643810Y-89014819D02*
X194548572Y-88967200D01*
X194548572Y-88967200D02*
X194500953Y-88919580D01*
X194500953Y-88919580D02*
X194453334Y-88824342D01*
X194453334Y-88824342D02*
X194453334Y-88538628D01*
X194453334Y-88538628D02*
X194500953Y-88443390D01*
X194500953Y-88443390D02*
X194548572Y-88395771D01*
X194548572Y-88395771D02*
X194643810Y-88348152D01*
X194643810Y-88348152D02*
X194834286Y-88348152D01*
X194834286Y-88348152D02*
X194929524Y-88395771D01*
X195786667Y-88967200D02*
X195691429Y-89014819D01*
X195691429Y-89014819D02*
X195500953Y-89014819D01*
X195500953Y-89014819D02*
X195405715Y-88967200D01*
X195405715Y-88967200D02*
X195358096Y-88871961D01*
X195358096Y-88871961D02*
X195358096Y-88491009D01*
X195358096Y-88491009D02*
X195405715Y-88395771D01*
X195405715Y-88395771D02*
X195500953Y-88348152D01*
X195500953Y-88348152D02*
X195691429Y-88348152D01*
X195691429Y-88348152D02*
X195786667Y-88395771D01*
X195786667Y-88395771D02*
X195834286Y-88491009D01*
X195834286Y-88491009D02*
X195834286Y-88586247D01*
X195834286Y-88586247D02*
X195358096Y-88681485D01*
X196262858Y-89014819D02*
X196262858Y-88348152D01*
X196262858Y-88538628D02*
X196310477Y-88443390D01*
X196310477Y-88443390D02*
X196358096Y-88395771D01*
X196358096Y-88395771D02*
X196453334Y-88348152D01*
X196453334Y-88348152D02*
X196548572Y-88348152D01*
X171640112Y-94486093D02*
X171306779Y-94486093D01*
X171306779Y-95009903D02*
X171306779Y-94009903D01*
X171306779Y-94009903D02*
X171782969Y-94009903D01*
X172306779Y-95009903D02*
X172211541Y-94962284D01*
X172211541Y-94962284D02*
X172163922Y-94867045D01*
X172163922Y-94867045D02*
X172163922Y-94009903D01*
X172687732Y-95009903D02*
X172687732Y-94343236D01*
X172687732Y-94009903D02*
X172640113Y-94057522D01*
X172640113Y-94057522D02*
X172687732Y-94105141D01*
X172687732Y-94105141D02*
X172735351Y-94057522D01*
X172735351Y-94057522D02*
X172687732Y-94009903D01*
X172687732Y-94009903D02*
X172687732Y-94105141D01*
X173592493Y-94343236D02*
X173592493Y-95152760D01*
X173592493Y-95152760D02*
X173544874Y-95247998D01*
X173544874Y-95247998D02*
X173497255Y-95295617D01*
X173497255Y-95295617D02*
X173402017Y-95343236D01*
X173402017Y-95343236D02*
X173259160Y-95343236D01*
X173259160Y-95343236D02*
X173163922Y-95295617D01*
X173592493Y-94962284D02*
X173497255Y-95009903D01*
X173497255Y-95009903D02*
X173306779Y-95009903D01*
X173306779Y-95009903D02*
X173211541Y-94962284D01*
X173211541Y-94962284D02*
X173163922Y-94914664D01*
X173163922Y-94914664D02*
X173116303Y-94819426D01*
X173116303Y-94819426D02*
X173116303Y-94533712D01*
X173116303Y-94533712D02*
X173163922Y-94438474D01*
X173163922Y-94438474D02*
X173211541Y-94390855D01*
X173211541Y-94390855D02*
X173306779Y-94343236D01*
X173306779Y-94343236D02*
X173497255Y-94343236D01*
X173497255Y-94343236D02*
X173592493Y-94390855D01*
X174068684Y-95009903D02*
X174068684Y-94009903D01*
X174497255Y-95009903D02*
X174497255Y-94486093D01*
X174497255Y-94486093D02*
X174449636Y-94390855D01*
X174449636Y-94390855D02*
X174354398Y-94343236D01*
X174354398Y-94343236D02*
X174211541Y-94343236D01*
X174211541Y-94343236D02*
X174116303Y-94390855D01*
X174116303Y-94390855D02*
X174068684Y-94438474D01*
X174830589Y-94343236D02*
X175211541Y-94343236D01*
X174973446Y-94009903D02*
X174973446Y-94867045D01*
X174973446Y-94867045D02*
X175021065Y-94962284D01*
X175021065Y-94962284D02*
X175116303Y-95009903D01*
X175116303Y-95009903D02*
X175211541Y-95009903D01*
X171878207Y-96524608D02*
X171830588Y-96572228D01*
X171830588Y-96572228D02*
X171687731Y-96619847D01*
X171687731Y-96619847D02*
X171592493Y-96619847D01*
X171592493Y-96619847D02*
X171449636Y-96572228D01*
X171449636Y-96572228D02*
X171354398Y-96476989D01*
X171354398Y-96476989D02*
X171306779Y-96381751D01*
X171306779Y-96381751D02*
X171259160Y-96191275D01*
X171259160Y-96191275D02*
X171259160Y-96048418D01*
X171259160Y-96048418D02*
X171306779Y-95857942D01*
X171306779Y-95857942D02*
X171354398Y-95762704D01*
X171354398Y-95762704D02*
X171449636Y-95667466D01*
X171449636Y-95667466D02*
X171592493Y-95619847D01*
X171592493Y-95619847D02*
X171687731Y-95619847D01*
X171687731Y-95619847D02*
X171830588Y-95667466D01*
X171830588Y-95667466D02*
X171878207Y-95715085D01*
X172449636Y-96619847D02*
X172354398Y-96572228D01*
X172354398Y-96572228D02*
X172306779Y-96524608D01*
X172306779Y-96524608D02*
X172259160Y-96429370D01*
X172259160Y-96429370D02*
X172259160Y-96143656D01*
X172259160Y-96143656D02*
X172306779Y-96048418D01*
X172306779Y-96048418D02*
X172354398Y-96000799D01*
X172354398Y-96000799D02*
X172449636Y-95953180D01*
X172449636Y-95953180D02*
X172592493Y-95953180D01*
X172592493Y-95953180D02*
X172687731Y-96000799D01*
X172687731Y-96000799D02*
X172735350Y-96048418D01*
X172735350Y-96048418D02*
X172782969Y-96143656D01*
X172782969Y-96143656D02*
X172782969Y-96429370D01*
X172782969Y-96429370D02*
X172735350Y-96524608D01*
X172735350Y-96524608D02*
X172687731Y-96572228D01*
X172687731Y-96572228D02*
X172592493Y-96619847D01*
X172592493Y-96619847D02*
X172449636Y-96619847D01*
X173211541Y-96619847D02*
X173211541Y-95953180D01*
X173211541Y-96048418D02*
X173259160Y-96000799D01*
X173259160Y-96000799D02*
X173354398Y-95953180D01*
X173354398Y-95953180D02*
X173497255Y-95953180D01*
X173497255Y-95953180D02*
X173592493Y-96000799D01*
X173592493Y-96000799D02*
X173640112Y-96096037D01*
X173640112Y-96096037D02*
X173640112Y-96619847D01*
X173640112Y-96096037D02*
X173687731Y-96000799D01*
X173687731Y-96000799D02*
X173782969Y-95953180D01*
X173782969Y-95953180D02*
X173925826Y-95953180D01*
X173925826Y-95953180D02*
X174021065Y-96000799D01*
X174021065Y-96000799D02*
X174068684Y-96096037D01*
X174068684Y-96096037D02*
X174068684Y-96619847D01*
X174544874Y-95953180D02*
X174544874Y-96953180D01*
X174544874Y-96000799D02*
X174640112Y-95953180D01*
X174640112Y-95953180D02*
X174830588Y-95953180D01*
X174830588Y-95953180D02*
X174925826Y-96000799D01*
X174925826Y-96000799D02*
X174973445Y-96048418D01*
X174973445Y-96048418D02*
X175021064Y-96143656D01*
X175021064Y-96143656D02*
X175021064Y-96429370D01*
X175021064Y-96429370D02*
X174973445Y-96524608D01*
X174973445Y-96524608D02*
X174925826Y-96572228D01*
X174925826Y-96572228D02*
X174830588Y-96619847D01*
X174830588Y-96619847D02*
X174640112Y-96619847D01*
X174640112Y-96619847D02*
X174544874Y-96572228D01*
X175878207Y-95953180D02*
X175878207Y-96619847D01*
X175449636Y-95953180D02*
X175449636Y-96476989D01*
X175449636Y-96476989D02*
X175497255Y-96572228D01*
X175497255Y-96572228D02*
X175592493Y-96619847D01*
X175592493Y-96619847D02*
X175735350Y-96619847D01*
X175735350Y-96619847D02*
X175830588Y-96572228D01*
X175830588Y-96572228D02*
X175878207Y-96524608D01*
X176211541Y-95953180D02*
X176592493Y-95953180D01*
X176354398Y-95619847D02*
X176354398Y-96476989D01*
X176354398Y-96476989D02*
X176402017Y-96572228D01*
X176402017Y-96572228D02*
X176497255Y-96619847D01*
X176497255Y-96619847D02*
X176592493Y-96619847D01*
X177306779Y-96572228D02*
X177211541Y-96619847D01*
X177211541Y-96619847D02*
X177021065Y-96619847D01*
X177021065Y-96619847D02*
X176925827Y-96572228D01*
X176925827Y-96572228D02*
X176878208Y-96476989D01*
X176878208Y-96476989D02*
X176878208Y-96096037D01*
X176878208Y-96096037D02*
X176925827Y-96000799D01*
X176925827Y-96000799D02*
X177021065Y-95953180D01*
X177021065Y-95953180D02*
X177211541Y-95953180D01*
X177211541Y-95953180D02*
X177306779Y-96000799D01*
X177306779Y-96000799D02*
X177354398Y-96096037D01*
X177354398Y-96096037D02*
X177354398Y-96191275D01*
X177354398Y-96191275D02*
X176878208Y-96286513D01*
X177782970Y-96619847D02*
X177782970Y-95953180D01*
X177782970Y-96143656D02*
X177830589Y-96048418D01*
X177830589Y-96048418D02*
X177878208Y-96000799D01*
X177878208Y-96000799D02*
X177973446Y-95953180D01*
X177973446Y-95953180D02*
X178068684Y-95953180D01*
X171306779Y-98229791D02*
X171306779Y-97229791D01*
X171306779Y-97229791D02*
X171687731Y-97229791D01*
X171687731Y-97229791D02*
X171782969Y-97277410D01*
X171782969Y-97277410D02*
X171830588Y-97325029D01*
X171830588Y-97325029D02*
X171878207Y-97420267D01*
X171878207Y-97420267D02*
X171878207Y-97563124D01*
X171878207Y-97563124D02*
X171830588Y-97658362D01*
X171830588Y-97658362D02*
X171782969Y-97705981D01*
X171782969Y-97705981D02*
X171687731Y-97753600D01*
X171687731Y-97753600D02*
X171306779Y-97753600D01*
X172878207Y-98134552D02*
X172830588Y-98182172D01*
X172830588Y-98182172D02*
X172687731Y-98229791D01*
X172687731Y-98229791D02*
X172592493Y-98229791D01*
X172592493Y-98229791D02*
X172449636Y-98182172D01*
X172449636Y-98182172D02*
X172354398Y-98086933D01*
X172354398Y-98086933D02*
X172306779Y-97991695D01*
X172306779Y-97991695D02*
X172259160Y-97801219D01*
X172259160Y-97801219D02*
X172259160Y-97658362D01*
X172259160Y-97658362D02*
X172306779Y-97467886D01*
X172306779Y-97467886D02*
X172354398Y-97372648D01*
X172354398Y-97372648D02*
X172449636Y-97277410D01*
X172449636Y-97277410D02*
X172592493Y-97229791D01*
X172592493Y-97229791D02*
X172687731Y-97229791D01*
X172687731Y-97229791D02*
X172830588Y-97277410D01*
X172830588Y-97277410D02*
X172878207Y-97325029D01*
X173640112Y-97705981D02*
X173782969Y-97753600D01*
X173782969Y-97753600D02*
X173830588Y-97801219D01*
X173830588Y-97801219D02*
X173878207Y-97896457D01*
X173878207Y-97896457D02*
X173878207Y-98039314D01*
X173878207Y-98039314D02*
X173830588Y-98134552D01*
X173830588Y-98134552D02*
X173782969Y-98182172D01*
X173782969Y-98182172D02*
X173687731Y-98229791D01*
X173687731Y-98229791D02*
X173306779Y-98229791D01*
X173306779Y-98229791D02*
X173306779Y-97229791D01*
X173306779Y-97229791D02*
X173640112Y-97229791D01*
X173640112Y-97229791D02*
X173735350Y-97277410D01*
X173735350Y-97277410D02*
X173782969Y-97325029D01*
X173782969Y-97325029D02*
X173830588Y-97420267D01*
X173830588Y-97420267D02*
X173830588Y-97515505D01*
X173830588Y-97515505D02*
X173782969Y-97610743D01*
X173782969Y-97610743D02*
X173735350Y-97658362D01*
X173735350Y-97658362D02*
X173640112Y-97705981D01*
X173640112Y-97705981D02*
X173306779Y-97705981D01*
X174973446Y-97563124D02*
X175211541Y-98229791D01*
X175211541Y-98229791D02*
X175449636Y-97563124D01*
X176354398Y-98229791D02*
X175782970Y-98229791D01*
X176068684Y-98229791D02*
X176068684Y-97229791D01*
X176068684Y-97229791D02*
X175973446Y-97372648D01*
X175973446Y-97372648D02*
X175878208Y-97467886D01*
X175878208Y-97467886D02*
X175782970Y-97515505D01*
X176782970Y-98134552D02*
X176830589Y-98182172D01*
X176830589Y-98182172D02*
X176782970Y-98229791D01*
X176782970Y-98229791D02*
X176735351Y-98182172D01*
X176735351Y-98182172D02*
X176782970Y-98134552D01*
X176782970Y-98134552D02*
X176782970Y-98229791D01*
X177449636Y-97229791D02*
X177544874Y-97229791D01*
X177544874Y-97229791D02*
X177640112Y-97277410D01*
X177640112Y-97277410D02*
X177687731Y-97325029D01*
X177687731Y-97325029D02*
X177735350Y-97420267D01*
X177735350Y-97420267D02*
X177782969Y-97610743D01*
X177782969Y-97610743D02*
X177782969Y-97848838D01*
X177782969Y-97848838D02*
X177735350Y-98039314D01*
X177735350Y-98039314D02*
X177687731Y-98134552D01*
X177687731Y-98134552D02*
X177640112Y-98182172D01*
X177640112Y-98182172D02*
X177544874Y-98229791D01*
X177544874Y-98229791D02*
X177449636Y-98229791D01*
X177449636Y-98229791D02*
X177354398Y-98182172D01*
X177354398Y-98182172D02*
X177306779Y-98134552D01*
X177306779Y-98134552D02*
X177259160Y-98039314D01*
X177259160Y-98039314D02*
X177211541Y-97848838D01*
X177211541Y-97848838D02*
X177211541Y-97610743D01*
X177211541Y-97610743D02*
X177259160Y-97420267D01*
X177259160Y-97420267D02*
X177306779Y-97325029D01*
X177306779Y-97325029D02*
X177354398Y-97277410D01*
X177354398Y-97277410D02*
X177449636Y-97229791D01*
X171497255Y-98839735D02*
X171687731Y-98839735D01*
X171687731Y-98839735D02*
X171782969Y-98887354D01*
X171782969Y-98887354D02*
X171878207Y-98982592D01*
X171878207Y-98982592D02*
X171925826Y-99173068D01*
X171925826Y-99173068D02*
X171925826Y-99506401D01*
X171925826Y-99506401D02*
X171878207Y-99696877D01*
X171878207Y-99696877D02*
X171782969Y-99792116D01*
X171782969Y-99792116D02*
X171687731Y-99839735D01*
X171687731Y-99839735D02*
X171497255Y-99839735D01*
X171497255Y-99839735D02*
X171402017Y-99792116D01*
X171402017Y-99792116D02*
X171306779Y-99696877D01*
X171306779Y-99696877D02*
X171259160Y-99506401D01*
X171259160Y-99506401D02*
X171259160Y-99173068D01*
X171259160Y-99173068D02*
X171306779Y-98982592D01*
X171306779Y-98982592D02*
X171402017Y-98887354D01*
X171402017Y-98887354D02*
X171497255Y-98839735D01*
X172925826Y-99744496D02*
X172878207Y-99792116D01*
X172878207Y-99792116D02*
X172735350Y-99839735D01*
X172735350Y-99839735D02*
X172640112Y-99839735D01*
X172640112Y-99839735D02*
X172497255Y-99792116D01*
X172497255Y-99792116D02*
X172402017Y-99696877D01*
X172402017Y-99696877D02*
X172354398Y-99601639D01*
X172354398Y-99601639D02*
X172306779Y-99411163D01*
X172306779Y-99411163D02*
X172306779Y-99268306D01*
X172306779Y-99268306D02*
X172354398Y-99077830D01*
X172354398Y-99077830D02*
X172402017Y-98982592D01*
X172402017Y-98982592D02*
X172497255Y-98887354D01*
X172497255Y-98887354D02*
X172640112Y-98839735D01*
X172640112Y-98839735D02*
X172735350Y-98839735D01*
X172735350Y-98839735D02*
X172878207Y-98887354D01*
X172878207Y-98887354D02*
X172925826Y-98934973D01*
X173211541Y-98839735D02*
X173782969Y-98839735D01*
X173497255Y-99839735D02*
X173497255Y-98839735D01*
X174830588Y-98792116D02*
X173973446Y-100077830D01*
X175116303Y-98934973D02*
X175163922Y-98887354D01*
X175163922Y-98887354D02*
X175259160Y-98839735D01*
X175259160Y-98839735D02*
X175497255Y-98839735D01*
X175497255Y-98839735D02*
X175592493Y-98887354D01*
X175592493Y-98887354D02*
X175640112Y-98934973D01*
X175640112Y-98934973D02*
X175687731Y-99030211D01*
X175687731Y-99030211D02*
X175687731Y-99125449D01*
X175687731Y-99125449D02*
X175640112Y-99268306D01*
X175640112Y-99268306D02*
X175068684Y-99839735D01*
X175068684Y-99839735D02*
X175687731Y-99839735D01*
X176021065Y-98839735D02*
X176640112Y-98839735D01*
X176640112Y-98839735D02*
X176306779Y-99220687D01*
X176306779Y-99220687D02*
X176449636Y-99220687D01*
X176449636Y-99220687D02*
X176544874Y-99268306D01*
X176544874Y-99268306D02*
X176592493Y-99315925D01*
X176592493Y-99315925D02*
X176640112Y-99411163D01*
X176640112Y-99411163D02*
X176640112Y-99649258D01*
X176640112Y-99649258D02*
X176592493Y-99744496D01*
X176592493Y-99744496D02*
X176544874Y-99792116D01*
X176544874Y-99792116D02*
X176449636Y-99839735D01*
X176449636Y-99839735D02*
X176163922Y-99839735D01*
X176163922Y-99839735D02*
X176068684Y-99792116D01*
X176068684Y-99792116D02*
X176021065Y-99744496D01*
X177782969Y-98792116D02*
X176925827Y-100077830D01*
X178068684Y-98934973D02*
X178116303Y-98887354D01*
X178116303Y-98887354D02*
X178211541Y-98839735D01*
X178211541Y-98839735D02*
X178449636Y-98839735D01*
X178449636Y-98839735D02*
X178544874Y-98887354D01*
X178544874Y-98887354D02*
X178592493Y-98934973D01*
X178592493Y-98934973D02*
X178640112Y-99030211D01*
X178640112Y-99030211D02*
X178640112Y-99125449D01*
X178640112Y-99125449D02*
X178592493Y-99268306D01*
X178592493Y-99268306D02*
X178021065Y-99839735D01*
X178021065Y-99839735D02*
X178640112Y-99839735D01*
X179259160Y-98839735D02*
X179354398Y-98839735D01*
X179354398Y-98839735D02*
X179449636Y-98887354D01*
X179449636Y-98887354D02*
X179497255Y-98934973D01*
X179497255Y-98934973D02*
X179544874Y-99030211D01*
X179544874Y-99030211D02*
X179592493Y-99220687D01*
X179592493Y-99220687D02*
X179592493Y-99458782D01*
X179592493Y-99458782D02*
X179544874Y-99649258D01*
X179544874Y-99649258D02*
X179497255Y-99744496D01*
X179497255Y-99744496D02*
X179449636Y-99792116D01*
X179449636Y-99792116D02*
X179354398Y-99839735D01*
X179354398Y-99839735D02*
X179259160Y-99839735D01*
X179259160Y-99839735D02*
X179163922Y-99792116D01*
X179163922Y-99792116D02*
X179116303Y-99744496D01*
X179116303Y-99744496D02*
X179068684Y-99649258D01*
X179068684Y-99649258D02*
X179021065Y-99458782D01*
X179021065Y-99458782D02*
X179021065Y-99220687D01*
X179021065Y-99220687D02*
X179068684Y-99030211D01*
X179068684Y-99030211D02*
X179116303Y-98934973D01*
X179116303Y-98934973D02*
X179163922Y-98887354D01*
X179163922Y-98887354D02*
X179259160Y-98839735D01*
X179973446Y-98934973D02*
X180021065Y-98887354D01*
X180021065Y-98887354D02*
X180116303Y-98839735D01*
X180116303Y-98839735D02*
X180354398Y-98839735D01*
X180354398Y-98839735D02*
X180449636Y-98887354D01*
X180449636Y-98887354D02*
X180497255Y-98934973D01*
X180497255Y-98934973D02*
X180544874Y-99030211D01*
X180544874Y-99030211D02*
X180544874Y-99125449D01*
X180544874Y-99125449D02*
X180497255Y-99268306D01*
X180497255Y-99268306D02*
X179925827Y-99839735D01*
X179925827Y-99839735D02*
X180544874Y-99839735D01*
X181449636Y-98839735D02*
X180973446Y-98839735D01*
X180973446Y-98839735D02*
X180925827Y-99315925D01*
X180925827Y-99315925D02*
X180973446Y-99268306D01*
X180973446Y-99268306D02*
X181068684Y-99220687D01*
X181068684Y-99220687D02*
X181306779Y-99220687D01*
X181306779Y-99220687D02*
X181402017Y-99268306D01*
X181402017Y-99268306D02*
X181449636Y-99315925D01*
X181449636Y-99315925D02*
X181497255Y-99411163D01*
X181497255Y-99411163D02*
X181497255Y-99649258D01*
X181497255Y-99649258D02*
X181449636Y-99744496D01*
X181449636Y-99744496D02*
X181402017Y-99792116D01*
X181402017Y-99792116D02*
X181306779Y-99839735D01*
X181306779Y-99839735D02*
X181068684Y-99839735D01*
X181068684Y-99839735D02*
X180973446Y-99792116D01*
X180973446Y-99792116D02*
X180925827Y-99744496D01*
D11*
X187193863Y-92113640D02*
X187117673Y-92075545D01*
X187117673Y-92075545D02*
X187003387Y-92075545D01*
X187003387Y-92075545D02*
X186889101Y-92113640D01*
X186889101Y-92113640D02*
X186812911Y-92189830D01*
X186812911Y-92189830D02*
X186774816Y-92266021D01*
X186774816Y-92266021D02*
X186736720Y-92418402D01*
X186736720Y-92418402D02*
X186736720Y-92532688D01*
X186736720Y-92532688D02*
X186774816Y-92685069D01*
X186774816Y-92685069D02*
X186812911Y-92761259D01*
X186812911Y-92761259D02*
X186889101Y-92837450D01*
X186889101Y-92837450D02*
X187003387Y-92875545D01*
X187003387Y-92875545D02*
X187079578Y-92875545D01*
X187079578Y-92875545D02*
X187193863Y-92837450D01*
X187193863Y-92837450D02*
X187231959Y-92799354D01*
X187231959Y-92799354D02*
X187231959Y-92532688D01*
X187231959Y-92532688D02*
X187079578Y-92532688D01*
X187574816Y-92875545D02*
X187574816Y-92075545D01*
X187574816Y-92075545D02*
X188031959Y-92875545D01*
X188031959Y-92875545D02*
X188031959Y-92075545D01*
X188412911Y-92875545D02*
X188412911Y-92075545D01*
X188412911Y-92075545D02*
X188603387Y-92075545D01*
X188603387Y-92075545D02*
X188717673Y-92113640D01*
X188717673Y-92113640D02*
X188793863Y-92189830D01*
X188793863Y-92189830D02*
X188831958Y-92266021D01*
X188831958Y-92266021D02*
X188870054Y-92418402D01*
X188870054Y-92418402D02*
X188870054Y-92532688D01*
X188870054Y-92532688D02*
X188831958Y-92685069D01*
X188831958Y-92685069D02*
X188793863Y-92761259D01*
X188793863Y-92761259D02*
X188717673Y-92837450D01*
X188717673Y-92837450D02*
X188603387Y-92875545D01*
X188603387Y-92875545D02*
X188412911Y-92875545D01*
X194599945Y-94693473D02*
X194714231Y-94731568D01*
X194714231Y-94731568D02*
X194904707Y-94731568D01*
X194904707Y-94731568D02*
X194980898Y-94693473D01*
X194980898Y-94693473D02*
X195018993Y-94655377D01*
X195018993Y-94655377D02*
X195057088Y-94579187D01*
X195057088Y-94579187D02*
X195057088Y-94502996D01*
X195057088Y-94502996D02*
X195018993Y-94426806D01*
X195018993Y-94426806D02*
X194980898Y-94388711D01*
X194980898Y-94388711D02*
X194904707Y-94350615D01*
X194904707Y-94350615D02*
X194752326Y-94312520D01*
X194752326Y-94312520D02*
X194676136Y-94274425D01*
X194676136Y-94274425D02*
X194638041Y-94236330D01*
X194638041Y-94236330D02*
X194599945Y-94160139D01*
X194599945Y-94160139D02*
X194599945Y-94083949D01*
X194599945Y-94083949D02*
X194638041Y-94007758D01*
X194638041Y-94007758D02*
X194676136Y-93969663D01*
X194676136Y-93969663D02*
X194752326Y-93931568D01*
X194752326Y-93931568D02*
X194942803Y-93931568D01*
X194942803Y-93931568D02*
X195057088Y-93969663D01*
X195399946Y-94312520D02*
X195666612Y-94312520D01*
X195780898Y-94731568D02*
X195399946Y-94731568D01*
X195399946Y-94731568D02*
X195399946Y-93931568D01*
X195399946Y-93931568D02*
X195780898Y-93931568D01*
X196580899Y-94731568D02*
X196314232Y-94350615D01*
X196123756Y-94731568D02*
X196123756Y-93931568D01*
X196123756Y-93931568D02*
X196428518Y-93931568D01*
X196428518Y-93931568D02*
X196504708Y-93969663D01*
X196504708Y-93969663D02*
X196542803Y-94007758D01*
X196542803Y-94007758D02*
X196580899Y-94083949D01*
X196580899Y-94083949D02*
X196580899Y-94198234D01*
X196580899Y-94198234D02*
X196542803Y-94274425D01*
X196542803Y-94274425D02*
X196504708Y-94312520D01*
X196504708Y-94312520D02*
X196428518Y-94350615D01*
X196428518Y-94350615D02*
X196123756Y-94350615D01*
X196809470Y-93931568D02*
X197076137Y-94731568D01*
X197076137Y-94731568D02*
X197342803Y-93931568D01*
X197761851Y-93931568D02*
X197914232Y-93931568D01*
X197914232Y-93931568D02*
X197990422Y-93969663D01*
X197990422Y-93969663D02*
X198066613Y-94045853D01*
X198066613Y-94045853D02*
X198104708Y-94198234D01*
X198104708Y-94198234D02*
X198104708Y-94464901D01*
X198104708Y-94464901D02*
X198066613Y-94617282D01*
X198066613Y-94617282D02*
X197990422Y-94693473D01*
X197990422Y-94693473D02*
X197914232Y-94731568D01*
X197914232Y-94731568D02*
X197761851Y-94731568D01*
X197761851Y-94731568D02*
X197685660Y-94693473D01*
X197685660Y-94693473D02*
X197609470Y-94617282D01*
X197609470Y-94617282D02*
X197571374Y-94464901D01*
X197571374Y-94464901D02*
X197571374Y-94198234D01*
X197571374Y-94198234D02*
X197609470Y-94045853D01*
X197609470Y-94045853D02*
X197685660Y-93969663D01*
X197685660Y-93969663D02*
X197761851Y-93931568D01*
X194447565Y-96095713D02*
X195057088Y-96095713D01*
X195628517Y-95219523D02*
X195247565Y-95219523D01*
X195247565Y-95219523D02*
X195209469Y-95600475D01*
X195209469Y-95600475D02*
X195247565Y-95562380D01*
X195247565Y-95562380D02*
X195323755Y-95524285D01*
X195323755Y-95524285D02*
X195514231Y-95524285D01*
X195514231Y-95524285D02*
X195590422Y-95562380D01*
X195590422Y-95562380D02*
X195628517Y-95600475D01*
X195628517Y-95600475D02*
X195666612Y-95676666D01*
X195666612Y-95676666D02*
X195666612Y-95867142D01*
X195666612Y-95867142D02*
X195628517Y-95943332D01*
X195628517Y-95943332D02*
X195590422Y-95981428D01*
X195590422Y-95981428D02*
X195514231Y-96019523D01*
X195514231Y-96019523D02*
X195323755Y-96019523D01*
X195323755Y-96019523D02*
X195247565Y-95981428D01*
X195247565Y-95981428D02*
X195209469Y-95943332D01*
X195895184Y-95219523D02*
X196161851Y-96019523D01*
X196161851Y-96019523D02*
X196428517Y-95219523D01*
X195077088Y-92183640D02*
X195000898Y-92145545D01*
X195000898Y-92145545D02*
X194886612Y-92145545D01*
X194886612Y-92145545D02*
X194772326Y-92183640D01*
X194772326Y-92183640D02*
X194696136Y-92259830D01*
X194696136Y-92259830D02*
X194658041Y-92336021D01*
X194658041Y-92336021D02*
X194619945Y-92488402D01*
X194619945Y-92488402D02*
X194619945Y-92602688D01*
X194619945Y-92602688D02*
X194658041Y-92755069D01*
X194658041Y-92755069D02*
X194696136Y-92831259D01*
X194696136Y-92831259D02*
X194772326Y-92907450D01*
X194772326Y-92907450D02*
X194886612Y-92945545D01*
X194886612Y-92945545D02*
X194962803Y-92945545D01*
X194962803Y-92945545D02*
X195077088Y-92907450D01*
X195077088Y-92907450D02*
X195115184Y-92869354D01*
X195115184Y-92869354D02*
X195115184Y-92602688D01*
X195115184Y-92602688D02*
X194962803Y-92602688D01*
X195458041Y-92945545D02*
X195458041Y-92145545D01*
X195458041Y-92145545D02*
X195915184Y-92945545D01*
X195915184Y-92945545D02*
X195915184Y-92145545D01*
X196296136Y-92945545D02*
X196296136Y-92145545D01*
X196296136Y-92145545D02*
X196486612Y-92145545D01*
X196486612Y-92145545D02*
X196600898Y-92183640D01*
X196600898Y-92183640D02*
X196677088Y-92259830D01*
X196677088Y-92259830D02*
X196715183Y-92336021D01*
X196715183Y-92336021D02*
X196753279Y-92488402D01*
X196753279Y-92488402D02*
X196753279Y-92602688D01*
X196753279Y-92602688D02*
X196715183Y-92755069D01*
X196715183Y-92755069D02*
X196677088Y-92831259D01*
X196677088Y-92831259D02*
X196600898Y-92907450D01*
X196600898Y-92907450D02*
X196486612Y-92945545D01*
X196486612Y-92945545D02*
X196296136Y-92945545D01*
X185325291Y-94683473D02*
X185439577Y-94721568D01*
X185439577Y-94721568D02*
X185630053Y-94721568D01*
X185630053Y-94721568D02*
X185706244Y-94683473D01*
X185706244Y-94683473D02*
X185744339Y-94645377D01*
X185744339Y-94645377D02*
X185782434Y-94569187D01*
X185782434Y-94569187D02*
X185782434Y-94492996D01*
X185782434Y-94492996D02*
X185744339Y-94416806D01*
X185744339Y-94416806D02*
X185706244Y-94378711D01*
X185706244Y-94378711D02*
X185630053Y-94340615D01*
X185630053Y-94340615D02*
X185477672Y-94302520D01*
X185477672Y-94302520D02*
X185401482Y-94264425D01*
X185401482Y-94264425D02*
X185363387Y-94226330D01*
X185363387Y-94226330D02*
X185325291Y-94150139D01*
X185325291Y-94150139D02*
X185325291Y-94073949D01*
X185325291Y-94073949D02*
X185363387Y-93997758D01*
X185363387Y-93997758D02*
X185401482Y-93959663D01*
X185401482Y-93959663D02*
X185477672Y-93921568D01*
X185477672Y-93921568D02*
X185668149Y-93921568D01*
X185668149Y-93921568D02*
X185782434Y-93959663D01*
X186125292Y-94302520D02*
X186391958Y-94302520D01*
X186506244Y-94721568D02*
X186125292Y-94721568D01*
X186125292Y-94721568D02*
X186125292Y-93921568D01*
X186125292Y-93921568D02*
X186506244Y-93921568D01*
X187306245Y-94721568D02*
X187039578Y-94340615D01*
X186849102Y-94721568D02*
X186849102Y-93921568D01*
X186849102Y-93921568D02*
X187153864Y-93921568D01*
X187153864Y-93921568D02*
X187230054Y-93959663D01*
X187230054Y-93959663D02*
X187268149Y-93997758D01*
X187268149Y-93997758D02*
X187306245Y-94073949D01*
X187306245Y-94073949D02*
X187306245Y-94188234D01*
X187306245Y-94188234D02*
X187268149Y-94264425D01*
X187268149Y-94264425D02*
X187230054Y-94302520D01*
X187230054Y-94302520D02*
X187153864Y-94340615D01*
X187153864Y-94340615D02*
X186849102Y-94340615D01*
X187534816Y-93921568D02*
X187801483Y-94721568D01*
X187801483Y-94721568D02*
X188068149Y-93921568D01*
X188487197Y-93921568D02*
X188639578Y-93921568D01*
X188639578Y-93921568D02*
X188715768Y-93959663D01*
X188715768Y-93959663D02*
X188791959Y-94035853D01*
X188791959Y-94035853D02*
X188830054Y-94188234D01*
X188830054Y-94188234D02*
X188830054Y-94454901D01*
X188830054Y-94454901D02*
X188791959Y-94607282D01*
X188791959Y-94607282D02*
X188715768Y-94683473D01*
X188715768Y-94683473D02*
X188639578Y-94721568D01*
X188639578Y-94721568D02*
X188487197Y-94721568D01*
X188487197Y-94721568D02*
X188411006Y-94683473D01*
X188411006Y-94683473D02*
X188334816Y-94607282D01*
X188334816Y-94607282D02*
X188296720Y-94454901D01*
X188296720Y-94454901D02*
X188296720Y-94188234D01*
X188296720Y-94188234D02*
X188334816Y-94035853D01*
X188334816Y-94035853D02*
X188411006Y-93959663D01*
X188411006Y-93959663D02*
X188487197Y-93921568D01*
X186925292Y-96085713D02*
X187534815Y-96085713D01*
X188106244Y-95209523D02*
X187725292Y-95209523D01*
X187725292Y-95209523D02*
X187687196Y-95590475D01*
X187687196Y-95590475D02*
X187725292Y-95552380D01*
X187725292Y-95552380D02*
X187801482Y-95514285D01*
X187801482Y-95514285D02*
X187991958Y-95514285D01*
X187991958Y-95514285D02*
X188068149Y-95552380D01*
X188068149Y-95552380D02*
X188106244Y-95590475D01*
X188106244Y-95590475D02*
X188144339Y-95666666D01*
X188144339Y-95666666D02*
X188144339Y-95857142D01*
X188144339Y-95857142D02*
X188106244Y-95933332D01*
X188106244Y-95933332D02*
X188068149Y-95971428D01*
X188068149Y-95971428D02*
X187991958Y-96009523D01*
X187991958Y-96009523D02*
X187801482Y-96009523D01*
X187801482Y-96009523D02*
X187725292Y-95971428D01*
X187725292Y-95971428D02*
X187687196Y-95933332D01*
X188372911Y-95209523D02*
X188639578Y-96009523D01*
X188639578Y-96009523D02*
X188906244Y-95209523D01*
X185044815Y-97341568D02*
X185044815Y-96541568D01*
X185044815Y-96541568D02*
X185349577Y-96541568D01*
X185349577Y-96541568D02*
X185425767Y-96579663D01*
X185425767Y-96579663D02*
X185463862Y-96617758D01*
X185463862Y-96617758D02*
X185501958Y-96693949D01*
X185501958Y-96693949D02*
X185501958Y-96808234D01*
X185501958Y-96808234D02*
X185463862Y-96884425D01*
X185463862Y-96884425D02*
X185425767Y-96922520D01*
X185425767Y-96922520D02*
X185349577Y-96960615D01*
X185349577Y-96960615D02*
X185044815Y-96960615D01*
X185768624Y-96541568D02*
X185959100Y-97341568D01*
X185959100Y-97341568D02*
X186111481Y-96770139D01*
X186111481Y-96770139D02*
X186263862Y-97341568D01*
X186263862Y-97341568D02*
X186454339Y-96541568D01*
X186759101Y-97341568D02*
X186759101Y-96541568D01*
X186759101Y-96541568D02*
X187025767Y-97112996D01*
X187025767Y-97112996D02*
X187292434Y-96541568D01*
X187292434Y-96541568D02*
X187292434Y-97341568D01*
X187482911Y-97417758D02*
X188092434Y-97417758D01*
X188549577Y-96922520D02*
X188663863Y-96960615D01*
X188663863Y-96960615D02*
X188701958Y-96998711D01*
X188701958Y-96998711D02*
X188740054Y-97074901D01*
X188740054Y-97074901D02*
X188740054Y-97189187D01*
X188740054Y-97189187D02*
X188701958Y-97265377D01*
X188701958Y-97265377D02*
X188663863Y-97303473D01*
X188663863Y-97303473D02*
X188587673Y-97341568D01*
X188587673Y-97341568D02*
X188282911Y-97341568D01*
X188282911Y-97341568D02*
X188282911Y-96541568D01*
X188282911Y-96541568D02*
X188549577Y-96541568D01*
X188549577Y-96541568D02*
X188625768Y-96579663D01*
X188625768Y-96579663D02*
X188663863Y-96617758D01*
X188663863Y-96617758D02*
X188701958Y-96693949D01*
X188701958Y-96693949D02*
X188701958Y-96770139D01*
X188701958Y-96770139D02*
X188663863Y-96846330D01*
X188663863Y-96846330D02*
X188625768Y-96884425D01*
X188625768Y-96884425D02*
X188549577Y-96922520D01*
X188549577Y-96922520D02*
X188282911Y-96922520D01*
X185921006Y-98934285D02*
X185882911Y-98896189D01*
X185882911Y-98896189D02*
X185806720Y-98781904D01*
X185806720Y-98781904D02*
X185768625Y-98705713D01*
X185768625Y-98705713D02*
X185730530Y-98591428D01*
X185730530Y-98591428D02*
X185692435Y-98400951D01*
X185692435Y-98400951D02*
X185692435Y-98248570D01*
X185692435Y-98248570D02*
X185730530Y-98058094D01*
X185730530Y-98058094D02*
X185768625Y-97943808D01*
X185768625Y-97943808D02*
X185806720Y-97867618D01*
X185806720Y-97867618D02*
X185882911Y-97753332D01*
X185882911Y-97753332D02*
X185921006Y-97715237D01*
X186225768Y-98629523D02*
X186225768Y-97829523D01*
X186225768Y-97829523D02*
X186416244Y-97829523D01*
X186416244Y-97829523D02*
X186530530Y-97867618D01*
X186530530Y-97867618D02*
X186606720Y-97943808D01*
X186606720Y-97943808D02*
X186644815Y-98019999D01*
X186644815Y-98019999D02*
X186682911Y-98172380D01*
X186682911Y-98172380D02*
X186682911Y-98286666D01*
X186682911Y-98286666D02*
X186644815Y-98439047D01*
X186644815Y-98439047D02*
X186606720Y-98515237D01*
X186606720Y-98515237D02*
X186530530Y-98591428D01*
X186530530Y-98591428D02*
X186416244Y-98629523D01*
X186416244Y-98629523D02*
X186225768Y-98629523D01*
X187444815Y-98629523D02*
X186987672Y-98629523D01*
X187216244Y-98629523D02*
X187216244Y-97829523D01*
X187216244Y-97829523D02*
X187140053Y-97943808D01*
X187140053Y-97943808D02*
X187063863Y-98019999D01*
X187063863Y-98019999D02*
X186987672Y-98058094D01*
X187940054Y-97829523D02*
X188016244Y-97829523D01*
X188016244Y-97829523D02*
X188092435Y-97867618D01*
X188092435Y-97867618D02*
X188130530Y-97905713D01*
X188130530Y-97905713D02*
X188168625Y-97981904D01*
X188168625Y-97981904D02*
X188206720Y-98134285D01*
X188206720Y-98134285D02*
X188206720Y-98324761D01*
X188206720Y-98324761D02*
X188168625Y-98477142D01*
X188168625Y-98477142D02*
X188130530Y-98553332D01*
X188130530Y-98553332D02*
X188092435Y-98591428D01*
X188092435Y-98591428D02*
X188016244Y-98629523D01*
X188016244Y-98629523D02*
X187940054Y-98629523D01*
X187940054Y-98629523D02*
X187863863Y-98591428D01*
X187863863Y-98591428D02*
X187825768Y-98553332D01*
X187825768Y-98553332D02*
X187787673Y-98477142D01*
X187787673Y-98477142D02*
X187749577Y-98324761D01*
X187749577Y-98324761D02*
X187749577Y-98134285D01*
X187749577Y-98134285D02*
X187787673Y-97981904D01*
X187787673Y-97981904D02*
X187825768Y-97905713D01*
X187825768Y-97905713D02*
X187863863Y-97867618D01*
X187863863Y-97867618D02*
X187940054Y-97829523D01*
X188473387Y-98934285D02*
X188511482Y-98896189D01*
X188511482Y-98896189D02*
X188587673Y-98781904D01*
X188587673Y-98781904D02*
X188625768Y-98705713D01*
X188625768Y-98705713D02*
X188663863Y-98591428D01*
X188663863Y-98591428D02*
X188701959Y-98400951D01*
X188701959Y-98400951D02*
X188701959Y-98248570D01*
X188701959Y-98248570D02*
X188663863Y-98058094D01*
X188663863Y-98058094D02*
X188625768Y-97943808D01*
X188625768Y-97943808D02*
X188587673Y-97867618D01*
X188587673Y-97867618D02*
X188511482Y-97753332D01*
X188511482Y-97753332D02*
X188473387Y-97715237D01*
D10*
X190752857Y-70309104D02*
X191229047Y-70309104D01*
X190657619Y-70594819D02*
X190990952Y-69594819D01*
X190990952Y-69594819D02*
X191324285Y-70594819D01*
X191657619Y-70594819D02*
X191657619Y-69928152D01*
X191657619Y-70118628D02*
X191705238Y-70023390D01*
X191705238Y-70023390D02*
X191752857Y-69975771D01*
X191752857Y-69975771D02*
X191848095Y-69928152D01*
X191848095Y-69928152D02*
X191943333Y-69928152D01*
X192705238Y-70594819D02*
X192705238Y-69594819D01*
X192705238Y-70547200D02*
X192610000Y-70594819D01*
X192610000Y-70594819D02*
X192419524Y-70594819D01*
X192419524Y-70594819D02*
X192324286Y-70547200D01*
X192324286Y-70547200D02*
X192276667Y-70499580D01*
X192276667Y-70499580D02*
X192229048Y-70404342D01*
X192229048Y-70404342D02*
X192229048Y-70118628D01*
X192229048Y-70118628D02*
X192276667Y-70023390D01*
X192276667Y-70023390D02*
X192324286Y-69975771D01*
X192324286Y-69975771D02*
X192419524Y-69928152D01*
X192419524Y-69928152D02*
X192610000Y-69928152D01*
X192610000Y-69928152D02*
X192705238Y-69975771D01*
X193610000Y-69928152D02*
X193610000Y-70594819D01*
X193181429Y-69928152D02*
X193181429Y-70451961D01*
X193181429Y-70451961D02*
X193229048Y-70547200D01*
X193229048Y-70547200D02*
X193324286Y-70594819D01*
X193324286Y-70594819D02*
X193467143Y-70594819D01*
X193467143Y-70594819D02*
X193562381Y-70547200D01*
X193562381Y-70547200D02*
X193610000Y-70499580D01*
X194086191Y-70594819D02*
X194086191Y-69928152D01*
X194086191Y-69594819D02*
X194038572Y-69642438D01*
X194038572Y-69642438D02*
X194086191Y-69690057D01*
X194086191Y-69690057D02*
X194133810Y-69642438D01*
X194133810Y-69642438D02*
X194086191Y-69594819D01*
X194086191Y-69594819D02*
X194086191Y-69690057D01*
X194562381Y-69928152D02*
X194562381Y-70594819D01*
X194562381Y-70023390D02*
X194610000Y-69975771D01*
X194610000Y-69975771D02*
X194705238Y-69928152D01*
X194705238Y-69928152D02*
X194848095Y-69928152D01*
X194848095Y-69928152D02*
X194943333Y-69975771D01*
X194943333Y-69975771D02*
X194990952Y-70071009D01*
X194990952Y-70071009D02*
X194990952Y-70594819D01*
X195610000Y-70594819D02*
X195514762Y-70547200D01*
X195514762Y-70547200D02*
X195467143Y-70499580D01*
X195467143Y-70499580D02*
X195419524Y-70404342D01*
X195419524Y-70404342D02*
X195419524Y-70118628D01*
X195419524Y-70118628D02*
X195467143Y-70023390D01*
X195467143Y-70023390D02*
X195514762Y-69975771D01*
X195514762Y-69975771D02*
X195610000Y-69928152D01*
X195610000Y-69928152D02*
X195752857Y-69928152D01*
X195752857Y-69928152D02*
X195848095Y-69975771D01*
X195848095Y-69975771D02*
X195895714Y-70023390D01*
X195895714Y-70023390D02*
X195943333Y-70118628D01*
X195943333Y-70118628D02*
X195943333Y-70404342D01*
X195943333Y-70404342D02*
X195895714Y-70499580D01*
X195895714Y-70499580D02*
X195848095Y-70547200D01*
X195848095Y-70547200D02*
X195752857Y-70594819D01*
X195752857Y-70594819D02*
X195610000Y-70594819D01*
X197133810Y-70594819D02*
X197133810Y-69594819D01*
X197133810Y-69594819D02*
X197705238Y-70594819D01*
X197705238Y-70594819D02*
X197705238Y-69594819D01*
X198610000Y-70594819D02*
X198610000Y-70071009D01*
X198610000Y-70071009D02*
X198562381Y-69975771D01*
X198562381Y-69975771D02*
X198467143Y-69928152D01*
X198467143Y-69928152D02*
X198276667Y-69928152D01*
X198276667Y-69928152D02*
X198181429Y-69975771D01*
X198610000Y-70547200D02*
X198514762Y-70594819D01*
X198514762Y-70594819D02*
X198276667Y-70594819D01*
X198276667Y-70594819D02*
X198181429Y-70547200D01*
X198181429Y-70547200D02*
X198133810Y-70451961D01*
X198133810Y-70451961D02*
X198133810Y-70356723D01*
X198133810Y-70356723D02*
X198181429Y-70261485D01*
X198181429Y-70261485D02*
X198276667Y-70213866D01*
X198276667Y-70213866D02*
X198514762Y-70213866D01*
X198514762Y-70213866D02*
X198610000Y-70166247D01*
X199086191Y-69928152D02*
X199086191Y-70594819D01*
X199086191Y-70023390D02*
X199133810Y-69975771D01*
X199133810Y-69975771D02*
X199229048Y-69928152D01*
X199229048Y-69928152D02*
X199371905Y-69928152D01*
X199371905Y-69928152D02*
X199467143Y-69975771D01*
X199467143Y-69975771D02*
X199514762Y-70071009D01*
X199514762Y-70071009D02*
X199514762Y-70594819D01*
X200133810Y-70594819D02*
X200038572Y-70547200D01*
X200038572Y-70547200D02*
X199990953Y-70499580D01*
X199990953Y-70499580D02*
X199943334Y-70404342D01*
X199943334Y-70404342D02*
X199943334Y-70118628D01*
X199943334Y-70118628D02*
X199990953Y-70023390D01*
X199990953Y-70023390D02*
X200038572Y-69975771D01*
X200038572Y-69975771D02*
X200133810Y-69928152D01*
X200133810Y-69928152D02*
X200276667Y-69928152D01*
X200276667Y-69928152D02*
X200371905Y-69975771D01*
X200371905Y-69975771D02*
X200419524Y-70023390D01*
X200419524Y-70023390D02*
X200467143Y-70118628D01*
X200467143Y-70118628D02*
X200467143Y-70404342D01*
X200467143Y-70404342D02*
X200419524Y-70499580D01*
X200419524Y-70499580D02*
X200371905Y-70547200D01*
X200371905Y-70547200D02*
X200276667Y-70594819D01*
X200276667Y-70594819D02*
X200133810Y-70594819D01*
D11*
X194588041Y-97261568D02*
X194588041Y-96461568D01*
X194588041Y-96461568D02*
X194892803Y-96461568D01*
X194892803Y-96461568D02*
X194968993Y-96499663D01*
X194968993Y-96499663D02*
X195007088Y-96537758D01*
X195007088Y-96537758D02*
X195045184Y-96613949D01*
X195045184Y-96613949D02*
X195045184Y-96728234D01*
X195045184Y-96728234D02*
X195007088Y-96804425D01*
X195007088Y-96804425D02*
X194968993Y-96842520D01*
X194968993Y-96842520D02*
X194892803Y-96880615D01*
X194892803Y-96880615D02*
X194588041Y-96880615D01*
X195311850Y-96461568D02*
X195502326Y-97261568D01*
X195502326Y-97261568D02*
X195654707Y-96690139D01*
X195654707Y-96690139D02*
X195807088Y-97261568D01*
X195807088Y-97261568D02*
X195997565Y-96461568D01*
X196302327Y-97261568D02*
X196302327Y-96461568D01*
X196302327Y-96461568D02*
X196568993Y-97032996D01*
X196568993Y-97032996D02*
X196835660Y-96461568D01*
X196835660Y-96461568D02*
X196835660Y-97261568D01*
X197026137Y-97337758D02*
X197635660Y-97337758D01*
X197788041Y-97032996D02*
X198168994Y-97032996D01*
X197711851Y-97261568D02*
X197978518Y-96461568D01*
X197978518Y-96461568D02*
X198245184Y-97261568D01*
X194816612Y-98854285D02*
X194778517Y-98816189D01*
X194778517Y-98816189D02*
X194702326Y-98701904D01*
X194702326Y-98701904D02*
X194664231Y-98625713D01*
X194664231Y-98625713D02*
X194626136Y-98511428D01*
X194626136Y-98511428D02*
X194588041Y-98320951D01*
X194588041Y-98320951D02*
X194588041Y-98168570D01*
X194588041Y-98168570D02*
X194626136Y-97978094D01*
X194626136Y-97978094D02*
X194664231Y-97863808D01*
X194664231Y-97863808D02*
X194702326Y-97787618D01*
X194702326Y-97787618D02*
X194778517Y-97673332D01*
X194778517Y-97673332D02*
X194816612Y-97635237D01*
X195121374Y-98549523D02*
X195121374Y-97749523D01*
X195121374Y-97749523D02*
X195311850Y-97749523D01*
X195311850Y-97749523D02*
X195426136Y-97787618D01*
X195426136Y-97787618D02*
X195502326Y-97863808D01*
X195502326Y-97863808D02*
X195540421Y-97939999D01*
X195540421Y-97939999D02*
X195578517Y-98092380D01*
X195578517Y-98092380D02*
X195578517Y-98206666D01*
X195578517Y-98206666D02*
X195540421Y-98359047D01*
X195540421Y-98359047D02*
X195502326Y-98435237D01*
X195502326Y-98435237D02*
X195426136Y-98511428D01*
X195426136Y-98511428D02*
X195311850Y-98549523D01*
X195311850Y-98549523D02*
X195121374Y-98549523D01*
X195959469Y-98549523D02*
X196111850Y-98549523D01*
X196111850Y-98549523D02*
X196188040Y-98511428D01*
X196188040Y-98511428D02*
X196226136Y-98473332D01*
X196226136Y-98473332D02*
X196302326Y-98359047D01*
X196302326Y-98359047D02*
X196340421Y-98206666D01*
X196340421Y-98206666D02*
X196340421Y-97901904D01*
X196340421Y-97901904D02*
X196302326Y-97825713D01*
X196302326Y-97825713D02*
X196264231Y-97787618D01*
X196264231Y-97787618D02*
X196188040Y-97749523D01*
X196188040Y-97749523D02*
X196035659Y-97749523D01*
X196035659Y-97749523D02*
X195959469Y-97787618D01*
X195959469Y-97787618D02*
X195921374Y-97825713D01*
X195921374Y-97825713D02*
X195883278Y-97901904D01*
X195883278Y-97901904D02*
X195883278Y-98092380D01*
X195883278Y-98092380D02*
X195921374Y-98168570D01*
X195921374Y-98168570D02*
X195959469Y-98206666D01*
X195959469Y-98206666D02*
X196035659Y-98244761D01*
X196035659Y-98244761D02*
X196188040Y-98244761D01*
X196188040Y-98244761D02*
X196264231Y-98206666D01*
X196264231Y-98206666D02*
X196302326Y-98168570D01*
X196302326Y-98168570D02*
X196340421Y-98092380D01*
X196607088Y-98854285D02*
X196645183Y-98816189D01*
X196645183Y-98816189D02*
X196721374Y-98701904D01*
X196721374Y-98701904D02*
X196759469Y-98625713D01*
X196759469Y-98625713D02*
X196797564Y-98511428D01*
X196797564Y-98511428D02*
X196835660Y-98320951D01*
X196835660Y-98320951D02*
X196835660Y-98168570D01*
X196835660Y-98168570D02*
X196797564Y-97978094D01*
X196797564Y-97978094D02*
X196759469Y-97863808D01*
X196759469Y-97863808D02*
X196721374Y-97787618D01*
X196721374Y-97787618D02*
X196645183Y-97673332D01*
X196645183Y-97673332D02*
X196607088Y-97635237D01*
D10*
X177535180Y-69248095D02*
X176725657Y-69248095D01*
X176725657Y-69248095D02*
X176630419Y-69295714D01*
X176630419Y-69295714D02*
X176582800Y-69343333D01*
X176582800Y-69343333D02*
X176535180Y-69438571D01*
X176535180Y-69438571D02*
X176535180Y-69629047D01*
X176535180Y-69629047D02*
X176582800Y-69724285D01*
X176582800Y-69724285D02*
X176630419Y-69771904D01*
X176630419Y-69771904D02*
X176725657Y-69819523D01*
X176725657Y-69819523D02*
X177535180Y-69819523D01*
X176582800Y-70248095D02*
X176535180Y-70390952D01*
X176535180Y-70390952D02*
X176535180Y-70629047D01*
X176535180Y-70629047D02*
X176582800Y-70724285D01*
X176582800Y-70724285D02*
X176630419Y-70771904D01*
X176630419Y-70771904D02*
X176725657Y-70819523D01*
X176725657Y-70819523D02*
X176820895Y-70819523D01*
X176820895Y-70819523D02*
X176916133Y-70771904D01*
X176916133Y-70771904D02*
X176963752Y-70724285D01*
X176963752Y-70724285D02*
X177011371Y-70629047D01*
X177011371Y-70629047D02*
X177058990Y-70438571D01*
X177058990Y-70438571D02*
X177106609Y-70343333D01*
X177106609Y-70343333D02*
X177154228Y-70295714D01*
X177154228Y-70295714D02*
X177249466Y-70248095D01*
X177249466Y-70248095D02*
X177344704Y-70248095D01*
X177344704Y-70248095D02*
X177439942Y-70295714D01*
X177439942Y-70295714D02*
X177487561Y-70343333D01*
X177487561Y-70343333D02*
X177535180Y-70438571D01*
X177535180Y-70438571D02*
X177535180Y-70676666D01*
X177535180Y-70676666D02*
X177487561Y-70819523D01*
X177058990Y-71581428D02*
X177011371Y-71724285D01*
X177011371Y-71724285D02*
X176963752Y-71771904D01*
X176963752Y-71771904D02*
X176868514Y-71819523D01*
X176868514Y-71819523D02*
X176725657Y-71819523D01*
X176725657Y-71819523D02*
X176630419Y-71771904D01*
X176630419Y-71771904D02*
X176582800Y-71724285D01*
X176582800Y-71724285D02*
X176535180Y-71629047D01*
X176535180Y-71629047D02*
X176535180Y-71248095D01*
X176535180Y-71248095D02*
X177535180Y-71248095D01*
X177535180Y-71248095D02*
X177535180Y-71581428D01*
X177535180Y-71581428D02*
X177487561Y-71676666D01*
X177487561Y-71676666D02*
X177439942Y-71724285D01*
X177439942Y-71724285D02*
X177344704Y-71771904D01*
X177344704Y-71771904D02*
X177249466Y-71771904D01*
X177249466Y-71771904D02*
X177154228Y-71724285D01*
X177154228Y-71724285D02*
X177106609Y-71676666D01*
X177106609Y-71676666D02*
X177058990Y-71581428D01*
X177058990Y-71581428D02*
X177058990Y-71248095D01*
X212690476Y-92804819D02*
X212690476Y-91804819D01*
X212690476Y-91804819D02*
X213023809Y-92519104D01*
X213023809Y-92519104D02*
X213357142Y-91804819D01*
X213357142Y-91804819D02*
X213357142Y-92804819D01*
X213738095Y-91804819D02*
X214357142Y-91804819D01*
X214357142Y-91804819D02*
X214023809Y-92185771D01*
X214023809Y-92185771D02*
X214166666Y-92185771D01*
X214166666Y-92185771D02*
X214261904Y-92233390D01*
X214261904Y-92233390D02*
X214309523Y-92281009D01*
X214309523Y-92281009D02*
X214357142Y-92376247D01*
X214357142Y-92376247D02*
X214357142Y-92614342D01*
X214357142Y-92614342D02*
X214309523Y-92709580D01*
X214309523Y-92709580D02*
X214261904Y-92757200D01*
X214261904Y-92757200D02*
X214166666Y-92804819D01*
X214166666Y-92804819D02*
X213880952Y-92804819D01*
X213880952Y-92804819D02*
X213785714Y-92757200D01*
X213785714Y-92757200D02*
X213738095Y-92709580D01*
X215119047Y-92281009D02*
X215261904Y-92328628D01*
X215261904Y-92328628D02*
X215309523Y-92376247D01*
X215309523Y-92376247D02*
X215357142Y-92471485D01*
X215357142Y-92471485D02*
X215357142Y-92614342D01*
X215357142Y-92614342D02*
X215309523Y-92709580D01*
X215309523Y-92709580D02*
X215261904Y-92757200D01*
X215261904Y-92757200D02*
X215166666Y-92804819D01*
X215166666Y-92804819D02*
X214785714Y-92804819D01*
X214785714Y-92804819D02*
X214785714Y-91804819D01*
X214785714Y-91804819D02*
X215119047Y-91804819D01*
X215119047Y-91804819D02*
X215214285Y-91852438D01*
X215214285Y-91852438D02*
X215261904Y-91900057D01*
X215261904Y-91900057D02*
X215309523Y-91995295D01*
X215309523Y-91995295D02*
X215309523Y-92090533D01*
X215309523Y-92090533D02*
X215261904Y-92185771D01*
X215261904Y-92185771D02*
X215214285Y-92233390D01*
X215214285Y-92233390D02*
X215119047Y-92281009D01*
X215119047Y-92281009D02*
X214785714Y-92281009D01*
X211761904Y-81504438D02*
X211666666Y-81456819D01*
X211666666Y-81456819D02*
X211523809Y-81456819D01*
X211523809Y-81456819D02*
X211380952Y-81504438D01*
X211380952Y-81504438D02*
X211285714Y-81599676D01*
X211285714Y-81599676D02*
X211238095Y-81694914D01*
X211238095Y-81694914D02*
X211190476Y-81885390D01*
X211190476Y-81885390D02*
X211190476Y-82028247D01*
X211190476Y-82028247D02*
X211238095Y-82218723D01*
X211238095Y-82218723D02*
X211285714Y-82313961D01*
X211285714Y-82313961D02*
X211380952Y-82409200D01*
X211380952Y-82409200D02*
X211523809Y-82456819D01*
X211523809Y-82456819D02*
X211619047Y-82456819D01*
X211619047Y-82456819D02*
X211761904Y-82409200D01*
X211761904Y-82409200D02*
X211809523Y-82361580D01*
X211809523Y-82361580D02*
X211809523Y-82028247D01*
X211809523Y-82028247D02*
X211619047Y-82028247D01*
X212238095Y-82456819D02*
X212238095Y-81456819D01*
X212238095Y-81456819D02*
X212809523Y-82456819D01*
X212809523Y-82456819D02*
X212809523Y-81456819D01*
X213285714Y-82456819D02*
X213285714Y-81456819D01*
X213285714Y-81456819D02*
X213523809Y-81456819D01*
X213523809Y-81456819D02*
X213666666Y-81504438D01*
X213666666Y-81504438D02*
X213761904Y-81599676D01*
X213761904Y-81599676D02*
X213809523Y-81694914D01*
X213809523Y-81694914D02*
X213857142Y-81885390D01*
X213857142Y-81885390D02*
X213857142Y-82028247D01*
X213857142Y-82028247D02*
X213809523Y-82218723D01*
X213809523Y-82218723D02*
X213761904Y-82313961D01*
X213761904Y-82313961D02*
X213666666Y-82409200D01*
X213666666Y-82409200D02*
X213523809Y-82456819D01*
X213523809Y-82456819D02*
X213285714Y-82456819D01*
X214809523Y-82456819D02*
X214238095Y-82456819D01*
X214523809Y-82456819D02*
X214523809Y-81456819D01*
X214523809Y-81456819D02*
X214428571Y-81599676D01*
X214428571Y-81599676D02*
X214333333Y-81694914D01*
X214333333Y-81694914D02*
X214238095Y-81742533D01*
X194578095Y-81014819D02*
X194578095Y-80014819D01*
X194578095Y-80014819D02*
X194911428Y-80729104D01*
X194911428Y-80729104D02*
X195244761Y-80014819D01*
X195244761Y-80014819D02*
X195244761Y-81014819D01*
X195720952Y-81014819D02*
X195720952Y-80014819D01*
X195720952Y-80014819D02*
X196101904Y-80014819D01*
X196101904Y-80014819D02*
X196197142Y-80062438D01*
X196197142Y-80062438D02*
X196244761Y-80110057D01*
X196244761Y-80110057D02*
X196292380Y-80205295D01*
X196292380Y-80205295D02*
X196292380Y-80348152D01*
X196292380Y-80348152D02*
X196244761Y-80443390D01*
X196244761Y-80443390D02*
X196197142Y-80491009D01*
X196197142Y-80491009D02*
X196101904Y-80538628D01*
X196101904Y-80538628D02*
X195720952Y-80538628D01*
X196720952Y-80014819D02*
X196720952Y-80824342D01*
X196720952Y-80824342D02*
X196768571Y-80919580D01*
X196768571Y-80919580D02*
X196816190Y-80967200D01*
X196816190Y-80967200D02*
X196911428Y-81014819D01*
X196911428Y-81014819D02*
X197101904Y-81014819D01*
X197101904Y-81014819D02*
X197197142Y-80967200D01*
X197197142Y-80967200D02*
X197244761Y-80919580D01*
X197244761Y-80919580D02*
X197292380Y-80824342D01*
X197292380Y-80824342D02*
X197292380Y-80014819D01*
X198197142Y-80014819D02*
X198006666Y-80014819D01*
X198006666Y-80014819D02*
X197911428Y-80062438D01*
X197911428Y-80062438D02*
X197863809Y-80110057D01*
X197863809Y-80110057D02*
X197768571Y-80252914D01*
X197768571Y-80252914D02*
X197720952Y-80443390D01*
X197720952Y-80443390D02*
X197720952Y-80824342D01*
X197720952Y-80824342D02*
X197768571Y-80919580D01*
X197768571Y-80919580D02*
X197816190Y-80967200D01*
X197816190Y-80967200D02*
X197911428Y-81014819D01*
X197911428Y-81014819D02*
X198101904Y-81014819D01*
X198101904Y-81014819D02*
X198197142Y-80967200D01*
X198197142Y-80967200D02*
X198244761Y-80919580D01*
X198244761Y-80919580D02*
X198292380Y-80824342D01*
X198292380Y-80824342D02*
X198292380Y-80586247D01*
X198292380Y-80586247D02*
X198244761Y-80491009D01*
X198244761Y-80491009D02*
X198197142Y-80443390D01*
X198197142Y-80443390D02*
X198101904Y-80395771D01*
X198101904Y-80395771D02*
X197911428Y-80395771D01*
X197911428Y-80395771D02*
X197816190Y-80443390D01*
X197816190Y-80443390D02*
X197768571Y-80491009D01*
X197768571Y-80491009D02*
X197720952Y-80586247D01*
X198911428Y-80014819D02*
X199006666Y-80014819D01*
X199006666Y-80014819D02*
X199101904Y-80062438D01*
X199101904Y-80062438D02*
X199149523Y-80110057D01*
X199149523Y-80110057D02*
X199197142Y-80205295D01*
X199197142Y-80205295D02*
X199244761Y-80395771D01*
X199244761Y-80395771D02*
X199244761Y-80633866D01*
X199244761Y-80633866D02*
X199197142Y-80824342D01*
X199197142Y-80824342D02*
X199149523Y-80919580D01*
X199149523Y-80919580D02*
X199101904Y-80967200D01*
X199101904Y-80967200D02*
X199006666Y-81014819D01*
X199006666Y-81014819D02*
X198911428Y-81014819D01*
X198911428Y-81014819D02*
X198816190Y-80967200D01*
X198816190Y-80967200D02*
X198768571Y-80919580D01*
X198768571Y-80919580D02*
X198720952Y-80824342D01*
X198720952Y-80824342D02*
X198673333Y-80633866D01*
X198673333Y-80633866D02*
X198673333Y-80395771D01*
X198673333Y-80395771D02*
X198720952Y-80205295D01*
X198720952Y-80205295D02*
X198768571Y-80110057D01*
X198768571Y-80110057D02*
X198816190Y-80062438D01*
X198816190Y-80062438D02*
X198911428Y-80014819D01*
X200149523Y-80014819D02*
X199673333Y-80014819D01*
X199673333Y-80014819D02*
X199625714Y-80491009D01*
X199625714Y-80491009D02*
X199673333Y-80443390D01*
X199673333Y-80443390D02*
X199768571Y-80395771D01*
X199768571Y-80395771D02*
X200006666Y-80395771D01*
X200006666Y-80395771D02*
X200101904Y-80443390D01*
X200101904Y-80443390D02*
X200149523Y-80491009D01*
X200149523Y-80491009D02*
X200197142Y-80586247D01*
X200197142Y-80586247D02*
X200197142Y-80824342D01*
X200197142Y-80824342D02*
X200149523Y-80919580D01*
X200149523Y-80919580D02*
X200101904Y-80967200D01*
X200101904Y-80967200D02*
X200006666Y-81014819D01*
X200006666Y-81014819D02*
X199768571Y-81014819D01*
X199768571Y-81014819D02*
X199673333Y-80967200D01*
X199673333Y-80967200D02*
X199625714Y-80919580D01*
X200816190Y-80014819D02*
X200911428Y-80014819D01*
X200911428Y-80014819D02*
X201006666Y-80062438D01*
X201006666Y-80062438D02*
X201054285Y-80110057D01*
X201054285Y-80110057D02*
X201101904Y-80205295D01*
X201101904Y-80205295D02*
X201149523Y-80395771D01*
X201149523Y-80395771D02*
X201149523Y-80633866D01*
X201149523Y-80633866D02*
X201101904Y-80824342D01*
X201101904Y-80824342D02*
X201054285Y-80919580D01*
X201054285Y-80919580D02*
X201006666Y-80967200D01*
X201006666Y-80967200D02*
X200911428Y-81014819D01*
X200911428Y-81014819D02*
X200816190Y-81014819D01*
X200816190Y-81014819D02*
X200720952Y-80967200D01*
X200720952Y-80967200D02*
X200673333Y-80919580D01*
X200673333Y-80919580D02*
X200625714Y-80824342D01*
X200625714Y-80824342D02*
X200578095Y-80633866D01*
X200578095Y-80633866D02*
X200578095Y-80395771D01*
X200578095Y-80395771D02*
X200625714Y-80205295D01*
X200625714Y-80205295D02*
X200673333Y-80110057D01*
X200673333Y-80110057D02*
X200720952Y-80062438D01*
X200720952Y-80062438D02*
X200816190Y-80014819D01*
X180187619Y-90769200D02*
X180330476Y-90816819D01*
X180330476Y-90816819D02*
X180568571Y-90816819D01*
X180568571Y-90816819D02*
X180663809Y-90769200D01*
X180663809Y-90769200D02*
X180711428Y-90721580D01*
X180711428Y-90721580D02*
X180759047Y-90626342D01*
X180759047Y-90626342D02*
X180759047Y-90531104D01*
X180759047Y-90531104D02*
X180711428Y-90435866D01*
X180711428Y-90435866D02*
X180663809Y-90388247D01*
X180663809Y-90388247D02*
X180568571Y-90340628D01*
X180568571Y-90340628D02*
X180378095Y-90293009D01*
X180378095Y-90293009D02*
X180282857Y-90245390D01*
X180282857Y-90245390D02*
X180235238Y-90197771D01*
X180235238Y-90197771D02*
X180187619Y-90102533D01*
X180187619Y-90102533D02*
X180187619Y-90007295D01*
X180187619Y-90007295D02*
X180235238Y-89912057D01*
X180235238Y-89912057D02*
X180282857Y-89864438D01*
X180282857Y-89864438D02*
X180378095Y-89816819D01*
X180378095Y-89816819D02*
X180616190Y-89816819D01*
X180616190Y-89816819D02*
X180759047Y-89864438D01*
X181187619Y-90293009D02*
X181520952Y-90293009D01*
X181663809Y-90816819D02*
X181187619Y-90816819D01*
X181187619Y-90816819D02*
X181187619Y-89816819D01*
X181187619Y-89816819D02*
X181663809Y-89816819D01*
X182663809Y-90816819D02*
X182330476Y-90340628D01*
X182092381Y-90816819D02*
X182092381Y-89816819D01*
X182092381Y-89816819D02*
X182473333Y-89816819D01*
X182473333Y-89816819D02*
X182568571Y-89864438D01*
X182568571Y-89864438D02*
X182616190Y-89912057D01*
X182616190Y-89912057D02*
X182663809Y-90007295D01*
X182663809Y-90007295D02*
X182663809Y-90150152D01*
X182663809Y-90150152D02*
X182616190Y-90245390D01*
X182616190Y-90245390D02*
X182568571Y-90293009D01*
X182568571Y-90293009D02*
X182473333Y-90340628D01*
X182473333Y-90340628D02*
X182092381Y-90340628D01*
X182949524Y-89816819D02*
X183282857Y-90816819D01*
X183282857Y-90816819D02*
X183616190Y-89816819D01*
X184140000Y-89816819D02*
X184330476Y-89816819D01*
X184330476Y-89816819D02*
X184425714Y-89864438D01*
X184425714Y-89864438D02*
X184520952Y-89959676D01*
X184520952Y-89959676D02*
X184568571Y-90150152D01*
X184568571Y-90150152D02*
X184568571Y-90483485D01*
X184568571Y-90483485D02*
X184520952Y-90673961D01*
X184520952Y-90673961D02*
X184425714Y-90769200D01*
X184425714Y-90769200D02*
X184330476Y-90816819D01*
X184330476Y-90816819D02*
X184140000Y-90816819D01*
X184140000Y-90816819D02*
X184044762Y-90769200D01*
X184044762Y-90769200D02*
X183949524Y-90673961D01*
X183949524Y-90673961D02*
X183901905Y-90483485D01*
X183901905Y-90483485D02*
X183901905Y-90150152D01*
X183901905Y-90150152D02*
X183949524Y-89959676D01*
X183949524Y-89959676D02*
X184044762Y-89864438D01*
X184044762Y-89864438D02*
X184140000Y-89816819D01*
X184759048Y-90912057D02*
X185520952Y-90912057D01*
X186235238Y-89816819D02*
X185759048Y-89816819D01*
X185759048Y-89816819D02*
X185711429Y-90293009D01*
X185711429Y-90293009D02*
X185759048Y-90245390D01*
X185759048Y-90245390D02*
X185854286Y-90197771D01*
X185854286Y-90197771D02*
X186092381Y-90197771D01*
X186092381Y-90197771D02*
X186187619Y-90245390D01*
X186187619Y-90245390D02*
X186235238Y-90293009D01*
X186235238Y-90293009D02*
X186282857Y-90388247D01*
X186282857Y-90388247D02*
X186282857Y-90626342D01*
X186282857Y-90626342D02*
X186235238Y-90721580D01*
X186235238Y-90721580D02*
X186187619Y-90769200D01*
X186187619Y-90769200D02*
X186092381Y-90816819D01*
X186092381Y-90816819D02*
X185854286Y-90816819D01*
X185854286Y-90816819D02*
X185759048Y-90769200D01*
X185759048Y-90769200D02*
X185711429Y-90721580D01*
X186568572Y-89816819D02*
X186901905Y-90816819D01*
X186901905Y-90816819D02*
X187235238Y-89816819D01*
X188092381Y-90816819D02*
X187520953Y-90816819D01*
X187806667Y-90816819D02*
X187806667Y-89816819D01*
X187806667Y-89816819D02*
X187711429Y-89959676D01*
X187711429Y-89959676D02*
X187616191Y-90054914D01*
X187616191Y-90054914D02*
X187520953Y-90102533D01*
X209427200Y-98612381D02*
X209474819Y-98469524D01*
X209474819Y-98469524D02*
X209474819Y-98231429D01*
X209474819Y-98231429D02*
X209427200Y-98136191D01*
X209427200Y-98136191D02*
X209379580Y-98088572D01*
X209379580Y-98088572D02*
X209284342Y-98040953D01*
X209284342Y-98040953D02*
X209189104Y-98040953D01*
X209189104Y-98040953D02*
X209093866Y-98088572D01*
X209093866Y-98088572D02*
X209046247Y-98136191D01*
X209046247Y-98136191D02*
X208998628Y-98231429D01*
X208998628Y-98231429D02*
X208951009Y-98421905D01*
X208951009Y-98421905D02*
X208903390Y-98517143D01*
X208903390Y-98517143D02*
X208855771Y-98564762D01*
X208855771Y-98564762D02*
X208760533Y-98612381D01*
X208760533Y-98612381D02*
X208665295Y-98612381D01*
X208665295Y-98612381D02*
X208570057Y-98564762D01*
X208570057Y-98564762D02*
X208522438Y-98517143D01*
X208522438Y-98517143D02*
X208474819Y-98421905D01*
X208474819Y-98421905D02*
X208474819Y-98183810D01*
X208474819Y-98183810D02*
X208522438Y-98040953D01*
X209427200Y-97183810D02*
X209474819Y-97279048D01*
X209474819Y-97279048D02*
X209474819Y-97469524D01*
X209474819Y-97469524D02*
X209427200Y-97564762D01*
X209427200Y-97564762D02*
X209379580Y-97612381D01*
X209379580Y-97612381D02*
X209284342Y-97660000D01*
X209284342Y-97660000D02*
X208998628Y-97660000D01*
X208998628Y-97660000D02*
X208903390Y-97612381D01*
X208903390Y-97612381D02*
X208855771Y-97564762D01*
X208855771Y-97564762D02*
X208808152Y-97469524D01*
X208808152Y-97469524D02*
X208808152Y-97279048D01*
X208808152Y-97279048D02*
X208855771Y-97183810D01*
X209474819Y-96755238D02*
X208808152Y-96755238D01*
X208998628Y-96755238D02*
X208903390Y-96707619D01*
X208903390Y-96707619D02*
X208855771Y-96660000D01*
X208855771Y-96660000D02*
X208808152Y-96564762D01*
X208808152Y-96564762D02*
X208808152Y-96469524D01*
X209427200Y-95755238D02*
X209474819Y-95850476D01*
X209474819Y-95850476D02*
X209474819Y-96040952D01*
X209474819Y-96040952D02*
X209427200Y-96136190D01*
X209427200Y-96136190D02*
X209331961Y-96183809D01*
X209331961Y-96183809D02*
X208951009Y-96183809D01*
X208951009Y-96183809D02*
X208855771Y-96136190D01*
X208855771Y-96136190D02*
X208808152Y-96040952D01*
X208808152Y-96040952D02*
X208808152Y-95850476D01*
X208808152Y-95850476D02*
X208855771Y-95755238D01*
X208855771Y-95755238D02*
X208951009Y-95707619D01*
X208951009Y-95707619D02*
X209046247Y-95707619D01*
X209046247Y-95707619D02*
X209141485Y-96183809D01*
X208808152Y-95374285D02*
X209474819Y-95183809D01*
X209474819Y-95183809D02*
X208998628Y-94993333D01*
X208998628Y-94993333D02*
X209474819Y-94802857D01*
X209474819Y-94802857D02*
X208808152Y-94612381D01*
X209474819Y-93469523D02*
X208474819Y-93469523D01*
X208951009Y-93469523D02*
X208951009Y-92898095D01*
X209474819Y-92898095D02*
X208474819Y-92898095D01*
X209427200Y-92040952D02*
X209474819Y-92136190D01*
X209474819Y-92136190D02*
X209474819Y-92326666D01*
X209474819Y-92326666D02*
X209427200Y-92421904D01*
X209427200Y-92421904D02*
X209331961Y-92469523D01*
X209331961Y-92469523D02*
X208951009Y-92469523D01*
X208951009Y-92469523D02*
X208855771Y-92421904D01*
X208855771Y-92421904D02*
X208808152Y-92326666D01*
X208808152Y-92326666D02*
X208808152Y-92136190D01*
X208808152Y-92136190D02*
X208855771Y-92040952D01*
X208855771Y-92040952D02*
X208951009Y-91993333D01*
X208951009Y-91993333D02*
X209046247Y-91993333D01*
X209046247Y-91993333D02*
X209141485Y-92469523D01*
X209474819Y-91136190D02*
X208951009Y-91136190D01*
X208951009Y-91136190D02*
X208855771Y-91183809D01*
X208855771Y-91183809D02*
X208808152Y-91279047D01*
X208808152Y-91279047D02*
X208808152Y-91469523D01*
X208808152Y-91469523D02*
X208855771Y-91564761D01*
X209427200Y-91136190D02*
X209474819Y-91231428D01*
X209474819Y-91231428D02*
X209474819Y-91469523D01*
X209474819Y-91469523D02*
X209427200Y-91564761D01*
X209427200Y-91564761D02*
X209331961Y-91612380D01*
X209331961Y-91612380D02*
X209236723Y-91612380D01*
X209236723Y-91612380D02*
X209141485Y-91564761D01*
X209141485Y-91564761D02*
X209093866Y-91469523D01*
X209093866Y-91469523D02*
X209093866Y-91231428D01*
X209093866Y-91231428D02*
X209046247Y-91136190D01*
X209474819Y-90231428D02*
X208474819Y-90231428D01*
X209427200Y-90231428D02*
X209474819Y-90326666D01*
X209474819Y-90326666D02*
X209474819Y-90517142D01*
X209474819Y-90517142D02*
X209427200Y-90612380D01*
X209427200Y-90612380D02*
X209379580Y-90659999D01*
X209379580Y-90659999D02*
X209284342Y-90707618D01*
X209284342Y-90707618D02*
X208998628Y-90707618D01*
X208998628Y-90707618D02*
X208903390Y-90659999D01*
X208903390Y-90659999D02*
X208855771Y-90612380D01*
X208855771Y-90612380D02*
X208808152Y-90517142D01*
X208808152Y-90517142D02*
X208808152Y-90326666D01*
X208808152Y-90326666D02*
X208855771Y-90231428D01*
X209427200Y-89374285D02*
X209474819Y-89469523D01*
X209474819Y-89469523D02*
X209474819Y-89659999D01*
X209474819Y-89659999D02*
X209427200Y-89755237D01*
X209427200Y-89755237D02*
X209331961Y-89802856D01*
X209331961Y-89802856D02*
X208951009Y-89802856D01*
X208951009Y-89802856D02*
X208855771Y-89755237D01*
X208855771Y-89755237D02*
X208808152Y-89659999D01*
X208808152Y-89659999D02*
X208808152Y-89469523D01*
X208808152Y-89469523D02*
X208855771Y-89374285D01*
X208855771Y-89374285D02*
X208951009Y-89326666D01*
X208951009Y-89326666D02*
X209046247Y-89326666D01*
X209046247Y-89326666D02*
X209141485Y-89802856D01*
X209474819Y-88898094D02*
X208808152Y-88898094D01*
X208998628Y-88898094D02*
X208903390Y-88850475D01*
X208903390Y-88850475D02*
X208855771Y-88802856D01*
X208855771Y-88802856D02*
X208808152Y-88707618D01*
X208808152Y-88707618D02*
X208808152Y-88612380D01*
X189603333Y-81997200D02*
X189746190Y-82044819D01*
X189746190Y-82044819D02*
X189984285Y-82044819D01*
X189984285Y-82044819D02*
X190079523Y-81997200D01*
X190079523Y-81997200D02*
X190127142Y-81949580D01*
X190127142Y-81949580D02*
X190174761Y-81854342D01*
X190174761Y-81854342D02*
X190174761Y-81759104D01*
X190174761Y-81759104D02*
X190127142Y-81663866D01*
X190127142Y-81663866D02*
X190079523Y-81616247D01*
X190079523Y-81616247D02*
X189984285Y-81568628D01*
X189984285Y-81568628D02*
X189793809Y-81521009D01*
X189793809Y-81521009D02*
X189698571Y-81473390D01*
X189698571Y-81473390D02*
X189650952Y-81425771D01*
X189650952Y-81425771D02*
X189603333Y-81330533D01*
X189603333Y-81330533D02*
X189603333Y-81235295D01*
X189603333Y-81235295D02*
X189650952Y-81140057D01*
X189650952Y-81140057D02*
X189698571Y-81092438D01*
X189698571Y-81092438D02*
X189793809Y-81044819D01*
X189793809Y-81044819D02*
X190031904Y-81044819D01*
X190031904Y-81044819D02*
X190174761Y-81092438D01*
X191174761Y-81949580D02*
X191127142Y-81997200D01*
X191127142Y-81997200D02*
X190984285Y-82044819D01*
X190984285Y-82044819D02*
X190889047Y-82044819D01*
X190889047Y-82044819D02*
X190746190Y-81997200D01*
X190746190Y-81997200D02*
X190650952Y-81901961D01*
X190650952Y-81901961D02*
X190603333Y-81806723D01*
X190603333Y-81806723D02*
X190555714Y-81616247D01*
X190555714Y-81616247D02*
X190555714Y-81473390D01*
X190555714Y-81473390D02*
X190603333Y-81282914D01*
X190603333Y-81282914D02*
X190650952Y-81187676D01*
X190650952Y-81187676D02*
X190746190Y-81092438D01*
X190746190Y-81092438D02*
X190889047Y-81044819D01*
X190889047Y-81044819D02*
X190984285Y-81044819D01*
X190984285Y-81044819D02*
X191127142Y-81092438D01*
X191127142Y-81092438D02*
X191174761Y-81140057D01*
X192079523Y-82044819D02*
X191603333Y-82044819D01*
X191603333Y-82044819D02*
X191603333Y-81044819D01*
X192936666Y-82044819D02*
X192365238Y-82044819D01*
X192650952Y-82044819D02*
X192650952Y-81044819D01*
X192650952Y-81044819D02*
X192555714Y-81187676D01*
X192555714Y-81187676D02*
X192460476Y-81282914D01*
X192460476Y-81282914D02*
X192365238Y-81330533D01*
X173761905Y-81304819D02*
X173761905Y-80304819D01*
X173761905Y-80304819D02*
X174095238Y-81019104D01*
X174095238Y-81019104D02*
X174428571Y-80304819D01*
X174428571Y-80304819D02*
X174428571Y-81304819D01*
X174809524Y-80304819D02*
X175428571Y-80304819D01*
X175428571Y-80304819D02*
X175095238Y-80685771D01*
X175095238Y-80685771D02*
X175238095Y-80685771D01*
X175238095Y-80685771D02*
X175333333Y-80733390D01*
X175333333Y-80733390D02*
X175380952Y-80781009D01*
X175380952Y-80781009D02*
X175428571Y-80876247D01*
X175428571Y-80876247D02*
X175428571Y-81114342D01*
X175428571Y-81114342D02*
X175380952Y-81209580D01*
X175380952Y-81209580D02*
X175333333Y-81257200D01*
X175333333Y-81257200D02*
X175238095Y-81304819D01*
X175238095Y-81304819D02*
X174952381Y-81304819D01*
X174952381Y-81304819D02*
X174857143Y-81257200D01*
X174857143Y-81257200D02*
X174809524Y-81209580D01*
X175809524Y-81019104D02*
X176285714Y-81019104D01*
X175714286Y-81304819D02*
X176047619Y-80304819D01*
X176047619Y-80304819D02*
X176380952Y-81304819D01*
X202952380Y-81454819D02*
X202476190Y-81454819D01*
X202476190Y-81454819D02*
X202428571Y-81931009D01*
X202428571Y-81931009D02*
X202476190Y-81883390D01*
X202476190Y-81883390D02*
X202571428Y-81835771D01*
X202571428Y-81835771D02*
X202809523Y-81835771D01*
X202809523Y-81835771D02*
X202904761Y-81883390D01*
X202904761Y-81883390D02*
X202952380Y-81931009D01*
X202952380Y-81931009D02*
X202999999Y-82026247D01*
X202999999Y-82026247D02*
X202999999Y-82264342D01*
X202999999Y-82264342D02*
X202952380Y-82359580D01*
X202952380Y-82359580D02*
X202904761Y-82407200D01*
X202904761Y-82407200D02*
X202809523Y-82454819D01*
X202809523Y-82454819D02*
X202571428Y-82454819D01*
X202571428Y-82454819D02*
X202476190Y-82407200D01*
X202476190Y-82407200D02*
X202428571Y-82359580D01*
X203285714Y-81454819D02*
X203619047Y-82454819D01*
X203619047Y-82454819D02*
X203952380Y-81454819D01*
X204047619Y-82550057D02*
X204809523Y-82550057D01*
X205047619Y-81454819D02*
X205047619Y-82264342D01*
X205047619Y-82264342D02*
X205095238Y-82359580D01*
X205095238Y-82359580D02*
X205142857Y-82407200D01*
X205142857Y-82407200D02*
X205238095Y-82454819D01*
X205238095Y-82454819D02*
X205428571Y-82454819D01*
X205428571Y-82454819D02*
X205523809Y-82407200D01*
X205523809Y-82407200D02*
X205571428Y-82359580D01*
X205571428Y-82359580D02*
X205619047Y-82264342D01*
X205619047Y-82264342D02*
X205619047Y-81454819D01*
X206047619Y-82407200D02*
X206190476Y-82454819D01*
X206190476Y-82454819D02*
X206428571Y-82454819D01*
X206428571Y-82454819D02*
X206523809Y-82407200D01*
X206523809Y-82407200D02*
X206571428Y-82359580D01*
X206571428Y-82359580D02*
X206619047Y-82264342D01*
X206619047Y-82264342D02*
X206619047Y-82169104D01*
X206619047Y-82169104D02*
X206571428Y-82073866D01*
X206571428Y-82073866D02*
X206523809Y-82026247D01*
X206523809Y-82026247D02*
X206428571Y-81978628D01*
X206428571Y-81978628D02*
X206238095Y-81931009D01*
X206238095Y-81931009D02*
X206142857Y-81883390D01*
X206142857Y-81883390D02*
X206095238Y-81835771D01*
X206095238Y-81835771D02*
X206047619Y-81740533D01*
X206047619Y-81740533D02*
X206047619Y-81645295D01*
X206047619Y-81645295D02*
X206095238Y-81550057D01*
X206095238Y-81550057D02*
X206142857Y-81502438D01*
X206142857Y-81502438D02*
X206238095Y-81454819D01*
X206238095Y-81454819D02*
X206476190Y-81454819D01*
X206476190Y-81454819D02*
X206619047Y-81502438D01*
X207380952Y-81931009D02*
X207523809Y-81978628D01*
X207523809Y-81978628D02*
X207571428Y-82026247D01*
X207571428Y-82026247D02*
X207619047Y-82121485D01*
X207619047Y-82121485D02*
X207619047Y-82264342D01*
X207619047Y-82264342D02*
X207571428Y-82359580D01*
X207571428Y-82359580D02*
X207523809Y-82407200D01*
X207523809Y-82407200D02*
X207428571Y-82454819D01*
X207428571Y-82454819D02*
X207047619Y-82454819D01*
X207047619Y-82454819D02*
X207047619Y-81454819D01*
X207047619Y-81454819D02*
X207380952Y-81454819D01*
X207380952Y-81454819D02*
X207476190Y-81502438D01*
X207476190Y-81502438D02*
X207523809Y-81550057D01*
X207523809Y-81550057D02*
X207571428Y-81645295D01*
X207571428Y-81645295D02*
X207571428Y-81740533D01*
X207571428Y-81740533D02*
X207523809Y-81835771D01*
X207523809Y-81835771D02*
X207476190Y-81883390D01*
X207476190Y-81883390D02*
X207380952Y-81931009D01*
X207380952Y-81931009D02*
X207047619Y-81931009D01*
X208571428Y-82454819D02*
X208000000Y-82454819D01*
X208285714Y-82454819D02*
X208285714Y-81454819D01*
X208285714Y-81454819D02*
X208190476Y-81597676D01*
X208190476Y-81597676D02*
X208095238Y-81692914D01*
X208095238Y-81692914D02*
X208000000Y-81740533D01*
X181701428Y-80841009D02*
X181844285Y-80888628D01*
X181844285Y-80888628D02*
X181891904Y-80936247D01*
X181891904Y-80936247D02*
X181939523Y-81031485D01*
X181939523Y-81031485D02*
X181939523Y-81174342D01*
X181939523Y-81174342D02*
X181891904Y-81269580D01*
X181891904Y-81269580D02*
X181844285Y-81317200D01*
X181844285Y-81317200D02*
X181749047Y-81364819D01*
X181749047Y-81364819D02*
X181368095Y-81364819D01*
X181368095Y-81364819D02*
X181368095Y-80364819D01*
X181368095Y-80364819D02*
X181701428Y-80364819D01*
X181701428Y-80364819D02*
X181796666Y-80412438D01*
X181796666Y-80412438D02*
X181844285Y-80460057D01*
X181844285Y-80460057D02*
X181891904Y-80555295D01*
X181891904Y-80555295D02*
X181891904Y-80650533D01*
X181891904Y-80650533D02*
X181844285Y-80745771D01*
X181844285Y-80745771D02*
X181796666Y-80793390D01*
X181796666Y-80793390D02*
X181701428Y-80841009D01*
X181701428Y-80841009D02*
X181368095Y-80841009D01*
X182368095Y-81364819D02*
X182368095Y-80364819D01*
X182368095Y-80364819D02*
X182701428Y-81079104D01*
X182701428Y-81079104D02*
X183034761Y-80364819D01*
X183034761Y-80364819D02*
X183034761Y-81364819D01*
X183510952Y-81364819D02*
X183510952Y-80364819D01*
X183510952Y-80364819D02*
X183891904Y-80364819D01*
X183891904Y-80364819D02*
X183987142Y-80412438D01*
X183987142Y-80412438D02*
X184034761Y-80460057D01*
X184034761Y-80460057D02*
X184082380Y-80555295D01*
X184082380Y-80555295D02*
X184082380Y-80698152D01*
X184082380Y-80698152D02*
X184034761Y-80793390D01*
X184034761Y-80793390D02*
X183987142Y-80841009D01*
X183987142Y-80841009D02*
X183891904Y-80888628D01*
X183891904Y-80888628D02*
X183510952Y-80888628D01*
X184463333Y-80460057D02*
X184510952Y-80412438D01*
X184510952Y-80412438D02*
X184606190Y-80364819D01*
X184606190Y-80364819D02*
X184844285Y-80364819D01*
X184844285Y-80364819D02*
X184939523Y-80412438D01*
X184939523Y-80412438D02*
X184987142Y-80460057D01*
X184987142Y-80460057D02*
X185034761Y-80555295D01*
X185034761Y-80555295D02*
X185034761Y-80650533D01*
X185034761Y-80650533D02*
X184987142Y-80793390D01*
X184987142Y-80793390D02*
X184415714Y-81364819D01*
X184415714Y-81364819D02*
X185034761Y-81364819D01*
X185606190Y-80793390D02*
X185510952Y-80745771D01*
X185510952Y-80745771D02*
X185463333Y-80698152D01*
X185463333Y-80698152D02*
X185415714Y-80602914D01*
X185415714Y-80602914D02*
X185415714Y-80555295D01*
X185415714Y-80555295D02*
X185463333Y-80460057D01*
X185463333Y-80460057D02*
X185510952Y-80412438D01*
X185510952Y-80412438D02*
X185606190Y-80364819D01*
X185606190Y-80364819D02*
X185796666Y-80364819D01*
X185796666Y-80364819D02*
X185891904Y-80412438D01*
X185891904Y-80412438D02*
X185939523Y-80460057D01*
X185939523Y-80460057D02*
X185987142Y-80555295D01*
X185987142Y-80555295D02*
X185987142Y-80602914D01*
X185987142Y-80602914D02*
X185939523Y-80698152D01*
X185939523Y-80698152D02*
X185891904Y-80745771D01*
X185891904Y-80745771D02*
X185796666Y-80793390D01*
X185796666Y-80793390D02*
X185606190Y-80793390D01*
X185606190Y-80793390D02*
X185510952Y-80841009D01*
X185510952Y-80841009D02*
X185463333Y-80888628D01*
X185463333Y-80888628D02*
X185415714Y-80983866D01*
X185415714Y-80983866D02*
X185415714Y-81174342D01*
X185415714Y-81174342D02*
X185463333Y-81269580D01*
X185463333Y-81269580D02*
X185510952Y-81317200D01*
X185510952Y-81317200D02*
X185606190Y-81364819D01*
X185606190Y-81364819D02*
X185796666Y-81364819D01*
X185796666Y-81364819D02*
X185891904Y-81317200D01*
X185891904Y-81317200D02*
X185939523Y-81269580D01*
X185939523Y-81269580D02*
X185987142Y-81174342D01*
X185987142Y-81174342D02*
X185987142Y-80983866D01*
X185987142Y-80983866D02*
X185939523Y-80888628D01*
X185939523Y-80888628D02*
X185891904Y-80841009D01*
X185891904Y-80841009D02*
X185796666Y-80793390D01*
X186606190Y-80364819D02*
X186701428Y-80364819D01*
X186701428Y-80364819D02*
X186796666Y-80412438D01*
X186796666Y-80412438D02*
X186844285Y-80460057D01*
X186844285Y-80460057D02*
X186891904Y-80555295D01*
X186891904Y-80555295D02*
X186939523Y-80745771D01*
X186939523Y-80745771D02*
X186939523Y-80983866D01*
X186939523Y-80983866D02*
X186891904Y-81174342D01*
X186891904Y-81174342D02*
X186844285Y-81269580D01*
X186844285Y-81269580D02*
X186796666Y-81317200D01*
X186796666Y-81317200D02*
X186701428Y-81364819D01*
X186701428Y-81364819D02*
X186606190Y-81364819D01*
X186606190Y-81364819D02*
X186510952Y-81317200D01*
X186510952Y-81317200D02*
X186463333Y-81269580D01*
X186463333Y-81269580D02*
X186415714Y-81174342D01*
X186415714Y-81174342D02*
X186368095Y-80983866D01*
X186368095Y-80983866D02*
X186368095Y-80745771D01*
X186368095Y-80745771D02*
X186415714Y-80555295D01*
X186415714Y-80555295D02*
X186463333Y-80460057D01*
X186463333Y-80460057D02*
X186510952Y-80412438D01*
X186510952Y-80412438D02*
X186606190Y-80364819D01*
X176631905Y-89816819D02*
X177250952Y-89816819D01*
X177250952Y-89816819D02*
X176917619Y-90197771D01*
X176917619Y-90197771D02*
X177060476Y-90197771D01*
X177060476Y-90197771D02*
X177155714Y-90245390D01*
X177155714Y-90245390D02*
X177203333Y-90293009D01*
X177203333Y-90293009D02*
X177250952Y-90388247D01*
X177250952Y-90388247D02*
X177250952Y-90626342D01*
X177250952Y-90626342D02*
X177203333Y-90721580D01*
X177203333Y-90721580D02*
X177155714Y-90769200D01*
X177155714Y-90769200D02*
X177060476Y-90816819D01*
X177060476Y-90816819D02*
X176774762Y-90816819D01*
X176774762Y-90816819D02*
X176679524Y-90769200D01*
X176679524Y-90769200D02*
X176631905Y-90721580D01*
X177536667Y-89816819D02*
X177870000Y-90816819D01*
X177870000Y-90816819D02*
X178203333Y-89816819D01*
X178441429Y-89816819D02*
X179060476Y-89816819D01*
X179060476Y-89816819D02*
X178727143Y-90197771D01*
X178727143Y-90197771D02*
X178870000Y-90197771D01*
X178870000Y-90197771D02*
X178965238Y-90245390D01*
X178965238Y-90245390D02*
X179012857Y-90293009D01*
X179012857Y-90293009D02*
X179060476Y-90388247D01*
X179060476Y-90388247D02*
X179060476Y-90626342D01*
X179060476Y-90626342D02*
X179012857Y-90721580D01*
X179012857Y-90721580D02*
X178965238Y-90769200D01*
X178965238Y-90769200D02*
X178870000Y-90816819D01*
X178870000Y-90816819D02*
X178584286Y-90816819D01*
X178584286Y-90816819D02*
X178489048Y-90769200D01*
X178489048Y-90769200D02*
X178441429Y-90721580D01*
X182309524Y-86599200D02*
X182452381Y-86646819D01*
X182452381Y-86646819D02*
X182690476Y-86646819D01*
X182690476Y-86646819D02*
X182785714Y-86599200D01*
X182785714Y-86599200D02*
X182833333Y-86551580D01*
X182833333Y-86551580D02*
X182880952Y-86456342D01*
X182880952Y-86456342D02*
X182880952Y-86361104D01*
X182880952Y-86361104D02*
X182833333Y-86265866D01*
X182833333Y-86265866D02*
X182785714Y-86218247D01*
X182785714Y-86218247D02*
X182690476Y-86170628D01*
X182690476Y-86170628D02*
X182500000Y-86123009D01*
X182500000Y-86123009D02*
X182404762Y-86075390D01*
X182404762Y-86075390D02*
X182357143Y-86027771D01*
X182357143Y-86027771D02*
X182309524Y-85932533D01*
X182309524Y-85932533D02*
X182309524Y-85837295D01*
X182309524Y-85837295D02*
X182357143Y-85742057D01*
X182357143Y-85742057D02*
X182404762Y-85694438D01*
X182404762Y-85694438D02*
X182500000Y-85646819D01*
X182500000Y-85646819D02*
X182738095Y-85646819D01*
X182738095Y-85646819D02*
X182880952Y-85694438D01*
X183309524Y-86646819D02*
X183309524Y-85646819D01*
X183309524Y-85646819D02*
X183547619Y-85646819D01*
X183547619Y-85646819D02*
X183690476Y-85694438D01*
X183690476Y-85694438D02*
X183785714Y-85789676D01*
X183785714Y-85789676D02*
X183833333Y-85884914D01*
X183833333Y-85884914D02*
X183880952Y-86075390D01*
X183880952Y-86075390D02*
X183880952Y-86218247D01*
X183880952Y-86218247D02*
X183833333Y-86408723D01*
X183833333Y-86408723D02*
X183785714Y-86503961D01*
X183785714Y-86503961D02*
X183690476Y-86599200D01*
X183690476Y-86599200D02*
X183547619Y-86646819D01*
X183547619Y-86646819D02*
X183309524Y-86646819D01*
X184261905Y-86361104D02*
X184738095Y-86361104D01*
X184166667Y-86646819D02*
X184500000Y-85646819D01*
X184500000Y-85646819D02*
X184833333Y-86646819D01*
X185690476Y-86646819D02*
X185119048Y-86646819D01*
X185404762Y-86646819D02*
X185404762Y-85646819D01*
X185404762Y-85646819D02*
X185309524Y-85789676D01*
X185309524Y-85789676D02*
X185214286Y-85884914D01*
X185214286Y-85884914D02*
X185119048Y-85932533D01*
D12*
%TO.C,A1*%
X170510000Y-66570000D02*
X180930000Y-66570000D01*
X170510000Y-74450000D02*
X170510000Y-66570000D01*
X173050000Y-61490000D02*
X173050000Y-66570000D01*
X173050000Y-79530000D02*
X173050000Y-74450000D01*
X173050000Y-79530000D02*
X216490000Y-79530000D01*
X175720000Y-64160000D02*
X175720000Y-61490000D01*
X175720000Y-76860000D02*
X175720000Y-79530000D01*
X180930000Y-66570000D02*
X180930000Y-74450000D01*
X180930000Y-74450000D02*
X170510000Y-74450000D01*
X211280000Y-61490000D02*
X173050000Y-61490000D01*
X211280000Y-64160000D02*
X175720000Y-64160000D01*
X211280000Y-64160000D02*
X211280000Y-61490000D01*
X211280000Y-64160000D02*
X213820000Y-64160000D01*
X213820000Y-64160000D02*
X213820000Y-61490000D01*
X213820000Y-76860000D02*
X175720000Y-76860000D01*
X213820000Y-76860000D02*
X213820000Y-79530000D01*
X216490000Y-61490000D02*
X213820000Y-61490000D01*
X216490000Y-79530000D02*
X216490000Y-61490000D01*
%TO.C,GND1*%
X211800000Y-82800000D02*
X214200000Y-82800000D01*
X211800000Y-85200000D02*
X211800000Y-82800000D01*
X214200000Y-82800000D02*
X214200000Y-85200000D01*
X214200000Y-85200000D02*
X211800000Y-85200000D01*
%TO.C,MPU6050*%
X195850000Y-82315000D02*
X195850000Y-82090000D01*
X195850000Y-86150000D02*
X195850000Y-85625000D01*
X195850000Y-86150000D02*
X196375000Y-86150000D01*
X196375000Y-81850000D02*
X196150000Y-81850000D01*
X200150000Y-81850000D02*
X199625000Y-81850000D01*
X200150000Y-81850000D02*
X200150000Y-82375000D01*
X200150000Y-86150000D02*
X199625000Y-86150000D01*
X200150000Y-86150000D02*
X200150000Y-85625000D01*
X195850000Y-81850000D02*
X195610000Y-81520000D01*
X196090000Y-81520000D01*
X195850000Y-81850000D01*
G36*
X195850000Y-81850000D02*
G01*
X195610000Y-81520000D01*
X196090000Y-81520000D01*
X195850000Y-81850000D01*
G37*
%TO.C,SERVO_5V1*%
X182940000Y-91160000D02*
X185340000Y-91160000D01*
X182940000Y-93560000D02*
X182940000Y-91160000D01*
X185340000Y-91160000D02*
X185340000Y-93560000D01*
X185340000Y-93560000D02*
X182940000Y-93560000D01*
%TO.C,Screw Header*%
X199112500Y-88630000D02*
X207152500Y-88630000D01*
X199112500Y-91450000D02*
X199112500Y-88630000D01*
X199112500Y-99370000D02*
X199112500Y-92050000D01*
X201232500Y-88630000D02*
X201232500Y-89870000D01*
X201232500Y-93630000D02*
X201232500Y-96207000D01*
X201232500Y-97293000D02*
X201232500Y-99370000D01*
X202532500Y-88630000D02*
X202532500Y-89870000D01*
X202532500Y-93630000D02*
X202532500Y-94938000D01*
X202532500Y-98562000D02*
X202532500Y-99370000D01*
X203532500Y-88630000D02*
X203532500Y-89870000D01*
X203532500Y-93630000D02*
X203532500Y-94938000D01*
X203532500Y-98562000D02*
X203532500Y-99370000D01*
X207152500Y-88630000D02*
X207152500Y-99370000D01*
X207152500Y-99370000D02*
X199112500Y-99370000D01*
X199112500Y-91750000D02*
X198502500Y-92190000D01*
X198502500Y-91310000D01*
X199112500Y-91750000D01*
G36*
X199112500Y-91750000D02*
G01*
X198502500Y-92190000D01*
X198502500Y-91310000D01*
X199112500Y-91750000D01*
G37*
D13*
%TO.C,G\u002A\u002A\u002A*%
G36*
X174701875Y-89484554D02*
G01*
X174700808Y-89489565D01*
X174696435Y-89499188D01*
X174688448Y-89514055D01*
X174676539Y-89534800D01*
X174667735Y-89549738D01*
X174660804Y-89561447D01*
X174654582Y-89572031D01*
X174647940Y-89583428D01*
X174639752Y-89597576D01*
X174628887Y-89616414D01*
X174625826Y-89621726D01*
X174617179Y-89636708D01*
X174609131Y-89650602D01*
X174603407Y-89660432D01*
X174603352Y-89660527D01*
X174599622Y-89666916D01*
X174592322Y-89679444D01*
X174581989Y-89697188D01*
X174569160Y-89719225D01*
X174554372Y-89744633D01*
X174538162Y-89772490D01*
X174526075Y-89793265D01*
X174455978Y-89913751D01*
X174458083Y-89938256D01*
X174459202Y-89954417D01*
X174460230Y-89975096D01*
X174461144Y-89999017D01*
X174461923Y-90024903D01*
X174462544Y-90051476D01*
X174462986Y-90077459D01*
X174463227Y-90101574D01*
X174463244Y-90122544D01*
X174463015Y-90139092D01*
X174462519Y-90149940D01*
X174461800Y-90153792D01*
X174457677Y-90151982D01*
X174448583Y-90145639D01*
X174435668Y-90135637D01*
X174420082Y-90122852D01*
X174411403Y-90115479D01*
X174392919Y-90099386D01*
X174379897Y-90087411D01*
X174371434Y-90078551D01*
X174366627Y-90071800D01*
X174364576Y-90066157D01*
X174364293Y-90063046D01*
X174363620Y-90054024D01*
X174362251Y-90049626D01*
X174358365Y-90046400D01*
X174350330Y-90039488D01*
X174342980Y-90033089D01*
X174329556Y-90022599D01*
X174320203Y-90018509D01*
X174314142Y-90020645D01*
X174311338Y-90026068D01*
X174306833Y-90032690D01*
X174302973Y-90034236D01*
X174297924Y-90031693D01*
X174288040Y-90024711D01*
X174274608Y-90014266D01*
X174258910Y-90001331D01*
X174253586Y-89996796D01*
X174209971Y-89959356D01*
X174221771Y-89949947D01*
X174229283Y-89942277D01*
X174229839Y-89937072D01*
X174229569Y-89936786D01*
X174211573Y-89920505D01*
X174197804Y-89909633D01*
X174187101Y-89903445D01*
X174178299Y-89901214D01*
X174173115Y-89901529D01*
X174166800Y-89902017D01*
X174160488Y-89900479D01*
X174152693Y-89896060D01*
X174141929Y-89887905D01*
X174126712Y-89875161D01*
X174125505Y-89874128D01*
X174104510Y-89856081D01*
X174089077Y-89842575D01*
X174078492Y-89832924D01*
X174072039Y-89826442D01*
X174069003Y-89822444D01*
X174068669Y-89820244D01*
X174068933Y-89819886D01*
X174073815Y-89818372D01*
X174084775Y-89816387D01*
X174099764Y-89814283D01*
X174105544Y-89813588D01*
X174153853Y-89807964D01*
X174194617Y-89803068D01*
X174228420Y-89798816D01*
X174255844Y-89795120D01*
X174277471Y-89791896D01*
X174293885Y-89789058D01*
X174305669Y-89786519D01*
X174313406Y-89784194D01*
X174317037Y-89782454D01*
X174320740Y-89779916D01*
X174326202Y-89775915D01*
X174333909Y-89770069D01*
X174344346Y-89761996D01*
X174357997Y-89751315D01*
X174375347Y-89737645D01*
X174396881Y-89720603D01*
X174423084Y-89699809D01*
X174454441Y-89674880D01*
X174491437Y-89645436D01*
X174513517Y-89627853D01*
X174552752Y-89596623D01*
X174586096Y-89570130D01*
X174614029Y-89548003D01*
X174637032Y-89529869D01*
X174655587Y-89515356D01*
X174670174Y-89504091D01*
X174681275Y-89495701D01*
X174689369Y-89489815D01*
X174694939Y-89486060D01*
X174698465Y-89484064D01*
X174699943Y-89483521D01*
X174701875Y-89484554D01*
G37*
G36*
X172827173Y-89640541D02*
G01*
X172861628Y-89640962D01*
X172893576Y-89641740D01*
X172921493Y-89642873D01*
X172943855Y-89644362D01*
X172955365Y-89645613D01*
X172976837Y-89648605D01*
X172999899Y-89651828D01*
X173020071Y-89654655D01*
X173022755Y-89655032D01*
X173080937Y-89664610D01*
X173142466Y-89677290D01*
X173205537Y-89692560D01*
X173268346Y-89709910D01*
X173329085Y-89728830D01*
X173385951Y-89748810D01*
X173437137Y-89769338D01*
X173454621Y-89777129D01*
X173465415Y-89781865D01*
X173472887Y-89784719D01*
X173474481Y-89785097D01*
X173479456Y-89786917D01*
X173490351Y-89791938D01*
X173505885Y-89799505D01*
X173524779Y-89808958D01*
X173545752Y-89819642D01*
X173567526Y-89830899D01*
X173588818Y-89842071D01*
X173608351Y-89852502D01*
X173624844Y-89861534D01*
X173637016Y-89868511D01*
X173637487Y-89868793D01*
X173655000Y-89879668D01*
X173675786Y-89893130D01*
X173698616Y-89908324D01*
X173722262Y-89924398D01*
X173745495Y-89940498D01*
X173767086Y-89955771D01*
X173785806Y-89969362D01*
X173800427Y-89980418D01*
X173809718Y-89988086D01*
X173811017Y-89989326D01*
X173814911Y-89992610D01*
X173823698Y-89999744D01*
X173835864Y-90009504D01*
X173843691Y-90015742D01*
X173866524Y-90034290D01*
X173892586Y-90056099D01*
X173919876Y-90079445D01*
X173946396Y-90102602D01*
X173970146Y-90123845D01*
X173986193Y-90138668D01*
X174012460Y-90163456D01*
X173983734Y-90191763D01*
X173956478Y-90218580D01*
X173924651Y-90249823D01*
X173889545Y-90284229D01*
X173852451Y-90320536D01*
X173814659Y-90357480D01*
X173777461Y-90393799D01*
X173742148Y-90428230D01*
X173710915Y-90458630D01*
X173684600Y-90484225D01*
X173656163Y-90511896D01*
X173627292Y-90540002D01*
X173599675Y-90566898D01*
X173574999Y-90590943D01*
X173559835Y-90605728D01*
X173538439Y-90626555D01*
X173516763Y-90647577D01*
X173496268Y-90667383D01*
X173478412Y-90684566D01*
X173464655Y-90697713D01*
X173462612Y-90699651D01*
X173430737Y-90729835D01*
X173415966Y-90707755D01*
X173403104Y-90689927D01*
X173386794Y-90669355D01*
X173368718Y-90647980D01*
X173350560Y-90627746D01*
X173334005Y-90610593D01*
X173322472Y-90599906D01*
X173279496Y-90567863D01*
X173234447Y-90543185D01*
X173185801Y-90525084D01*
X173167850Y-90520209D01*
X173151142Y-90516362D01*
X173136481Y-90513912D01*
X173121417Y-90512671D01*
X173103497Y-90512455D01*
X173080271Y-90513076D01*
X173075954Y-90513239D01*
X173021490Y-90518636D01*
X172971615Y-90530583D01*
X172925738Y-90549314D01*
X172883270Y-90575060D01*
X172849593Y-90602467D01*
X172812789Y-90640810D01*
X172782767Y-90682483D01*
X172758920Y-90728507D01*
X172740639Y-90779900D01*
X172737886Y-90789824D01*
X172734642Y-90807260D01*
X172732335Y-90830289D01*
X172730986Y-90856710D01*
X172730615Y-90884320D01*
X172731245Y-90910917D01*
X172732896Y-90934299D01*
X172735588Y-90952263D01*
X172736313Y-90955236D01*
X172754878Y-91011063D01*
X172778867Y-91060809D01*
X172808315Y-91104530D01*
X172843257Y-91142284D01*
X172857290Y-91154510D01*
X172874797Y-91168846D01*
X172887815Y-91178592D01*
X172898290Y-91184188D01*
X172908169Y-91186071D01*
X172919401Y-91184681D01*
X172933933Y-91180454D01*
X172949452Y-91175257D01*
X173016106Y-91149314D01*
X173083968Y-91115830D01*
X173153162Y-91074725D01*
X173223811Y-91025918D01*
X173296041Y-90969328D01*
X173369975Y-90904874D01*
X173381813Y-90893973D01*
X173392741Y-90883785D01*
X173402747Y-90874297D01*
X173412672Y-90864654D01*
X173423357Y-90854001D01*
X173435642Y-90841483D01*
X173450369Y-90826246D01*
X173468378Y-90807434D01*
X173490510Y-90784193D01*
X173510790Y-90762847D01*
X173542275Y-90729689D01*
X173568628Y-90701937D01*
X173590341Y-90679073D01*
X173607905Y-90660579D01*
X173621814Y-90645938D01*
X173632558Y-90634632D01*
X173640630Y-90626143D01*
X173646521Y-90619953D01*
X173650725Y-90615544D01*
X173653732Y-90612398D01*
X173653773Y-90612356D01*
X173659915Y-90605882D01*
X173670074Y-90595110D01*
X173682683Y-90581702D01*
X173692573Y-90571166D01*
X173702441Y-90560654D01*
X173712592Y-90549863D01*
X173723726Y-90538052D01*
X173736546Y-90524480D01*
X173751753Y-90508404D01*
X173770047Y-90489083D01*
X173792131Y-90465776D01*
X173818705Y-90437741D01*
X173837565Y-90417849D01*
X173852294Y-90402282D01*
X173870966Y-90382501D01*
X173891936Y-90360251D01*
X173913558Y-90337276D01*
X173933545Y-90316009D01*
X173966923Y-90280598D01*
X174000402Y-90245335D01*
X174033502Y-90210710D01*
X174065743Y-90177208D01*
X174096646Y-90145318D01*
X174125730Y-90115527D01*
X174152517Y-90088323D01*
X174176525Y-90064193D01*
X174197276Y-90043625D01*
X174214289Y-90027107D01*
X174227085Y-90015125D01*
X174235184Y-90008167D01*
X174238050Y-90006594D01*
X174238565Y-90011731D01*
X174237325Y-90022989D01*
X174234670Y-90038591D01*
X174230939Y-90056763D01*
X174226471Y-90075729D01*
X174221604Y-90093714D01*
X174221076Y-90095500D01*
X174210323Y-90130939D01*
X174200438Y-90162404D01*
X174191797Y-90188726D01*
X174184780Y-90208735D01*
X174182810Y-90213946D01*
X174175072Y-90232606D01*
X174166320Y-90251715D01*
X174157332Y-90269800D01*
X174148883Y-90285388D01*
X174141750Y-90297006D01*
X174136711Y-90303181D01*
X174135429Y-90303797D01*
X174131839Y-90299994D01*
X174128703Y-90289700D01*
X174127459Y-90282355D01*
X174124809Y-90267980D01*
X174121327Y-90255540D01*
X174119501Y-90251124D01*
X174114438Y-90241336D01*
X174112113Y-90251124D01*
X174110528Y-90260130D01*
X174108645Y-90274168D01*
X174106944Y-90289502D01*
X174103837Y-90311154D01*
X174098643Y-90337369D01*
X174092090Y-90365045D01*
X174084902Y-90391075D01*
X174078980Y-90409188D01*
X174071606Y-90427573D01*
X174062277Y-90447895D01*
X174051740Y-90468832D01*
X174040744Y-90489065D01*
X174030038Y-90507274D01*
X174020369Y-90522139D01*
X174012486Y-90532341D01*
X174007137Y-90536558D01*
X174006748Y-90536600D01*
X174005028Y-90532824D01*
X174003632Y-90522729D01*
X174002772Y-90508162D01*
X174002619Y-90500863D01*
X174002112Y-90481461D01*
X174001090Y-90462353D01*
X173999756Y-90447099D01*
X173999453Y-90444704D01*
X173997633Y-90433092D01*
X173995949Y-90428504D01*
X173993678Y-90429844D01*
X173991743Y-90433016D01*
X173988802Y-90440897D01*
X173985173Y-90454412D01*
X173981481Y-90471132D01*
X173980169Y-90477943D01*
X173975515Y-90503034D01*
X173971881Y-90522048D01*
X173968846Y-90536951D01*
X173965988Y-90549706D01*
X173962886Y-90562277D01*
X173959116Y-90576629D01*
X173958352Y-90579485D01*
X173936254Y-90647013D01*
X173906946Y-90711054D01*
X173889708Y-90741671D01*
X173878394Y-90759998D01*
X173870369Y-90770967D01*
X173865074Y-90774425D01*
X173861951Y-90770220D01*
X173860439Y-90758197D01*
X173859980Y-90738206D01*
X173859965Y-90733537D01*
X173859433Y-90709804D01*
X173857963Y-90692796D01*
X173855630Y-90682905D01*
X173852509Y-90680526D01*
X173850294Y-90682862D01*
X173848231Y-90687993D01*
X173844174Y-90699519D01*
X173838594Y-90716049D01*
X173831963Y-90736190D01*
X173826944Y-90751710D01*
X173815690Y-90786613D01*
X173804826Y-90820033D01*
X173794671Y-90851013D01*
X173785542Y-90878593D01*
X173777758Y-90901815D01*
X173771638Y-90919721D01*
X173767499Y-90931351D01*
X173766145Y-90934815D01*
X173763409Y-90941577D01*
X173758432Y-90954261D01*
X173751882Y-90971157D01*
X173744424Y-90990552D01*
X173743090Y-90994037D01*
X173734045Y-91016886D01*
X173724158Y-91040565D01*
X173714672Y-91062166D01*
X173707335Y-91077764D01*
X173699622Y-91093091D01*
X173694672Y-91101942D01*
X173691671Y-91105185D01*
X173689808Y-91103689D01*
X173688271Y-91098323D01*
X173688239Y-91098186D01*
X173687008Y-91089066D01*
X173685943Y-91074087D01*
X173685178Y-91055559D01*
X173684888Y-91041118D01*
X173684421Y-91021242D01*
X173683340Y-91008556D01*
X173681370Y-91003176D01*
X173678236Y-91005219D01*
X173673662Y-91014801D01*
X173667373Y-91032039D01*
X173660989Y-91051217D01*
X173646618Y-91093837D01*
X173630342Y-91139615D01*
X173612857Y-91186748D01*
X173594861Y-91233431D01*
X173577050Y-91277860D01*
X173560121Y-91318232D01*
X173544769Y-91352743D01*
X173543491Y-91355494D01*
X173526405Y-91391481D01*
X173509201Y-91426509D01*
X173492300Y-91459819D01*
X173476116Y-91490655D01*
X173461069Y-91518259D01*
X173447576Y-91541873D01*
X173436054Y-91560740D01*
X173426920Y-91574103D01*
X173420592Y-91581204D01*
X173418563Y-91582170D01*
X173416756Y-91578426D01*
X173415427Y-91568545D01*
X173414833Y-91554559D01*
X173414823Y-91552559D01*
X173414530Y-91532176D01*
X173413757Y-91511071D01*
X173412617Y-91490712D01*
X173411222Y-91472568D01*
X173409689Y-91458107D01*
X173408129Y-91448799D01*
X173406656Y-91446111D01*
X173406584Y-91446180D01*
X173403625Y-91451630D01*
X173399218Y-91462055D01*
X173396269Y-91469853D01*
X173391503Y-91481888D01*
X173384248Y-91498879D01*
X173375551Y-91518417D01*
X173367820Y-91535201D01*
X173337844Y-91593206D01*
X173305661Y-91644090D01*
X173271440Y-91687663D01*
X173235345Y-91723731D01*
X173197543Y-91752102D01*
X173165461Y-91769455D01*
X173145560Y-91777365D01*
X173125116Y-91783688D01*
X173105743Y-91788127D01*
X173089057Y-91790383D01*
X173076672Y-91790158D01*
X173070202Y-91787153D01*
X173070142Y-91787060D01*
X173071744Y-91782691D01*
X173078001Y-91774652D01*
X173086626Y-91765617D01*
X173097881Y-91753730D01*
X173109194Y-91740166D01*
X173119508Y-91726431D01*
X173127766Y-91714028D01*
X173132909Y-91704464D01*
X173133879Y-91699243D01*
X173133537Y-91698884D01*
X173128232Y-91699226D01*
X173117711Y-91702225D01*
X173104230Y-91707237D01*
X173103934Y-91707358D01*
X173072943Y-91719746D01*
X173044640Y-91730247D01*
X173017666Y-91739187D01*
X172990662Y-91746894D01*
X172962272Y-91753692D01*
X172931136Y-91759907D01*
X172895897Y-91765867D01*
X172855197Y-91771896D01*
X172809186Y-91778123D01*
X172789099Y-91779987D01*
X172763042Y-91781279D01*
X172733192Y-91781999D01*
X172701729Y-91782143D01*
X172670830Y-91781712D01*
X172642673Y-91780704D01*
X172619437Y-91779116D01*
X172611562Y-91778263D01*
X172523457Y-91764393D01*
X172440837Y-91745549D01*
X172362387Y-91721283D01*
X172286792Y-91691147D01*
X172212739Y-91654694D01*
X172159859Y-91624419D01*
X172102158Y-91586156D01*
X172044255Y-91541445D01*
X171987780Y-91491798D01*
X171934361Y-91438727D01*
X171885629Y-91383744D01*
X171847774Y-91334782D01*
X171799903Y-91262021D01*
X171757668Y-91185274D01*
X171721610Y-91105782D01*
X171692265Y-91024787D01*
X171670171Y-90943531D01*
X171662933Y-90908268D01*
X171660111Y-90893210D01*
X171657642Y-90880459D01*
X171656225Y-90873551D01*
X171654435Y-90862580D01*
X171652358Y-90845274D01*
X171650144Y-90823452D01*
X171647945Y-90798935D01*
X171645914Y-90773546D01*
X171644200Y-90749103D01*
X171642957Y-90727429D01*
X171642335Y-90710343D01*
X171642291Y-90706097D01*
X171643005Y-90677070D01*
X171644989Y-90643156D01*
X171647989Y-90607493D01*
X171651753Y-90573219D01*
X171654834Y-90550895D01*
X171670801Y-90470929D01*
X171693937Y-90390436D01*
X171723574Y-90311190D01*
X171759046Y-90234970D01*
X171799683Y-90163550D01*
X171801521Y-90160638D01*
X171855827Y-90082447D01*
X171915955Y-90009901D01*
X171981620Y-89943227D01*
X172052532Y-89882649D01*
X172128406Y-89828393D01*
X172208953Y-89780683D01*
X172293887Y-89739745D01*
X172381527Y-89706270D01*
X172428268Y-89691495D01*
X172474577Y-89678796D01*
X172522423Y-89667733D01*
X172573776Y-89657865D01*
X172630607Y-89648752D01*
X172653130Y-89645524D01*
X172670625Y-89643797D01*
X172694757Y-89642429D01*
X172724002Y-89641420D01*
X172756836Y-89640770D01*
X172791734Y-89640477D01*
X172827173Y-89640541D01*
G37*
G36*
X174202124Y-90315236D02*
G01*
X174208848Y-90324302D01*
X174218447Y-90338043D01*
X174230185Y-90355342D01*
X174243324Y-90375077D01*
X174257128Y-90396131D01*
X174270858Y-90417385D01*
X174283778Y-90437718D01*
X174295152Y-90456012D01*
X174304241Y-90471148D01*
X174306965Y-90475878D01*
X174321048Y-90501660D01*
X174336856Y-90532104D01*
X174353394Y-90565164D01*
X174369666Y-90598789D01*
X174384677Y-90630932D01*
X174397431Y-90659544D01*
X174404938Y-90677507D01*
X174412642Y-90696726D01*
X174419485Y-90713764D01*
X174424764Y-90726878D01*
X174427780Y-90734324D01*
X174427929Y-90734687D01*
X174438895Y-90763729D01*
X174450705Y-90799214D01*
X174462935Y-90839518D01*
X174475161Y-90883013D01*
X174486961Y-90928074D01*
X174497909Y-90973076D01*
X174507584Y-91016391D01*
X174515561Y-91056394D01*
X174521417Y-91091460D01*
X174522079Y-91096143D01*
X174532400Y-91179184D01*
X174539581Y-91255991D01*
X174543679Y-91327846D01*
X174544746Y-91396035D01*
X174542837Y-91461841D01*
X174539592Y-91509161D01*
X174537289Y-91536216D01*
X174569305Y-91539132D01*
X174602749Y-91545003D01*
X174630147Y-91556149D01*
X174651934Y-91572872D01*
X174668546Y-91595471D01*
X174676868Y-91613710D01*
X174679390Y-91620833D01*
X174681356Y-91627845D01*
X174682822Y-91635805D01*
X174683843Y-91645772D01*
X174684474Y-91658805D01*
X174684771Y-91675964D01*
X174684790Y-91698308D01*
X174684586Y-91726895D01*
X174684292Y-91755591D01*
X174683006Y-91874195D01*
X174772860Y-91876237D01*
X174805779Y-91877107D01*
X174831746Y-91878241D01*
X174851979Y-91879931D01*
X174867693Y-91882472D01*
X174880106Y-91886156D01*
X174890434Y-91891276D01*
X174899893Y-91898126D01*
X174909701Y-91906999D01*
X174912745Y-91909954D01*
X174922530Y-91920088D01*
X174927715Y-91928175D01*
X174929756Y-91937652D01*
X174930104Y-91951041D01*
X174929839Y-91964388D01*
X174928682Y-91971178D01*
X174926089Y-91973016D01*
X174922956Y-91972143D01*
X174908551Y-91966770D01*
X174891911Y-91961513D01*
X174875752Y-91957131D01*
X174862793Y-91954386D01*
X174857464Y-91953838D01*
X174846816Y-91953838D01*
X174859134Y-91967111D01*
X174871203Y-91981350D01*
X174880172Y-91995526D01*
X174887836Y-92012781D01*
X174892347Y-92025312D01*
X174896781Y-92040926D01*
X174900273Y-92058181D01*
X174902598Y-92075065D01*
X174903528Y-92089566D01*
X174902836Y-92099673D01*
X174901119Y-92103157D01*
X174897259Y-92101515D01*
X174893206Y-92094377D01*
X174888128Y-92085757D01*
X174879020Y-92074507D01*
X174867201Y-92061847D01*
X174853991Y-92048997D01*
X174840710Y-92037177D01*
X174828676Y-92027606D01*
X174819209Y-92021505D01*
X174813629Y-92020093D01*
X174813176Y-92020393D01*
X174812657Y-92025364D01*
X174813834Y-92035602D01*
X174815345Y-92043610D01*
X174817149Y-92055734D01*
X174818488Y-92072014D01*
X174819355Y-92090752D01*
X174819743Y-92110250D01*
X174819644Y-92128810D01*
X174819051Y-92144734D01*
X174817955Y-92156326D01*
X174816350Y-92161886D01*
X174815870Y-92162135D01*
X174812089Y-92158755D01*
X174806366Y-92150002D01*
X174801409Y-92140685D01*
X174787448Y-92117726D01*
X174768005Y-92093533D01*
X174745002Y-92070323D01*
X174727563Y-92055652D01*
X174704127Y-92037565D01*
X174615966Y-92036447D01*
X174589406Y-92036022D01*
X174565168Y-92035469D01*
X174544600Y-92034832D01*
X174529051Y-92034155D01*
X174519870Y-92033482D01*
X174518455Y-92033265D01*
X174509106Y-92031203D01*
X174511937Y-91903297D01*
X174512698Y-91865840D01*
X174513136Y-91835832D01*
X174513241Y-91812561D01*
X174513000Y-91795314D01*
X174512400Y-91783378D01*
X174511431Y-91776039D01*
X174510078Y-91772585D01*
X174509699Y-91772257D01*
X174504371Y-91771016D01*
X174499802Y-91775181D01*
X174495434Y-91785663D01*
X174490793Y-91803013D01*
X174480665Y-91843150D01*
X174468394Y-91887417D01*
X174454952Y-91932522D01*
X174441309Y-91975172D01*
X174432218Y-92001641D01*
X174422970Y-92027288D01*
X174414640Y-92049449D01*
X174406474Y-92069876D01*
X174397718Y-92090319D01*
X174387618Y-92112530D01*
X174375422Y-92138260D01*
X174360374Y-92169261D01*
X174357912Y-92174296D01*
X174331100Y-92227414D01*
X174303327Y-92278945D01*
X174273595Y-92330594D01*
X174240906Y-92384068D01*
X174204263Y-92441072D01*
X174184240Y-92471293D01*
X174142853Y-92531118D01*
X174102548Y-92584899D01*
X174061938Y-92634380D01*
X174019634Y-92681302D01*
X174004030Y-92697588D01*
X173953966Y-92749057D01*
X173953966Y-92953634D01*
X173953891Y-92999342D01*
X173953671Y-93040433D01*
X173953317Y-93076378D01*
X173952839Y-93106648D01*
X173952245Y-93130715D01*
X173951547Y-93148049D01*
X173950754Y-93158123D01*
X173950133Y-93160581D01*
X173945289Y-93161201D01*
X173933230Y-93161906D01*
X173914910Y-93162664D01*
X173891281Y-93163442D01*
X173863296Y-93164210D01*
X173831907Y-93164935D01*
X173802078Y-93165515D01*
X173657857Y-93168081D01*
X173641520Y-93179277D01*
X173628404Y-93189672D01*
X173612936Y-93204042D01*
X173596900Y-93220487D01*
X173582079Y-93237110D01*
X173570259Y-93252011D01*
X173563947Y-93261821D01*
X173557344Y-93272946D01*
X173552414Y-93277423D01*
X173548968Y-93274937D01*
X173546815Y-93265171D01*
X173545767Y-93247809D01*
X173545589Y-93231189D01*
X173546238Y-93206898D01*
X173547982Y-93184674D01*
X173550590Y-93167140D01*
X173551565Y-93162968D01*
X173554585Y-93150654D01*
X173556215Y-93142041D01*
X173556241Y-93139443D01*
X173552602Y-93141016D01*
X173544383Y-93146362D01*
X173534949Y-93153156D01*
X173519789Y-93165520D01*
X173504310Y-93179887D01*
X173490136Y-93194561D01*
X173478894Y-93207842D01*
X173472212Y-93218033D01*
X173471706Y-93219182D01*
X173467456Y-93226571D01*
X173463991Y-93226729D01*
X173461747Y-93220583D01*
X173461155Y-93209064D01*
X173461958Y-93198286D01*
X173468200Y-93165581D01*
X173478651Y-93135460D01*
X173492530Y-93109742D01*
X173508105Y-93091111D01*
X173514320Y-93083976D01*
X173516042Y-93079004D01*
X173515755Y-93078536D01*
X173510064Y-93077697D01*
X173498705Y-93079254D01*
X173483654Y-93082723D01*
X173466887Y-93087619D01*
X173450379Y-93093460D01*
X173443827Y-93096153D01*
X173431716Y-93100931D01*
X173422871Y-93103560D01*
X173419682Y-93103629D01*
X173419313Y-93098180D01*
X173422168Y-93087760D01*
X173427412Y-93074491D01*
X173434213Y-93060492D01*
X173441361Y-93048445D01*
X173455537Y-93032411D01*
X173474431Y-93017956D01*
X173495048Y-93007054D01*
X173511771Y-93002041D01*
X173520301Y-93001297D01*
X173535580Y-93000634D01*
X173556189Y-93000088D01*
X173580710Y-92999691D01*
X173607724Y-92999479D01*
X173619578Y-92999453D01*
X173651667Y-92999315D01*
X173676337Y-92998910D01*
X173694337Y-92998199D01*
X173706412Y-92997140D01*
X173713311Y-92995694D01*
X173715558Y-92994302D01*
X173716628Y-92988881D01*
X173717522Y-92976981D01*
X173718229Y-92960188D01*
X173718738Y-92940090D01*
X173719035Y-92918271D01*
X173719110Y-92896318D01*
X173718952Y-92875818D01*
X173718548Y-92858357D01*
X173717887Y-92845520D01*
X173716957Y-92838895D01*
X173716702Y-92838415D01*
X173712093Y-92838794D01*
X173702142Y-92842048D01*
X173688866Y-92847501D01*
X173686723Y-92848462D01*
X173669167Y-92855764D01*
X173645605Y-92864623D01*
X173617900Y-92874410D01*
X173587917Y-92884501D01*
X173557521Y-92894269D01*
X173528577Y-92903088D01*
X173502948Y-92910332D01*
X173500613Y-92910953D01*
X173470112Y-92918631D01*
X173439542Y-92925504D01*
X173408341Y-92931608D01*
X173375947Y-92936977D01*
X173341798Y-92941644D01*
X173305331Y-92945645D01*
X173265985Y-92949013D01*
X173223197Y-92951783D01*
X173176405Y-92953988D01*
X173125047Y-92955664D01*
X173068561Y-92956845D01*
X173006385Y-92957564D01*
X172937956Y-92957856D01*
X172862713Y-92957755D01*
X172780094Y-92957297D01*
X172745026Y-92957022D01*
X172685014Y-92956518D01*
X172618807Y-92955963D01*
X172548246Y-92955371D01*
X172475174Y-92954759D01*
X172401432Y-92954141D01*
X172328862Y-92953533D01*
X172259308Y-92952950D01*
X172194609Y-92952409D01*
X172147703Y-92952016D01*
X172099247Y-92951573D01*
X172053248Y-92951079D01*
X172010346Y-92950545D01*
X171971182Y-92949983D01*
X171936398Y-92949405D01*
X171906634Y-92948822D01*
X171882532Y-92948245D01*
X171864733Y-92947685D01*
X171853877Y-92947155D01*
X171850573Y-92946708D01*
X171853754Y-92941351D01*
X171862588Y-92932213D01*
X171876006Y-92920157D01*
X171892942Y-92906049D01*
X171912331Y-92890753D01*
X171933104Y-92875133D01*
X171954196Y-92860055D01*
X171973558Y-92847018D01*
X172046337Y-92804218D01*
X172121015Y-92769007D01*
X172197217Y-92741493D01*
X172274569Y-92721786D01*
X172352696Y-92709993D01*
X172431224Y-92706224D01*
X172457085Y-92706757D01*
X172483038Y-92708060D01*
X172509559Y-92709955D01*
X172534037Y-92712218D01*
X172553864Y-92714628D01*
X172559192Y-92715460D01*
X172584973Y-92719842D01*
X172603922Y-92722867D01*
X172617278Y-92724435D01*
X172626281Y-92724446D01*
X172632171Y-92722800D01*
X172636186Y-92719396D01*
X172639566Y-92714135D01*
X172642529Y-92708730D01*
X172656516Y-92686652D01*
X172675725Y-92660844D01*
X172698967Y-92632638D01*
X172725052Y-92603366D01*
X172752790Y-92574358D01*
X172780992Y-92546946D01*
X172808469Y-92522462D01*
X172810374Y-92520860D01*
X172879266Y-92468084D01*
X172954255Y-92419871D01*
X173034354Y-92376713D01*
X173118579Y-92339103D01*
X173205943Y-92307534D01*
X173279503Y-92286431D01*
X173296419Y-92281917D01*
X173310299Y-92277796D01*
X173319259Y-92274650D01*
X173321493Y-92273468D01*
X173320401Y-92271398D01*
X173312243Y-92270618D01*
X173298001Y-92271011D01*
X173278656Y-92272455D01*
X173255189Y-92274833D01*
X173228580Y-92278026D01*
X173199811Y-92281913D01*
X173169863Y-92286376D01*
X173139716Y-92291296D01*
X173110351Y-92296554D01*
X173082750Y-92302030D01*
X173077893Y-92303062D01*
X173001913Y-92322122D01*
X172930070Y-92345613D01*
X172862859Y-92373244D01*
X172800777Y-92404722D01*
X172744320Y-92439753D01*
X172693985Y-92478045D01*
X172650267Y-92519305D01*
X172613664Y-92563241D01*
X172598338Y-92585876D01*
X172590577Y-92597123D01*
X172583882Y-92604865D01*
X172580208Y-92607259D01*
X172573713Y-92605957D01*
X172562921Y-92602753D01*
X172558228Y-92601173D01*
X172547296Y-92598074D01*
X172530639Y-92594197D01*
X172510599Y-92590058D01*
X172491261Y-92586472D01*
X172473963Y-92583609D01*
X172458438Y-92581509D01*
X172443052Y-92580100D01*
X172426175Y-92579308D01*
X172406172Y-92579060D01*
X172381413Y-92579280D01*
X172350263Y-92579897D01*
X172347235Y-92579966D01*
X172309502Y-92581062D01*
X172278407Y-92582519D01*
X172252422Y-92584454D01*
X172230020Y-92586981D01*
X172209674Y-92590217D01*
X172207946Y-92590537D01*
X172150645Y-92602415D01*
X172099771Y-92615590D01*
X172053614Y-92630660D01*
X172010461Y-92648219D01*
X171968602Y-92668865D01*
X171944511Y-92682333D01*
X171925416Y-92694067D01*
X171904148Y-92708166D01*
X171882374Y-92723418D01*
X171861760Y-92738611D01*
X171843971Y-92752534D01*
X171830676Y-92763974D01*
X171826377Y-92768230D01*
X171816475Y-92778858D01*
X171623185Y-92778858D01*
X171429895Y-92778858D01*
X171429895Y-92605590D01*
X171429895Y-92481616D01*
X171450316Y-92481616D01*
X171451961Y-92488009D01*
X171456178Y-92487352D01*
X171461889Y-92479901D01*
X171462550Y-92478700D01*
X171468537Y-92470294D01*
X171478213Y-92459383D01*
X171485939Y-92451707D01*
X171496885Y-92440803D01*
X171501366Y-92434553D01*
X171499451Y-92432714D01*
X171491212Y-92435039D01*
X171490704Y-92435234D01*
X171477602Y-92442803D01*
X171465223Y-92454101D01*
X171455556Y-92466845D01*
X171450592Y-92478748D01*
X171450316Y-92481616D01*
X171429895Y-92481616D01*
X171429895Y-92432322D01*
X171440011Y-92420300D01*
X171458058Y-92405177D01*
X171482421Y-92395140D01*
X171512995Y-92390225D01*
X171529959Y-92389696D01*
X171555420Y-92390834D01*
X171575250Y-92394474D01*
X171591788Y-92401324D01*
X171607370Y-92412090D01*
X171609288Y-92413679D01*
X171620445Y-92425616D01*
X171630073Y-92440347D01*
X171636493Y-92454935D01*
X171638192Y-92464207D01*
X171640969Y-92473231D01*
X171646360Y-92480707D01*
X171649802Y-92483613D01*
X171654271Y-92485736D01*
X171660997Y-92487196D01*
X171671210Y-92488116D01*
X171686138Y-92488616D01*
X171707011Y-92488816D01*
X171729066Y-92488842D01*
X171797635Y-92486970D01*
X171859783Y-92481298D01*
X171916412Y-92471653D01*
X171968421Y-92457860D01*
X172016711Y-92439743D01*
X172041612Y-92428073D01*
X172086196Y-92401873D01*
X172123944Y-92371430D01*
X172145829Y-92346828D01*
X172440748Y-92346828D01*
X172465254Y-92343947D01*
X172479114Y-92341970D01*
X172498344Y-92338764D01*
X172520319Y-92334785D01*
X172540813Y-92330813D01*
X172567623Y-92325398D01*
X172587961Y-92321192D01*
X172603373Y-92317841D01*
X172615405Y-92314991D01*
X172625601Y-92312289D01*
X172635509Y-92309380D01*
X172638728Y-92308392D01*
X172657000Y-92302744D01*
X172668129Y-92251840D01*
X172675806Y-92216749D01*
X172681969Y-92188648D01*
X172686842Y-92166544D01*
X172690647Y-92149446D01*
X172693608Y-92136361D01*
X172695949Y-92126297D01*
X172697893Y-92118262D01*
X172699663Y-92111264D01*
X172700529Y-92107934D01*
X172702587Y-92097142D01*
X172702621Y-92089742D01*
X172702282Y-92088846D01*
X172699093Y-92090937D01*
X172690851Y-92098155D01*
X172678249Y-92109818D01*
X172661981Y-92125246D01*
X172642740Y-92143761D01*
X172621219Y-92164681D01*
X172598111Y-92187327D01*
X172574110Y-92211018D01*
X172549909Y-92235075D01*
X172526201Y-92258818D01*
X172503679Y-92281567D01*
X172483037Y-92302641D01*
X172464967Y-92321362D01*
X172461170Y-92325345D01*
X172440748Y-92346828D01*
X172145829Y-92346828D01*
X172155044Y-92336469D01*
X172179685Y-92296716D01*
X172198055Y-92251895D01*
X172210341Y-92201732D01*
X172214054Y-92176349D01*
X172219374Y-92131342D01*
X172248376Y-92120542D01*
X172262552Y-92115293D01*
X172282237Y-92108044D01*
X172305263Y-92099592D01*
X172329464Y-92090732D01*
X172340684Y-92086634D01*
X172362530Y-92078629D01*
X172382146Y-92071385D01*
X172398040Y-92065456D01*
X172408720Y-92061399D01*
X172412159Y-92060028D01*
X172419073Y-92057308D01*
X172432521Y-92052224D01*
X172451358Y-92045199D01*
X172474439Y-92036656D01*
X172500620Y-92027016D01*
X172528755Y-92016703D01*
X172557700Y-92006139D01*
X172586309Y-91995746D01*
X172589824Y-91994473D01*
X172686992Y-91958988D01*
X172745026Y-91937461D01*
X172764821Y-91930108D01*
X172785650Y-91922432D01*
X172803549Y-91915892D01*
X172806289Y-91914899D01*
X172823199Y-91908751D01*
X172843795Y-91901216D01*
X172864102Y-91893748D01*
X172867553Y-91892475D01*
X172902125Y-91879755D01*
X172929724Y-91869722D01*
X172951009Y-91862150D01*
X172966637Y-91856810D01*
X172977266Y-91853474D01*
X172983554Y-91851915D01*
X172985277Y-91851731D01*
X172990286Y-91853490D01*
X173001666Y-91858474D01*
X173018485Y-91866244D01*
X173039812Y-91876362D01*
X173064717Y-91888387D01*
X173092269Y-91901881D01*
X173106482Y-91908911D01*
X173134950Y-91922957D01*
X173161183Y-91935751D01*
X173184260Y-91946856D01*
X173203259Y-91955833D01*
X173217256Y-91962244D01*
X173225330Y-91965650D01*
X173226851Y-91966090D01*
X173232172Y-91963100D01*
X173241897Y-91954723D01*
X173255202Y-91941852D01*
X173271268Y-91925379D01*
X173289272Y-91906198D01*
X173308393Y-91885201D01*
X173327808Y-91863280D01*
X173346697Y-91841327D01*
X173364238Y-91820235D01*
X173379608Y-91800897D01*
X173382899Y-91796594D01*
X173404335Y-91766687D01*
X173427423Y-91731624D01*
X173451194Y-91693106D01*
X173474678Y-91652835D01*
X173496906Y-91612512D01*
X173516908Y-91573838D01*
X173533716Y-91538515D01*
X173544632Y-91512738D01*
X173550014Y-91497638D01*
X173556722Y-91476830D01*
X173564107Y-91452530D01*
X173571520Y-91426955D01*
X173578315Y-91402323D01*
X173583842Y-91380852D01*
X173586416Y-91369789D01*
X173594434Y-91343736D01*
X173608281Y-91312605D01*
X173628026Y-91276263D01*
X173653733Y-91234581D01*
X173659580Y-91225617D01*
X173672829Y-91205369D01*
X173685190Y-91186296D01*
X173695651Y-91169972D01*
X173703199Y-91157972D01*
X173705840Y-91153621D01*
X173714836Y-91138269D01*
X173725639Y-91119746D01*
X173737055Y-91100109D01*
X173747891Y-91081415D01*
X173756952Y-91065719D01*
X173762919Y-91055301D01*
X173768004Y-91046452D01*
X173776174Y-91032363D01*
X173786378Y-91014841D01*
X173797566Y-90995691D01*
X173799730Y-90991995D01*
X173819057Y-90958987D01*
X173834710Y-90932246D01*
X173847144Y-90910991D01*
X173856816Y-90894441D01*
X173864181Y-90881814D01*
X173869694Y-90872329D01*
X173873811Y-90865207D01*
X173876988Y-90859665D01*
X173879538Y-90855172D01*
X173885738Y-90844275D01*
X173894182Y-90829524D01*
X173902917Y-90814330D01*
X173912271Y-90798036D01*
X173921669Y-90781569D01*
X173928563Y-90769403D01*
X173935898Y-90756622D01*
X173945489Y-90740240D01*
X173955354Y-90723640D01*
X173956077Y-90722434D01*
X173965317Y-90706940D01*
X173977139Y-90686958D01*
X173990648Y-90664018D01*
X174004948Y-90639651D01*
X174019142Y-90615387D01*
X174032336Y-90592757D01*
X174043632Y-90573290D01*
X174052134Y-90558519D01*
X174055182Y-90553152D01*
X174063471Y-90538659D01*
X174073076Y-90522195D01*
X174077724Y-90514351D01*
X174086691Y-90499202D01*
X174097057Y-90481500D01*
X174104190Y-90469210D01*
X174112626Y-90454615D01*
X174120496Y-90441031D01*
X174125483Y-90432451D01*
X174130046Y-90424631D01*
X174137792Y-90411353D01*
X174147790Y-90394216D01*
X174159107Y-90374817D01*
X174164202Y-90366082D01*
X174175304Y-90347395D01*
X174185129Y-90331502D01*
X174192893Y-90319618D01*
X174197814Y-90312960D01*
X174199012Y-90311966D01*
X174202124Y-90315236D01*
G37*
D12*
%TO.C,SCL1*%
X190070000Y-82390000D02*
X192470000Y-82390000D01*
X190070000Y-84790000D02*
X190070000Y-82390000D01*
X192470000Y-82390000D02*
X192470000Y-84790000D01*
X192470000Y-84790000D02*
X190070000Y-84790000D01*
%TO.C,5V_USB1*%
X204300000Y-82800000D02*
X206700000Y-82800000D01*
X204300000Y-85200000D02*
X204300000Y-82800000D01*
X206700000Y-82800000D02*
X206700000Y-85200000D01*
X206700000Y-85200000D02*
X204300000Y-85200000D01*
D14*
%TO.C,BMP280*%
X182590000Y-82530000D02*
X182590000Y-83170000D01*
X182590000Y-84090000D02*
X182590000Y-84730000D01*
X182740000Y-84730000D02*
X182590000Y-84730000D01*
X182865000Y-82555000D02*
X182715000Y-82555000D01*
X185290000Y-82530000D02*
X185140000Y-82530000D01*
X185290000Y-82530000D02*
X185290000Y-83170000D01*
X185290000Y-84090000D02*
X185290000Y-84530000D01*
X185290000Y-85090000D02*
X185290000Y-84730000D01*
X185650000Y-84730000D01*
X185290000Y-85090000D01*
G36*
X185290000Y-85090000D02*
G01*
X185290000Y-84730000D01*
X185650000Y-84730000D01*
X185290000Y-85090000D01*
G37*
D12*
%TO.C,3V3*%
X176670000Y-91160000D02*
X179070000Y-91160000D01*
X176670000Y-93560000D02*
X176670000Y-91160000D01*
X179070000Y-91160000D02*
X179070000Y-93560000D01*
X179070000Y-93560000D02*
X176670000Y-93560000D01*
%TO.C,J1*%
X189040000Y-98920000D02*
X189040000Y-91080000D01*
X191690000Y-96270000D02*
X191690000Y-98920000D01*
X191690000Y-98920000D02*
X189040000Y-98920000D01*
X194340000Y-91080000D02*
X189040000Y-91080000D01*
X194340000Y-96270000D02*
X191690000Y-96270000D01*
X194340000Y-96270000D02*
X194340000Y-91080000D01*
X194340000Y-97540000D02*
X194340000Y-98920000D01*
X194340000Y-98920000D02*
X192960000Y-98920000D01*
%TO.C,SDA1*%
X182800000Y-86990000D02*
X185200000Y-86990000D01*
X182800000Y-89390000D02*
X182800000Y-86990000D01*
X185200000Y-86990000D02*
X185200000Y-89390000D01*
X185200000Y-89390000D02*
X182800000Y-89390000D01*
%TD*%
M02*
